<svg width="68" height="68" viewBox="0 0 68 68" fill="none" xmlns="http://www.w3.org/2000/svg">
<rect width="68" height="68" rx="18" fill="#0FD879"/>
<path d="M40.5908 35.9719C40.3104 35.717 39.9418 35.581 39.563 35.5927C39.1842 35.6044 38.8247 35.7629 38.5606 36.0346L35.0678 39.6266C34.2271 39.4661 32.5369 38.9392 30.7971 37.2037C29.0573 35.4625 28.5304 33.7679 28.3742 32.933L31.9633 29.4388C32.2354 29.1748 32.394 28.8153 32.4058 28.4364C32.4175 28.0575 32.2813 27.6888 32.026 27.4085L26.6329 21.4783C26.3775 21.1971 26.0226 21.0266 25.6435 21.0028C25.2645 20.9791 24.8911 21.1041 24.6026 21.3513L21.4354 24.0676C21.183 24.3208 21.0324 24.6579 21.0121 25.0148C20.9902 25.3797 20.5728 34.0233 27.2751 40.7286C33.1222 46.5742 40.4463 47.0019 42.4635 47.0019C42.7583 47.0019 42.9393 46.9931 42.9874 46.9902C43.3443 46.9702 43.6812 46.8189 43.9332 46.5655L46.6481 43.3967C46.8954 43.1085 47.0207 42.7352 46.9972 42.3561C46.9738 41.977 46.8035 41.622 46.5225 41.3665L40.5908 35.9719Z" fill="#F8F8F8"/>
</svg>
