<svg width="19" height="20" viewBox="0 0 19 20" fill="none" xmlns="http://www.w3.org/2000/svg">
<path d="M13.0003 1.45446C12.1115 0.516515 10.8702 0 9.5 0C8.12254 0 6.87707 0.51339 5.9924 1.44553C5.09815 2.38793 4.66244 3.66873 4.76475 5.05176C4.96753 7.78031 7.09172 9.99994 9.5 9.99994C11.9083 9.99994 14.0288 7.78076 14.2348 5.05265C14.3385 3.68212 13.9 2.404 13.0003 1.45446ZM17.5382 19.9999H1.46176C1.25133 20.0026 1.04294 19.9594 0.85175 19.8734C0.660558 19.7874 0.491372 19.6609 0.356501 19.503C0.0596346 19.1561 -0.0600256 18.6825 0.0285777 18.2035C0.414048 16.1133 1.61704 14.3575 3.50786 13.1249C5.18767 12.0307 7.31552 11.4285 9.5 11.4285C11.6845 11.4285 13.8123 12.0312 15.4921 13.1249C17.383 14.3571 18.586 16.1129 18.9714 18.203C19.06 18.682 18.9404 19.1557 18.6435 19.5026C18.5087 19.6606 18.3395 19.7872 18.1483 19.8732C17.9571 19.9592 17.7487 20.0025 17.5382 19.9999Z" fill="#00A48A"/>
</svg>
