<svg width="30" height="30" viewBox="0 0 30 30" fill="none" xmlns="http://www.w3.org/2000/svg">
<g clip-path="url(#clip0_362_3)">
<path d="M9.632 19.8161C9.95841 19.8005 10.266 19.6587 10.4898 19.4206C10.7136 19.1825 10.8362 18.8667 10.8315 18.54L10.771 14.2206C11.3815 13.8059 12.7332 13.0967 14.852 13.094C16.9743 13.0949 18.3287 13.8068 18.9329 14.2206L18.8751 18.5391C18.8702 18.8659 18.9926 19.1819 19.2165 19.42C19.4403 19.6582 19.7481 19.7999 20.0746 19.8152L26.9782 20.1427C27.3054 20.1584 27.6257 20.046 27.8713 19.8293C28.1169 19.6127 28.2683 19.3088 28.2935 18.9823L28.5684 15.3952C28.5679 15.0869 28.4542 14.7896 28.249 14.5596C28.0399 14.3238 23.0245 8.79948 14.8502 8.7977C7.72145 8.79859 2.99535 13.0032 1.76555 14.233C1.5858 14.4128 1.48079 14.5285 1.45321 14.5596C1.2478 14.7894 1.13464 15.087 1.13552 15.3952L1.41227 18.9823C1.43719 19.3088 1.58842 19.6127 1.83383 19.8296C2.07924 20.0464 2.3995 20.159 2.72661 20.1435L9.632 19.8161Z" fill="white"/>
</g>
<defs>
<clipPath id="clip0_362_3">
<rect width="30" height="30" fill="white"/>
</clipPath>
</defs>
</svg>
