<svg width="25" height="18" viewBox="0 0 25 18" fill="none" xmlns="http://www.w3.org/2000/svg">
<path d="M16.7857 18H2.21429C1.75963 18 1.32359 17.8104 1.0021 17.4728C0.680612 17.1352 0.5 16.6774 0.5 16.2V1.8C0.5 1.32261 0.680612 0.864773 1.0021 0.527208C1.32359 0.189642 1.75963 0 2.21429 0H16.7857C17.2404 0 17.6764 0.189642 17.9979 0.527208C18.3194 0.864773 18.5 1.32261 18.5 1.8V5.454L23.1457 1.971C23.2736 1.87536 23.4241 1.81846 23.5808 1.80651C23.7374 1.79457 23.8941 1.82803 24.0339 1.90326C24.1736 1.97849 24.291 2.09258 24.3732 2.23308C24.4554 2.37359 24.4993 2.53511 24.5 2.7V15.3C24.4993 15.4649 24.4554 15.6264 24.3732 15.7669C24.291 15.9074 24.1736 16.0215 24.0339 16.0967C23.8941 16.172 23.7374 16.2054 23.5808 16.1935C23.4241 16.1815 23.2736 16.1246 23.1457 16.029L18.5 12.546V16.2C18.5 16.6774 18.3194 17.1352 17.9979 17.4728C17.6764 17.8104 17.2404 18 16.7857 18Z" fill="#00A48A"/>
</svg>
