<svg width="29" height="28" viewBox="0 0 29 28" fill="none" xmlns="http://www.w3.org/2000/svg">
<path d="M18.3137 4H2.00369C1.47326 4 0.96455 4.21071 0.589477 4.58579C0.214405 4.96086 0.00369099 5.46957 0.00369099 6V22C-0.00123033 22.0966 -0.00123033 22.1934 0.00369099 22.29L18.3137 4Z" fill="white"/>
<path d="M27.4639 6.11C27.3049 6.03407 27.1287 6.00148 26.9531 6.01553C26.7775 6.02958 26.6088 6.08977 26.4639 6.19L21.0039 10.06V8.44L28.0039 1.44L26.5639 0L0.00390625 26.56L1.44391 28L5.44391 24H19.0039C19.5343 24 20.043 23.7893 20.4181 23.4142C20.7932 23.0391 21.0039 22.5304 21.0039 22V17.94L26.4239 21.81C26.5732 21.9163 26.7487 21.9795 26.9315 21.9928C27.1142 22.006 27.2971 21.9689 27.4601 21.8853C27.6232 21.8017 27.7601 21.6749 27.856 21.5188C27.9519 21.3627 28.0031 21.1832 28.0039 21V7C28.0043 6.81637 27.9541 6.63618 27.8588 6.47919C27.7636 6.3222 27.627 6.19447 27.4639 6.11Z" fill="white"/>
</svg>
