<svg width="28" height="28" viewBox="0 0 28 28" fill="none"
    xmlns="http://www.w3.org/2000/svg">
    <path d="M18.4546 23.7791H1.94259C1.42738 23.7791 0.933279 23.5707 0.568972 23.1998C0.204665 22.8289 0 22.3258 0 21.8012V5.97791C0 5.45334 0.204665 4.95025 0.568972 4.57932C0.933279 4.20839 1.42738 4 1.94259 4H18.4546C18.9698 4 19.4639 4.20839 19.8282 4.57932C20.1926 4.95025 20.3972 5.45334 20.3972 5.97791V9.99307L25.6616 6.16581C25.8066 6.06072 25.9772 5.9982 26.1546 5.98507C26.3321 5.97194 26.5098 6.00872 26.6681 6.09138C26.8265 6.17404 26.9595 6.29941 27.0526 6.4538C27.1458 6.6082 27.1955 6.78568 27.1963 6.96687V20.8123C27.1955 20.9934 27.1458 21.1709 27.0526 21.3253C26.9595 21.4797 26.8265 21.6051 26.6681 21.6877C26.5098 21.7704 26.3321 21.8072 26.1546 21.7941C25.9772 21.7809 25.8066 21.7184 25.6616 21.6133L20.3972 17.786V21.8012C20.3972 22.3258 20.1926 22.8289 19.8282 23.1998C19.4639 23.5707 18.9698 23.7791 18.4546 23.7791Z" fill="white"/>
</svg>
