<svg width="100" height="100" viewBox="0 0 100 100" fill="none" xmlns="http://www.w3.org/2000/svg">
<path d="M17.9674 73.9687C16.6332 73.9687 15.4118 73.9687 14.2092 73.9687C11.7665 73.9499 10.0189 72.2969 10.0002 70.0052C9.98136 67.7135 11.7101 66.0042 14.1341 65.9666C15.3743 65.9478 16.6144 65.9666 17.911 65.9666C17.911 55.2784 17.911 44.7028 17.911 33.9958C16.6144 33.9958 15.3555 34.0334 14.0777 33.9958C11.6913 33.9207 10.0002 32.2489 10.0002 29.9948C10.0002 27.797 11.6725 26.0501 13.8898 25.9937C15.2051 25.9562 16.5017 25.9937 17.9298 25.9937C17.9486 25.6181 17.9674 25.2987 17.9674 24.9606C17.9674 22.7065 17.9486 20.4524 17.9674 18.2171C18.0237 13.4083 21.406 10.0271 26.2164 10.0083C34.0709 9.98956 41.9066 10.0083 49.761 10.0083C61.6742 10.0083 73.5875 10.0083 85.5007 10.0083C88.4696 10.0083 89.9916 11.5487 89.9916 14.5166C89.9916 14.742 89.9916 14.9486 89.9916 15.174C89.9916 16.0757 90.0104 16.9961 89.9916 17.8977C89.9541 20.3021 88.3381 21.9363 85.9141 22.0115C84.6739 22.0491 83.4149 22.0115 82.0996 22.0115C82.0996 24.6788 82.0996 27.2711 82.0996 29.976C83.2646 29.976 84.4108 29.976 85.5571 29.976C88.3756 29.9948 89.9729 31.5914 89.9916 34.3903C89.9916 35.6113 90.0104 36.8322 89.9728 38.0532C89.8977 40.3073 88.3005 41.9228 86.0268 41.9791C84.7303 42.0167 83.4149 41.9791 82.062 41.9791C82.062 44.6841 82.062 47.2575 82.062 50C83.2834 50 84.5236 49.9436 85.745 50.0188C86.4966 50.0751 87.3046 50.2254 87.981 50.5635C89.2212 51.2022 89.9165 52.3293 89.954 53.7569C89.9916 55.1845 90.0104 56.6308 89.954 58.0772C89.8977 60.3501 88.2065 61.9656 85.9141 62.0031C84.6363 62.0219 83.3586 62.0031 82.062 62.0031C82.062 64.7081 82.062 67.3191 82.062 70.024C83.3022 70.024 84.486 70.024 85.6698 70.024C88.3944 70.0428 89.954 71.6207 89.9728 74.3444C89.9916 75.5278 89.9916 76.7112 89.9728 77.9134C89.9353 80.3178 88.3193 81.952 85.8953 82.0271C84.6175 82.0647 83.3398 82.0271 82.0432 82.0271C81.9493 82.6846 81.8929 83.2481 81.7614 83.7741C80.8782 87.5497 77.7402 89.9729 73.6814 89.9917C65.3008 90.0104 56.9202 89.9917 48.5396 89.9917C41.1361 89.9917 33.7139 90.0104 26.3104 89.9917C22.1952 89.9917 19.076 87.6436 18.1741 83.868C17.9861 83.0791 17.9298 82.2525 17.9298 81.4636C17.9486 78.9653 17.9674 76.5421 17.9674 73.9687ZM50.0053 69.9864C55.6237 69.9864 61.2609 69.9864 66.8792 69.9864C69.0777 69.9864 69.9985 69.066 69.9985 66.8307C69.9985 65.6661 69.9421 64.5202 70.0173 63.3556C70.13 61.1391 69.2656 59.3546 67.7248 57.8143C65.733 55.8231 63.3278 54.4894 60.6595 53.7381C53.9701 51.8409 47.1867 51.8972 40.4597 53.4187C37.3592 54.1138 34.5407 55.5789 32.2294 57.8518C30.6886 59.3733 29.8242 61.1578 29.9557 63.3744C30.0121 64.5014 29.9558 65.6285 29.9745 66.7556C29.9745 69.0848 30.8765 69.9677 33.2253 69.9677C38.8249 69.9864 44.4245 69.9864 50.0053 69.9864ZM40.0087 39.9316C39.9899 45.473 44.4433 49.9624 49.9865 49.9624C55.4734 49.9624 59.9267 45.5481 59.9831 40.0444C60.0395 34.503 55.6049 30.0136 50.0617 29.9572C44.5748 29.9009 40.0275 34.3903 40.0087 39.9316Z" fill="#00A48A"/>
</svg>
