<svg width="16" height="16" viewBox="0 0 16 16" fill="none" xmlns="http://www.w3.org/2000/svg">
<path d="M10.0899 4.36994C10.0191 4.32888 9.94086 4.30225 9.85969 4.29159C9.77852 4.28093 9.69605 4.28645 9.61702 4.30783C9.53799 4.32921 9.46399 4.36604 9.39927 4.41617C9.33455 4.46631 9.2804 4.52877 9.23994 4.59994L5.66994 10.7799C5.62888 10.8508 5.60225 10.929 5.59159 11.0102C5.58093 11.0914 5.58645 11.1738 5.60783 11.2529C5.62922 11.3319 5.66604 11.4059 5.71618 11.4706C5.76631 11.5353 5.82877 11.5895 5.89994 11.6299C5.99306 11.6868 6.10096 11.7146 6.20994 11.7099C6.3191 11.7095 6.42626 11.6807 6.52092 11.6263C6.61558 11.572 6.6945 11.494 6.74994 11.3999L10.3199 5.21994C10.3624 5.14948 10.3901 5.07115 10.4015 4.98969C10.4129 4.90822 10.4077 4.82529 10.3862 4.74589C10.3647 4.66648 10.3274 4.59225 10.2765 4.52764C10.2256 4.46303 10.1621 4.40939 10.0899 4.36994V4.36994ZM7.34994 6.42994C7.37165 5.86029 7.16729 5.30516 6.7814 4.88556C6.39552 4.46596 5.85941 4.21592 5.28994 4.18994C4.71962 4.21593 4.18251 4.46564 3.79504 4.88494C3.40756 5.30423 3.20094 5.85934 3.21994 6.42994C3.19824 7.00224 3.40366 7.55991 3.79142 7.98139C4.17917 8.40286 4.71782 8.65396 5.28994 8.67994C5.86122 8.65399 6.39888 8.40255 6.78505 7.98077C7.17121 7.55899 7.37436 7.00128 7.34994 6.42994V6.42994ZM5.28994 7.42994C5.05024 7.40221 4.83069 7.28239 4.67768 7.0958C4.52467 6.9092 4.45018 6.67044 4.46994 6.42994C4.44757 6.1889 4.5211 5.94875 4.6746 5.76156C4.8281 5.57437 5.04919 5.45522 5.28994 5.42994C5.52996 5.45514 5.75014 5.57466 5.90204 5.76219C6.05394 5.94973 6.12513 6.18992 6.09994 6.42994C6.12246 6.66943 6.05029 6.90821 5.89888 7.09513C5.74748 7.28205 5.52889 7.40224 5.28994 7.42994ZM10.7099 7.31994C10.1405 7.34592 9.60437 7.59596 9.21848 8.01556C8.8326 8.43516 8.62824 8.99029 8.64994 9.55994C8.62553 10.1313 8.82867 10.689 9.21484 11.1108C9.60101 11.5326 10.1387 11.784 10.7099 11.8099C11.2821 11.784 11.8207 11.5329 12.2085 11.1114C12.5962 10.6899 12.8016 10.1322 12.7799 9.55994C12.799 8.98934 12.5923 8.43423 12.2049 8.01494C11.8174 7.59564 11.2803 7.34593 10.7099 7.31994V7.31994ZM10.7099 10.5599C10.471 10.5322 10.2524 10.4121 10.101 10.2251C9.9496 10.0382 9.87743 9.79943 9.89994 9.55994C9.87743 9.32045 9.9496 9.08167 10.101 8.89475C10.2524 8.70783 10.471 8.58765 10.7099 8.55994C10.9507 8.58522 11.1718 8.70437 11.3253 8.89156C11.4788 9.07875 11.5523 9.3189 11.5299 9.55994C11.5497 9.80044 11.4752 10.0392 11.3222 10.2258C11.1692 10.4124 10.9497 10.5322 10.7099 10.5599V10.5599Z" fill="#2A368A"/>
<path d="M8 0.499942C5.94501 0.435234 3.94833 1.1887 2.44839 2.59489C0.94845 4.00108 0.0678685 5.94505 0 7.99994C0.0678685 10.0548 0.94845 11.9988 2.44839 13.405C3.94833 14.8112 5.94501 15.5647 8 15.4999C10.055 15.5647 12.0517 14.8112 13.5516 13.405C15.0515 11.9988 15.9321 10.0548 16 7.99994C15.9321 5.94505 15.0515 4.00108 13.5516 2.59489C12.0517 1.1887 10.055 0.435234 8 0.499942V0.499942ZM8 14.2499C6.27717 14.3122 4.59981 13.6896 3.33484 12.5183C2.06987 11.347 1.32027 9.72246 1.25 7.99994C1.32027 6.27742 2.06987 4.65284 3.33484 3.48157C4.59981 2.3103 6.27717 1.6877 8 1.74994C9.72283 1.6877 11.4002 2.3103 12.6652 3.48157C13.9301 4.65284 14.6797 6.27742 14.75 7.99994C14.6797 9.72246 13.9301 11.347 12.6652 12.5183C11.4002 13.6896 9.72283 14.3122 8 14.2499V14.2499Z" fill="#2A368A"/>
</svg>
