<svg width="187" height="92" viewBox="0 0 187 92" fill="none" xmlns="http://www.w3.org/2000/svg">
<path d="M92.1493 -76.2565C120.064 -75.9633 152.782 -56.9099 160.286 -23.7863C160.286 -23.2 160.586 -22.6137 160.586 -22.0275C160.586 -21.4412 160.886 -21.1481 160.886 -20.5618C160.886 -20.2687 160.886 -20.2687 160.886 -19.9756C160.886 -19.6824 160.886 -19.3893 161.186 -19.0962C161.186 -19.0962 161.186 -19.0962 161.186 -18.803C161.186 -18.5099 161.186 -18.5099 161.186 -18.2168C161.186 -17.6305 161.186 -17.3374 161.486 -16.7511C161.486 -16.7511 161.486 -16.7511 161.486 -16.458C161.486 -15.8718 161.486 -15.2855 161.787 -14.6992C161.787 -14.113 161.787 -13.5267 161.787 -12.6473C161.787 -12.0611 161.787 -11.4748 161.787 -10.8885C161.787 -10.3023 161.787 -9.71601 161.787 -8.83662C161.787 -7.6641 161.787 -6.49159 161.787 -5.31908C161.787 -3.5603 161.486 -1.80151 161.486 0.250397C157.884 31.3222 139.575 48.6168 122.465 57.997C108.958 65.3252 93.9502 68.8428 78.6421 68.8428H60.6324C60.6324 68.8428 67.236 57.7038 56.13 48.6168C54.6292 47.4443 53.1284 46.2718 51.0273 45.0992C34.5185 32.7878 24.0128 13.4412 24.0128 -8.25037V-8.5435C24.0128 -9.12975 24.0128 -9.71601 24.0128 -10.3023C25.2135 -46.9435 55.2295 -75.6702 92.1493 -76.2565ZM92.4494 -100H92.1493H91.8491C67.5361 -99.7069 44.7239 -90.3267 27.6148 -73.9114C10.5056 -57.203 0.600321 -35.2183 0 -11.4748C0 -10.5954 0 -10.0092 0 -9.12977V-8.83662C0 5.23361 3.60192 19.3038 10.2055 31.9084C16.2087 43.6336 24.9133 53.8931 35.4189 62.1008L36.3194 62.9802L29.7159 74.4122C25.2135 82.3267 30.9165 92 40.2215 92H61.2327H79.2424C99.053 92 118.263 87.3099 135.072 78.2229C147.979 71.1878 158.785 62.1008 167.189 50.9618C177.695 37.1847 183.998 21.0626 186.4 2.59542C186.7 0.250381 187 -2.09464 187 -4.43967C187 -5.90533 187 -7.37097 187 -8.83662C187 -9.71601 187 -10.5954 187 -11.4748C187 -12.3542 187 -13.2336 187 -14.113V-14.4061V-14.6992C187 -15.5786 187 -16.458 186.7 -17.0443C186.7 -17.6305 186.7 -18.2168 186.4 -19.0962C186.4 -19.3893 186.4 -19.6824 186.4 -19.9756C186.4 -20.5618 186.4 -21.1481 186.1 -21.7343C186.1 -22.0275 186.1 -22.3206 186.1 -22.6137V-22.9069C186.1 -23.2 186.1 -23.4931 186.1 -23.7863C186.1 -24.0794 186.1 -24.3725 186.1 -24.3725C186.1 -24.6656 186.1 -24.9588 185.799 -25.2519C185.799 -25.8382 185.499 -26.4244 185.499 -27.0107V-27.3038V-27.5969C185.499 -27.8901 185.499 -27.8901 185.499 -28.1832C185.499 -28.4763 185.499 -28.7694 185.199 -29.0626C180.396 -49.8748 167.49 -68.6351 149.18 -81.5328C131.77 -93.258 111.96 -99.7069 92.4494 -100Z" fill="#F8F8F8" fill-opacity="0.1"/>
</svg>
