<svg width="62" height="48" viewBox="0 0 62 48" fill="none" xmlns="http://www.w3.org/2000/svg">
<path d="M62 31.608L48.3104 18.288C47.3102 17.3236 46.0962 16.5923 44.7605 16.1495C43.4248 15.7067 42.0024 15.564 40.6012 15.7323C39.2001 15.9005 37.8569 16.3753 36.6735 17.1207C35.4902 17.866 34.4977 18.8623 33.7714 20.034L15.7232 48H9.3C6.83349 48 4.468 47.0518 2.72391 45.364C0.979819 43.6761 0 41.3869 0 39V9C0 6.61305 0.979819 4.32387 2.72391 2.63604C4.468 0.948212 6.83349 0 9.3 0H52.7C55.1665 0 57.532 0.948212 59.2761 2.63604C61.0202 4.32387 62 6.61305 62 9V31.608ZM61.9659 39.78C61.7642 42.0236 60.7007 44.1125 58.9852 45.6343C57.2698 47.1561 55.0271 48.0002 52.7 48H23.684L39.0879 23.121C39.3298 22.7304 39.6603 22.3982 40.0546 22.1496C40.4488 21.901 40.8963 21.7425 41.3633 21.6861C41.8302 21.6297 42.3043 21.6769 42.7495 21.8242C43.1948 21.9714 43.5996 22.2149 43.9332 22.536L61.9659 39.78ZM18.6 27C21.0665 27 23.432 26.0518 25.1761 24.364C26.9202 22.6761 27.9 20.3869 27.9 18C27.9 15.6131 26.9202 13.3239 25.1761 11.636C23.432 9.94821 21.0665 9 18.6 9C16.1335 9 13.768 9.94821 12.0239 11.636C10.2798 13.3239 9.3 15.6131 9.3 18C9.3 20.3869 10.2798 22.6761 12.0239 24.364C13.768 26.0518 16.1335 27 18.6 27Z" fill="#00A48A"/>
</svg>
