<svg width="47" height="47" viewBox="0 0 47 47" fill="none" xmlns="http://www.w3.org/2000/svg">
<circle cx="23.5" cy="23.5" r="21" fill="#00A48A" stroke="#F8F8F8" stroke-width="5"/>
<path d="M31.4921 18.4143L28.5351 15.4467C28.1492 15.0829 27.6435 14.8741 27.1142 14.8601C26.5849 14.8461 26.0689 15.0279 25.6645 15.3708L15.9519 25.1185C15.6031 25.4716 15.3859 25.9343 15.3367 26.429L14.8727 30.9455C14.8582 31.1041 14.8787 31.264 14.9328 31.4138C14.9869 31.5635 15.0732 31.6995 15.1857 31.8119C15.2865 31.9123 15.4061 31.9917 15.5376 32.0456C15.6691 32.0995 15.8099 32.1268 15.9519 32.126H16.049L20.5492 31.7145C21.0421 31.6652 21.5032 31.4472 21.855 31.0971L31.5676 21.3494C31.9446 20.9497 32.1483 20.4164 32.1341 19.8662C32.12 19.316 31.8891 18.7939 31.4921 18.4143ZM27.8228 22.0318L24.9306 19.1291L27.035 16.963L29.9812 19.9198L27.8228 22.0318Z" fill="#F8F8F8"/>
</svg>
