<svg width="21" height="21" viewBox="0 0 21 21" fill="none" xmlns="http://www.w3.org/2000/svg">
<path d="M0 2.08925C0 1.32499 0.709044 0.75609 1.45922 0.91844L9.43271 2.64404C9.98597 2.76378 10.3806 3.25121 10.3806 3.81485V19.8051C10.3806 20.5626 9.68339 21.13 8.93772 20.9793L0.964225 19.3688C0.403208 19.2555 0 18.7644 0 18.1946V2.08925Z" fill="#00A48A"/>
<path fill-rule="evenodd" clip-rule="evenodd" d="M1.80532 17.2235V1.79723H13.8408V5.841C13.8408 6.33729 14.2449 6.73961 14.7434 6.73961C15.242 6.73961 15.6461 6.33729 15.6461 5.841V1.19815C15.6461 0.536432 15.1073 0 14.4426 0H1.20355C0.538846 0 0 0.536431 0 1.19815V17.8225C0 18.4843 0.538846 19.0207 1.20355 19.0207H14.4426C15.1073 19.0207 15.6461 18.4843 15.6461 17.8225V13.3295C15.6461 12.8332 15.242 12.4308 14.7434 12.4308C14.2449 12.4308 13.8408 12.8332 13.8408 13.3295V17.2235H1.80532Z" fill="#00A48A"/>
<path fill-rule="evenodd" clip-rule="evenodd" d="M12.1865 9.5783C12.1865 9.08201 12.5907 8.67969 13.0892 8.67969H18.0538C18.5523 8.67969 18.9565 9.08201 18.9565 9.5783C18.9565 10.0746 18.5523 10.4769 18.0538 10.4769H13.0892C12.5907 10.4769 12.1865 10.0746 12.1865 9.5783Z" fill="#00A48A"/>
<path fill-rule="evenodd" clip-rule="evenodd" d="M17.115 6.55226C17.4675 6.20133 18.039 6.20133 18.3915 6.55226L20.6922 8.84266C21.1035 9.25209 21.1035 9.91589 20.6922 10.3253L18.3915 12.6157C18.039 12.9666 17.4675 12.9666 17.115 12.6157C16.7625 12.2648 16.7625 11.6958 17.115 11.3449L18.8838 9.58398L17.115 7.82309C16.7625 7.47216 16.7625 6.90319 17.115 6.55226Z" fill="#00A48A"/>
</svg>
