<svg width="577" height="473" viewBox="0 0 577 473" fill="none" xmlns="http://www.w3.org/2000/svg">
<path d="M370.871 79.375L214.621 78.75C210.871 78.75 207.121 80.6251 204.621 83.1251L14.6213 313.75C7.74626 321.875 13.3713 334.375 23.9963 334.375L180.246 335C183.996 335 187.746 333.125 190.246 330.625L379.621 100C387.121 91.8751 381.496 79.375 370.871 79.375Z" fill="#94E8FF"/>
<path d="M522.747 216.875L366.497 216.25C362.747 216.25 358.997 218.125 356.497 220.625L167.122 451.25C160.247 459.375 165.872 471.875 176.497 471.875L332.747 472.5C336.497 472.5 340.247 470.625 342.747 468.125L532.122 237.5C539.622 229.375 533.372 216.875 522.747 216.875Z" fill="#002976"/>
<path d="M476.497 156.875H12.7471C2.74708 156.875 -3.50295 145.625 2.12205 137.5L89.622 5.62496C92.122 1.87496 95.872 0 100.247 0H563.997C573.997 0 580.247 11.2499 574.622 19.375L487.122 151.25C484.622 155 480.872 156.875 476.497 156.875Z" fill="#00D1FF"/>
</svg>
