<svg width="22" height="22" viewBox="0 0 22 22" fill="none" xmlns="http://www.w3.org/2000/svg">
<path fill-rule="evenodd" clip-rule="evenodd" d="M6.59991 0H19.8004C21.0138 0 22.0005 0.982759 22.0005 2.19121V10.9561C22.0005 12.1645 21.0138 13.1473 19.8004 13.1473V4.38243C19.8004 3.17397 18.8137 2.19121 17.6003 2.19121H4.39982C4.39982 0.982759 5.38656 0 6.59991 0ZM4.40017 17.5301H2.20009C0.986739 17.5301 0 16.5473 0 15.3389V6.57403C0 5.36557 0.986739 4.38281 2.20009 4.38281H15.4006C16.614 4.38281 17.6007 5.36557 17.6007 6.57403V15.3389C17.6007 16.5473 16.614 17.5301 15.4006 17.5301H10.0115L4.40017 22.0013V17.5301Z" fill="#00A48A"/>
</svg>
