<svg width="14" height="14" viewBox="0 0 14 14" fill="none" xmlns="http://www.w3.org/2000/svg">
<path d="M7.5 1C6.83696 1 6.20107 1.26339 5.73223 1.73223C5.26339 2.20107 5 2.83696 5 3.5V7C5 7.66304 5.26339 8.29893 5.73223 8.76777C6.20107 9.23661 6.83696 9.5 7.5 9.5C8.16304 9.5 8.79893 9.23661 9.26777 8.76777C9.73661 8.29893 10 7.66304 10 7V3.5C10 2.83696 9.73661 2.20107 9.26777 1.73223C8.79893 1.26339 8.16304 1 7.5 1Z" fill="white"/>
<path d="M3.5 6.5C3.63261 6.5 3.75979 6.55268 3.85355 6.64645C3.94732 6.74021 4 6.86739 4 7C4 7.92826 4.36875 8.8185 5.02513 9.47487C5.6815 10.1313 6.57174 10.5 7.5 10.5C8.42826 10.5 9.3185 10.1313 9.97487 9.47487C10.6313 8.8185 11 7.92826 11 7C11 6.86739 11.0527 6.74021 11.1464 6.64645C11.2402 6.55268 11.3674 6.5 11.5 6.5C11.6326 6.5 11.7598 6.55268 11.8536 6.64645C11.9473 6.74021 12 6.86739 12 7C12.0002 8.10705 11.5923 9.17533 10.8544 10.0005C10.1164 10.8258 9.10019 11.35 8 11.473V12.5C8 12.6326 7.94732 12.7598 7.85355 12.8536C7.75979 12.9473 7.63261 13 7.5 13C7.36739 13 7.24021 12.9473 7.14645 12.8536C7.05268 12.7598 7 12.6326 7 12.5V11.473C5.89981 11.35 4.88356 10.8258 4.14561 10.0005C3.40766 9.17533 2.99979 8.10705 3 7C3 6.86739 3.05268 6.74021 3.14645 6.64645C3.24021 6.55268 3.36739 6.5 3.5 6.5Z" fill="white"/>
</svg>
