<svg width="14" height="15" viewBox="0 0 14 15" fill="none" xmlns="http://www.w3.org/2000/svg">
<path d="M9.80963 10.5166L13.1466 13.8546C13.1931 13.9011 13.2483 13.938 13.309 13.9632C13.3698 13.9883 13.4349 14.0013 13.5006 14.0013C13.5664 14.0013 13.6315 13.9883 13.6922 13.9632C13.753 13.938 13.8081 13.9011 13.8546 13.8546C13.9011 13.8081 13.938 13.753 13.9632 13.6922C13.9883 13.6315 14.0013 13.5664 14.0013 13.5006C14.0013 13.4349 13.9883 13.3698 13.9632 13.309C13.938 13.2483 13.9011 13.1931 13.8546 13.1466L0.854632 0.146632C0.808144 0.100144 0.752954 0.0632674 0.692215 0.0381083C0.631476 0.0129492 0.566375 4.8983e-10 0.500632 0C0.434888 -4.8983e-10 0.369788 0.0129492 0.309048 0.0381083C0.248309 0.0632674 0.19312 0.100144 0.146632 0.146632C0.100144 0.19312 0.0632674 0.248309 0.0381083 0.309048C0.0129492 0.369788 -4.8983e-10 0.434888 0 0.500632C4.8983e-10 0.566375 0.0129492 0.631476 0.0381083 0.692215C0.0632674 0.752954 0.100144 0.808144 0.146632 0.854632L4.50063 5.20763V7.00063C4.5005 7.4524 4.62279 7.89577 4.8545 8.28359C5.08621 8.67142 5.41868 8.9892 5.81657 9.20317C6.21445 9.41714 6.66289 9.5193 7.11419 9.49878C7.5655 9.47826 8.0028 9.33583 8.37963 9.08663L9.09663 9.80363C8.57642 10.1926 7.95822 10.4292 7.31122 10.4868C6.66421 10.5445 6.01393 10.4209 5.43315 10.13C4.85236 9.8391 4.364 9.39231 4.0227 8.83963C3.6814 8.28695 3.50063 7.6502 3.50063 7.00063C3.50063 6.86802 3.44795 6.74085 3.35418 6.64708C3.26042 6.55331 3.13324 6.50063 3.00063 6.50063C2.86802 6.50063 2.74085 6.55331 2.64708 6.64708C2.55331 6.74085 2.50063 6.86802 2.50063 7.00063C2.50042 8.10768 2.90829 9.17596 3.64624 10.0012C4.38419 10.8264 5.40044 11.3506 6.50063 11.4736V12.5006C6.50063 12.6332 6.55331 12.7604 6.64708 12.8542C6.74085 12.948 6.86802 13.0006 7.00063 13.0006C7.13324 13.0006 7.26042 12.948 7.35419 12.8542C7.44795 12.7604 7.50063 12.6332 7.50063 12.5006V11.4736C8.3455 11.3801 9.14634 11.0482 9.80963 10.5166Z" fill="white"/>
<path d="M9.47562 7.35466L4.68262 2.56066C4.90008 2.02235 5.29812 1.57651 5.80844 1.29964C6.31875 1.02278 6.90951 0.932163 7.47935 1.04334C8.04918 1.15451 8.56256 1.46055 8.93137 1.90894C9.30019 2.35732 9.50145 2.92009 9.50062 3.50066V7.00066C9.50062 7.12066 9.49262 7.23866 9.47562 7.35466Z" fill="white"/>
</svg>
