<svg width="323" height="240" viewBox="0 0 323 240" fill="none" xmlns="http://www.w3.org/2000/svg">
<path d="M322.149 210.945H0V211.074H322.149V210.945Z" fill="#EBEBEB"/>
<path d="M289.869 221.312H268.543V221.441H289.869V221.312Z" fill="#EBEBEB"/>
<path d="M213.392 223.055H207.786V223.184H213.392V223.055Z" fill="#EBEBEB"/>
<path d="M267.899 215.328H255.528V215.457H267.899V215.328Z" fill="#EBEBEB"/>
<path d="M61.6589 216.422H33.8252V216.551H61.6589V216.422Z" fill="#EBEBEB"/>
<path d="M71.4526 216.422H67.3936V216.551H71.4526V216.422Z" fill="#EBEBEB"/>
<path d="M145.096 219.125H84.7256V219.254H145.096V219.125Z" fill="#EBEBEB"/>
<path d="M152.699 182.207H28.2848C26.2875 182.207 24.6123 180.532 24.6123 178.535V3.6725C24.6123 1.67518 26.2875 0 28.2848 0H152.699C154.696 0 156.371 1.67518 156.371 3.6725V178.535C156.371 180.532 154.761 182.207 152.699 182.207ZM28.2848 0.12886C26.3519 0.12886 24.7412 1.67518 24.7412 3.6725V178.535C24.7412 180.468 26.2875 182.079 28.2848 182.079H152.699C154.632 182.079 156.242 180.532 156.242 178.535V3.6725C156.242 1.7396 154.696 0.12886 152.699 0.12886H28.2848Z" fill="#EBEBEB"/>
<path d="M292.06 182.207H167.646C165.649 182.207 163.974 180.532 163.974 178.535V3.6725C163.974 1.67518 165.649 0 167.646 0H292.06C294.057 0 295.733 1.67518 295.733 3.6725V178.535C295.733 180.532 294.122 182.207 292.06 182.207ZM167.646 0.12886C165.713 0.12886 164.102 1.67518 164.102 3.6725V178.535C164.102 180.468 165.649 182.079 167.646 182.079H292.06C293.993 182.079 295.604 180.532 295.604 178.535V3.6725C295.604 1.7396 294.057 0.12886 292.06 0.12886H167.646Z" fill="#EBEBEB"/>
<path d="M186.629 76.7266L275.413 76.7266V18.6109L186.629 18.6109V76.7266Z" fill="#E6E6E6"/>
<path d="M183.943 76.7266L274.145 76.7266V18.6109L183.943 18.6109V76.7266Z" fill="#F0F0F0"/>
<path d="M186.629 88.0859L275.413 88.0859V76.6819L186.629 76.6819V88.0859Z" fill="#E6E6E6"/>
<path d="M179.429 88.0859L269.631 88.0859V76.6819L179.429 76.6819V88.0859Z" fill="#F0F0F0"/>
<path d="M270.375 72.9602V22.3828L187.776 22.3828V72.9602L270.375 72.9602Z" fill="#FAFAFA"/>
<path d="M251.728 72.929L241.161 22.3516H224.731L235.234 72.929H251.728Z" fill="white"/>
<path d="M268.608 69.1245C268.737 69.1245 268.866 68.9956 268.866 68.8668V24.7968C268.866 24.6679 268.737 24.5391 268.608 24.5391C268.479 24.5391 268.351 24.6679 268.351 24.7968V68.8023C268.351 68.9956 268.479 69.1245 268.608 69.1245Z" fill="#F0F0F0"/>
<path d="M231.755 72.929L221.188 22.3516H214.745L225.312 72.929H231.755Z" fill="white"/>
<path d="M188.194 72.929V22.3516H187.743V72.929H188.194Z" fill="#E6E6E6"/>
<path opacity="0.6" d="M183.045 28.0883H271.829L272.151 23.8359H183.367L183.045 28.0883Z" fill="#EBEBEB"/>
<path opacity="0.6" d="M183.045 35.0414H271.829L272.151 30.7891H183.367L183.045 35.0414Z" fill="#EBEBEB"/>
<path opacity="0.6" d="M183.045 42.0024H271.829L272.151 37.75H183.367L183.045 42.0024Z" fill="#EBEBEB"/>
<path opacity="0.6" d="M183.045 48.9555H271.829L272.151 44.7031H183.367L183.045 48.9555Z" fill="#EBEBEB"/>
<path opacity="0.6" d="M183.045 55.9164H271.829L272.151 51.6641H183.367L183.045 55.9164Z" fill="#EBEBEB"/>
<path opacity="0.6" d="M183.045 62.8774H271.829L272.151 58.625H183.367L183.045 62.8774Z" fill="#EBEBEB"/>
<path d="M262.681 168.68H244.061V172.352H262.681V168.68Z" fill="#E6E6E6"/>
<path d="M208.977 210.969H212.392V126.501H208.977V210.969Z" fill="#E6E6E6"/>
<path d="M197.049 172.328H244.083V168.656H197.049V172.328Z" fill="#F5F5F5"/>
<path d="M262.681 188.719H244.061V192.391H262.681V188.719Z" fill="#E6E6E6"/>
<path d="M197.049 192.445H244.083V188.773H197.049V192.445Z" fill="#F5F5F5"/>
<path d="M262.681 128.477H244.061V132.149H262.681V128.477Z" fill="#E6E6E6"/>
<path d="M197.049 132.211H244.083V128.538H197.049V132.211Z" fill="#F5F5F5"/>
<path d="M262.681 148.578H244.061V152.251H262.681V148.578Z" fill="#E6E6E6"/>
<path d="M197.049 152.266H244.083V148.593H197.049V152.266Z" fill="#F5F5F5"/>
<path d="M255.964 210.969H259.379V126.501H255.964V210.969Z" fill="#E6E6E6"/>
<path d="M240.623 210.969H244.038V126.501H240.623V210.969Z" fill="#F5F5F5"/>
<path d="M197.095 210.969H200.51V126.501H197.095V210.969Z" fill="#F5F5F5"/>
<path d="M42.0889 210.945H77.2676L77.2676 142.714H42.0889L42.0889 210.945Z" fill="#E6E6E6"/>
<path d="M51.479 210.946H42.1367V201.539H61.3368L51.479 210.946Z" fill="#FAFAFA"/>
<path d="M137.973 210.945H173.151V142.714H137.973V210.945Z" fill="#E6E6E6"/>
<path d="M42.1217 207.703H146.176V142.693H42.1217L42.1217 207.703Z" fill="#FAFAFA"/>
<path d="M136.785 210.946H146.191V201.539H126.927L136.785 210.946Z" fill="#FAFAFA"/>
<path d="M49.4025 183.195H138.896V166.959H49.4025V183.195Z" fill="#F0F0F0"/>
<path d="M49.4025 202.945H138.896V186.709H49.4025V202.945Z" fill="#F0F0F0"/>
<path d="M66.4276 168.673H121.902C123.512 168.673 124.865 167.384 124.865 165.709V165.516H63.4639V165.709C63.4639 167.32 64.8169 168.673 66.4276 168.673Z" fill="#FAFAFA"/>
<path d="M49.4025 163.43H138.896V147.193H49.4025V163.43Z" fill="#F0F0F0"/>
<path d="M66.4276 148.962H121.902C123.512 148.962 124.865 147.673 124.865 145.998V145.805H63.4639V145.998C63.4639 147.609 64.8169 148.962 66.4276 148.962Z" fill="#FAFAFA"/>
<path d="M66.4276 188.391H121.902C123.512 188.391 124.865 187.103 124.865 185.428V185.234H63.4639V185.428C63.4639 187.103 64.8169 188.391 66.4276 188.391Z" fill="#FAFAFA"/>
<path d="M47.6894 76.7266L136.474 76.7266V18.6109L47.6894 18.6109L47.6894 76.7266Z" fill="#E6E6E6"/>
<path d="M45.0043 76.7266L135.206 76.7266V18.6109L45.0043 18.6109L45.0043 76.7266Z" fill="#F0F0F0"/>
<path d="M47.6894 88.0859L136.474 88.0859V76.6819L47.6894 76.6819V88.0859Z" fill="#E6E6E6"/>
<path d="M40.4897 88.0859L130.691 88.0859V76.6819L40.4897 76.6819V88.0859Z" fill="#F0F0F0"/>
<path d="M131.45 72.9133V22.3359L48.8512 22.3359L48.8512 72.9133L131.45 72.9133Z" fill="#FAFAFA"/>
<path d="M112.817 72.929L102.251 22.3516H85.7568L96.3233 72.929H112.817Z" fill="white"/>
<path d="M129.698 69.1245C129.827 69.1245 129.956 68.9956 129.956 68.8668V24.7968C129.956 24.6679 129.827 24.5391 129.698 24.5391C129.569 24.5391 129.44 24.6679 129.44 24.7968V68.8023C129.44 68.9956 129.505 69.1245 129.698 69.1245Z" fill="#F0F0F0"/>
<path d="M92.779 72.929L82.2125 22.3516H75.834L86.4005 72.929H92.779Z" fill="white"/>
<path d="M49.2695 72.9368L49.2695 22.3594H48.8185L48.8185 72.9368H49.2695Z" fill="#E6E6E6"/>
<path opacity="0.6" d="M44.1348 28.0883H132.919L133.241 23.8359H44.4569L44.1348 28.0883Z" fill="#EBEBEB"/>
<path opacity="0.6" d="M44.1348 30.4711H132.919L133.241 26.2188H44.4569L44.1348 30.4711Z" fill="#EBEBEB"/>
<path opacity="0.6" d="M44.1348 32.8539H132.919L133.241 28.6016H44.4569L44.1348 32.8539Z" fill="#EBEBEB"/>
<path opacity="0.6" d="M44.1348 35.2348H132.919L133.241 31.0469H44.4569L44.1348 35.2348Z" fill="#EBEBEB"/>
<path opacity="0.6" d="M44.1348 37.6821H132.919L133.241 33.4297H44.4569L44.1348 37.6821Z" fill="#EBEBEB"/>
<path opacity="0.6" d="M44.1348 40.0727H132.919L133.241 35.8203H44.4569L44.1348 40.0727Z" fill="#EBEBEB"/>
<path d="M61.8458 140.617H64.9385V106.405H61.8458L61.8458 140.617Z" fill="#F5F5F5"/>
<path d="M62.303 140.625H63.1406L63.1406 106.413H62.303L62.303 140.625Z" fill="#FAFAFA"/>
<path d="M63.5275 140.625H63.8496L63.8496 106.413H63.5275L63.5275 140.625Z" fill="#FAFAFA"/>
<path d="M52.0596 142.71H74.7389C74.7389 141.099 73.4503 139.875 71.9039 139.875H54.8945C53.3482 139.875 52.0596 141.164 52.0596 142.71Z" fill="#F0F0F0"/>
<path d="M57.8581 127.63C58.3735 127.63 58.7601 127.243 58.7601 126.728V104.371C58.7601 103.855 58.3735 103.469 57.8581 103.469C57.3426 103.469 56.9561 103.855 56.9561 104.371V126.792C57.0205 127.243 57.4071 127.63 57.8581 127.63Z" fill="#F0F0F0"/>
<path d="M49.6758 114.552H77.1229L73.9658 95.3516H52.8328L49.6758 114.552Z" fill="#E0E0E0"/>
<path d="M161.075 239.999C230.071 239.999 286.004 236.739 286.004 232.718C286.004 228.697 230.071 225.438 161.075 225.438C92.0783 225.438 36.1455 228.697 36.1455 232.718C36.1455 236.739 92.0783 239.999 161.075 239.999Z" fill="#F0F0F0"/>
<path d="M67.0948 94.9615L66.4521 95.0078L67.3084 106.896L67.951 106.85L67.0948 94.9615Z" fill="#00A48A"/>
<path d="M68.3936 112.993L67.751 113.039L68.0751 117.537L68.7177 117.491L68.3936 112.993Z" fill="#00A48A"/>
<path d="M217.581 167.651H79.6365C76.5439 167.651 73.7734 165.074 73.5801 161.981L66.815 67.8495C66.6217 64.7569 68.9411 62.1797 72.0982 62.1797H210.107C213.199 62.1797 215.97 64.7569 216.163 67.8495L222.928 161.981C223.057 165.074 220.738 167.651 217.581 167.651Z" fill="#00A48A"/>
<path d="M218.096 167.659H80.1521C77.0595 167.659 74.289 165.082 74.0957 161.989L67.3306 67.8573C67.1373 64.7647 69.4568 62.1875 72.6138 62.1875H210.622C213.715 62.1875 216.486 64.7647 216.679 67.8573L223.444 161.989C223.637 165.082 221.253 167.659 218.096 167.659Z" fill="#00A48A"/>
<path opacity="0.5" d="M218.096 167.659H80.1521C77.0595 167.659 74.289 165.082 74.0957 161.989L67.3306 67.8573C67.1373 64.7647 69.4568 62.1875 72.6138 62.1875H210.622C213.715 62.1875 216.486 64.7647 216.679 67.8573L223.444 161.989C223.637 165.082 221.253 167.659 218.096 167.659Z" fill="white"/>
<path d="M210.751 64.9531H72.7427C72.6138 64.9531 72.4205 64.9531 72.2917 64.9531C68.748 65.2753 69.4568 70.6229 73.0648 70.6229H211.267C214.81 70.6229 214.746 65.2753 211.202 64.9531C211.009 64.9531 210.88 64.9531 210.751 64.9531Z" fill="#00A48A"/>
<path d="M76.3506 67.7886C76.4151 68.4973 75.8352 69.0772 75.1265 69.0772C74.4177 69.0772 73.7734 68.4973 73.709 67.7886C73.6446 67.0799 74.2244 66.5 74.9332 66.5C75.6419 66.5 76.2862 67.0799 76.3506 67.7886Z" fill="#FAFAFA"/>
<path d="M80.7315 67.7886C80.7959 68.4973 80.216 69.0772 79.5073 69.0772C78.7986 69.0772 78.1543 68.4973 78.0899 67.7886C78.0254 67.0799 78.6053 66.5 79.314 66.5C80.0872 66.5 80.7315 67.0799 80.7315 67.7886Z" fill="#FAFAFA"/>
<path d="M85.1768 67.7886C85.2412 68.4973 84.6614 69.0772 83.9526 69.0772C83.2439 69.0772 82.5996 68.4973 82.5352 67.7886C82.4707 67.0799 83.0506 66.5 83.7593 66.5C84.4681 66.5 85.1124 67.0799 85.1768 67.7886Z" fill="#FAFAFA"/>
<path d="M214.487 158.248H82.4704C81.3106 158.248 80.3442 157.346 80.2798 156.186L74.6744 78.7414C74.6099 77.5817 75.4475 76.6797 76.6073 76.6797H208.624C209.784 76.6797 210.75 77.5817 210.815 78.7414L216.42 156.186C216.42 157.281 215.582 158.248 214.487 158.248Z" fill="white"/>
<path d="M158.82 128.73L156.694 98.899L150.187 94.9688H132.275L134.724 128.73H158.82Z" fill="white"/>
<path d="M158.82 129.054H134.659C134.466 129.054 134.337 128.925 134.337 128.796L131.889 95.035C131.889 94.9706 131.889 94.8417 131.953 94.7773C132.018 94.7129 132.082 94.6484 132.211 94.6484H150.122C150.187 94.6484 150.251 94.6484 150.251 94.7129L156.759 98.6431C156.823 98.7075 156.887 98.7719 156.887 98.9008L159.014 128.732C159.014 128.796 159.014 128.925 158.949 128.99C159.014 128.99 158.949 129.054 158.82 129.054ZM134.981 128.41H158.498L156.372 99.0941L150.058 95.2927H132.597L134.981 128.41Z" fill="#00A48A"/>
<path d="M156.695 98.9068L150.188 94.9766L152.571 100.195L156.695 98.9068Z" fill="#EBEBEB"/>
<path d="M152.572 100.452C152.443 100.452 152.314 100.388 152.314 100.259L149.93 95.0402C149.866 94.9113 149.93 94.7825 149.994 94.6536C150.123 94.5892 150.252 94.5248 150.381 94.5892L156.888 98.5194C157.017 98.5838 157.082 98.7127 157.017 98.8415C157.017 98.9704 156.888 99.0348 156.824 99.0993L152.7 100.388C152.636 100.452 152.572 100.452 152.572 100.452ZM150.896 95.7489L152.765 99.7436L155.986 98.7771L150.896 95.7489Z" fill="#00A48A"/>
<path d="M142.392 110.181C142.456 110.954 141.876 111.534 141.103 111.534C140.33 111.534 139.686 110.954 139.621 110.181C139.557 109.408 140.137 108.828 140.91 108.828C141.683 108.828 142.327 109.408 142.392 110.181Z" fill="#00A48A"/>
<path d="M151.218 110.181C151.282 110.954 150.702 111.534 149.929 111.534C149.156 111.534 148.512 110.954 148.447 110.181C148.383 109.408 148.963 108.828 149.736 108.828C150.509 108.828 151.153 109.408 151.218 110.181Z" fill="#00A48A"/>
<path d="M153.731 119.014C153.538 119.014 153.409 118.885 153.409 118.756C153.28 116.566 149.801 114.761 145.742 114.761C143.036 114.761 140.652 115.535 139.428 116.823C138.912 117.403 138.654 118.047 138.719 118.692C138.719 118.885 138.59 119.014 138.461 119.014C138.268 119.014 138.139 118.885 138.139 118.756C138.075 117.919 138.397 117.145 139.041 116.437C140.33 115.019 142.971 114.117 145.806 114.117C150.252 114.117 153.924 116.115 154.118 118.692C154.053 118.885 153.924 119.014 153.731 119.014Z" fill="#00A48A"/>
<path d="M137.365 107.414C137.301 107.414 137.236 107.414 137.172 107.35C137.043 107.221 137.043 107.028 137.172 106.899L138.525 105.417C138.654 105.288 138.847 105.288 138.976 105.417C139.105 105.546 139.105 105.739 138.976 105.868L137.623 107.35C137.494 107.414 137.43 107.414 137.365 107.414Z" fill="#00A48A"/>
<path d="M153.086 107.414C153.022 107.414 152.957 107.414 152.893 107.35L151.282 105.868C151.153 105.739 151.153 105.546 151.282 105.417C151.411 105.288 151.604 105.288 151.733 105.417L153.344 106.899C153.473 107.028 153.473 107.221 153.344 107.35C153.215 107.414 153.151 107.414 153.086 107.414Z" fill="#00A48A"/>
<path d="M130.343 135.438H131.825L133.951 138.208L133.758 135.438H135.239L135.626 140.463H134.015L131.954 137.693L132.147 140.463H130.665L130.343 135.438Z" fill="#00A48A"/>
<path d="M136.142 137.946C136.078 137.109 136.271 136.464 136.722 136.013C137.173 135.562 137.753 135.305 138.59 135.305C139.428 135.305 140.072 135.562 140.588 135.949C141.103 136.4 141.361 137.044 141.425 137.817C141.49 138.397 141.425 138.913 141.232 139.299C141.039 139.686 140.781 139.944 140.459 140.201C140.072 140.395 139.621 140.524 139.106 140.524C138.526 140.524 138.075 140.459 137.688 140.266C137.302 140.073 136.98 139.815 136.722 139.428C136.335 139.042 136.206 138.526 136.142 137.946ZM137.753 137.946C137.817 138.462 137.882 138.848 138.139 139.042C138.333 139.235 138.59 139.364 138.912 139.364C139.235 139.364 139.492 139.235 139.686 139.042C139.879 138.848 139.943 138.462 139.879 137.882C139.814 137.431 139.75 137.044 139.492 136.851C139.235 136.658 139.041 136.529 138.719 136.529C138.397 136.529 138.139 136.658 138.01 136.851C137.753 137.044 137.688 137.431 137.753 137.946Z" fill="#00A48A"/>
<path d="M144.453 135.438H146.773C147.224 135.438 147.61 135.502 147.868 135.631C148.19 135.76 148.383 135.953 148.577 136.146C148.77 136.404 148.899 136.662 149.028 136.984C149.157 137.306 149.221 137.628 149.221 137.95C149.285 138.466 149.221 138.917 149.157 139.174C149.028 139.497 148.899 139.69 148.705 139.948C148.512 140.141 148.254 140.27 148.061 140.334C147.739 140.399 147.417 140.463 147.159 140.463H144.84L144.453 135.438ZM146.064 136.533L146.257 139.303H146.644C146.966 139.303 147.224 139.239 147.352 139.174C147.481 139.11 147.61 138.981 147.675 138.788C147.739 138.595 147.739 138.337 147.739 137.886C147.675 137.37 147.61 136.984 147.417 136.791C147.224 136.597 146.901 136.468 146.515 136.468H146.064V136.533Z" fill="#00A48A"/>
<path d="M152.958 139.625H151.218L151.025 140.463H149.414L150.96 135.438H152.636L154.891 140.463H153.28L152.958 139.625ZM152.571 138.53L151.862 136.726L151.411 138.53H152.571Z" fill="#00A48A"/>
<path d="M154.246 135.438H159.014L159.078 136.662H157.468L157.725 140.463H156.179L155.921 136.662H154.311L154.246 135.438Z" fill="#00A48A"/>
<path d="M162.622 139.625H160.882L160.689 140.463H159.078L160.624 135.438H162.3L164.555 140.463H162.944L162.622 139.625ZM162.171 138.53L161.462 136.726L161.075 138.53H162.171Z" fill="#00A48A"/>
<path d="M227.889 76.092C228.469 75.8343 229.177 75.4477 229.757 75.0612C230.401 74.6746 231.046 74.3524 231.69 73.9659C232.979 73.1927 234.203 72.4195 235.427 71.582C237.875 69.9068 240.13 68.0383 242.192 65.9766C242.45 65.7188 242.708 65.4611 242.965 65.2034L243.352 64.8168L243.545 64.6235L243.61 64.4947C243.545 64.688 243.61 64.6235 243.61 64.4302C243.674 64.3014 243.674 63.9792 243.674 63.7215C243.738 62.5618 243.481 61.0799 243.223 59.6624C242.643 56.7631 241.805 53.7993 240.903 50.9L243.416 49.8047C244.963 52.5752 246.316 55.4745 247.346 58.5671C247.862 60.1134 248.313 61.7242 248.442 63.6571C248.442 64.1725 248.506 64.688 248.377 65.2678C248.313 65.8477 248.12 66.5564 247.604 67.394L247.475 67.5229L247.411 67.6517L247.282 67.7806L247.089 68.0383L246.702 68.4893C246.444 68.8115 246.187 69.1336 245.865 69.4558C243.674 71.9041 241.161 74.0947 238.52 76.0276C237.231 76.9941 235.878 77.8961 234.46 78.7337C233.752 79.1847 233.043 79.5713 232.334 79.9578C231.626 80.3444 230.917 80.731 230.079 81.1176L227.889 76.092Z" fill="#FFB573"/>
<path d="M222.155 227.566C222.67 227.566 223.185 227.437 223.572 227.373C223.636 227.373 223.636 227.308 223.636 227.244C223.636 227.18 223.636 227.115 223.572 227.115C223.379 226.986 221.768 225.955 221.124 226.213C220.995 226.277 220.93 226.342 220.866 226.6C220.802 226.857 220.866 227.115 221.059 227.308C221.381 227.502 221.704 227.566 222.155 227.566ZM223.185 227.18C222.219 227.373 221.51 227.308 221.253 227.115C221.124 226.986 221.124 226.857 221.124 226.664C221.124 226.535 221.188 226.535 221.253 226.471C221.575 226.342 222.541 226.793 223.185 227.18Z" fill="#00A48A"/>
<path d="M223.572 227.37C223.701 227.306 223.701 227.306 223.701 227.241C223.701 227.177 223.701 225.631 223.121 225.115C222.992 224.986 222.799 224.922 222.606 224.922C222.284 224.986 222.219 225.18 222.155 225.308C221.961 225.888 222.992 227.048 223.572 227.37C223.508 227.37 223.508 227.37 223.572 227.37ZM222.606 225.18C222.735 225.18 222.799 225.244 222.863 225.308C223.186 225.631 223.314 226.468 223.379 226.984C222.863 226.597 222.284 225.695 222.348 225.308C222.348 225.244 222.412 225.18 222.606 225.18Z" fill="#00A48A"/>
<path d="M223.057 59.9844C222.413 63.2059 221.124 69.6488 223.315 71.8395C223.315 71.8395 222.413 75.0609 216.485 75.0609C209.913 75.0609 213.328 71.8395 213.328 71.8395C216.872 71.0019 216.807 68.3602 216.163 65.8475L223.057 59.9844Z" fill="#FFB573"/>
<path d="M212.168 73.0618C211.137 73.1906 212.039 70.549 212.426 70.2913C213.392 69.647 225.891 68.745 225.763 70.2913C225.698 70.9356 225.376 72.2242 224.861 72.6752C224.345 73.0618 221.124 71.7087 212.168 73.0618Z" fill="#263238"/>
<path d="M214.165 72.1585C213.327 72.4163 213.456 69.7746 213.714 69.4525C214.358 68.6793 224.474 66.1021 224.731 67.584C224.86 68.2283 224.925 69.4525 224.538 69.9679C224.216 70.4834 221.252 69.6458 214.165 72.1585Z" fill="#263238"/>
<path d="M210.428 54.1858C210.364 54.1858 210.299 54.1858 210.235 54.1214C209.526 53.2194 208.559 53.3482 208.559 53.3482C208.431 53.3482 208.302 53.2838 208.302 53.0905C208.302 52.9617 208.366 52.8328 208.559 52.8328C208.624 52.8328 209.784 52.7039 210.686 53.7992C210.75 53.9281 210.75 54.057 210.621 54.1858C210.557 54.1858 210.492 54.1858 210.428 54.1858Z" fill="#263238"/>
<path d="M209.204 57.3438C209.204 57.3438 208.624 59.2766 207.915 60.2431C208.559 60.6941 209.461 60.3719 209.461 60.3719L209.204 57.3438Z" fill="#FF5652"/>
<path d="M209.526 56.5685C209.59 57.0195 209.397 57.4061 209.075 57.4061C208.817 57.4061 208.559 57.0839 208.495 56.6974C208.43 56.2464 208.624 55.8598 208.946 55.8598C209.203 55.7953 209.461 56.1175 209.526 56.5685Z" fill="#263238"/>
<path d="M209.01 55.8574L207.915 55.6641C207.979 55.6641 208.559 56.3728 209.01 55.8574Z" fill="#263238"/>
<path d="M229.821 227.242H224.409L224.86 214.742H230.272L229.821 227.242Z" fill="#FFB573"/>
<path d="M224.023 226.602H230.08C230.273 226.602 230.466 226.73 230.531 226.988L231.239 231.756C231.304 232.271 230.853 232.722 230.402 232.722C228.276 232.658 227.245 232.594 224.603 232.594C222.992 232.594 220.544 232.787 218.289 232.787C216.098 232.787 215.905 230.532 216.871 230.338C221.124 229.436 221.768 228.148 223.186 226.988C223.379 226.73 223.701 226.602 224.023 226.602Z" fill="#263238"/>
<g opacity="0.2">
<path opacity="0.2" d="M230.272 214.742H224.86L224.603 221.185H230.015L230.272 214.742Z" fill="black"/>
</g>
<path d="M208.366 79.248C205.016 77.9594 201.859 76.542 198.702 74.8668C195.545 73.256 192.388 71.5164 189.424 69.197C188.651 68.6171 187.942 67.9728 187.233 67.1996C187.04 67.0064 186.847 66.8131 186.718 66.6198C186.525 66.3621 186.396 66.2332 186.138 65.911C185.687 65.2668 185.365 64.4292 185.301 63.5916C185.236 62.754 185.365 61.9164 185.623 61.2721C185.88 60.6278 186.203 60.0479 186.525 59.5969C187.233 58.6305 187.942 57.9862 188.715 57.3419C190.197 56.1177 191.808 55.2157 193.419 54.3137C194.192 53.8627 195.029 53.4761 195.867 53.1539C196.705 52.7674 197.478 52.4452 198.38 52.1875L199.54 54.7003C196.705 56.4399 193.805 58.4372 191.679 60.6278C191.164 61.1432 190.713 61.7231 190.391 62.2386C190.068 62.754 190.068 63.1406 190.133 63.0761C190.133 63.0761 190.133 63.0761 190.197 63.1406L190.455 63.3983C190.519 63.5271 190.713 63.656 190.777 63.7204C191.293 64.1714 191.872 64.6869 192.517 65.1379C193.805 66.0399 195.223 66.8775 196.64 67.7151C198.122 68.5527 199.604 69.3258 201.086 70.0346C204.114 71.5164 207.271 72.8695 210.364 74.1581L208.366 79.248Z" fill="#FFB573"/>
<path d="M201.022 52.9597L201.924 51.0268L197.865 49.6094C197.865 49.6094 196.576 53.4107 198.122 55.1503C199.347 54.9571 200.442 54.1195 201.022 52.9597Z" fill="#FFB573"/>
<path d="M201.923 46.8414L198.637 45.875L197.864 49.6119L201.923 50.965V46.8414Z" fill="#FFB573"/>
<path d="M243.738 51.1585L244.189 46.6484L240.001 47.6149C240.001 47.6149 239.937 51.8672 242.127 52.5115L243.738 51.1585Z" fill="#FFB573"/>
<path d="M242.256 43.4922L239.485 44.7808L240.065 47.6157L244.253 46.6492L242.256 43.4922Z" fill="#FFB573"/>
<path d="M223.894 53.6679C224.087 59.0156 224.281 61.2707 221.897 64.2989C218.289 68.8089 211.652 67.9069 209.848 62.6881C208.238 58.0492 208.173 50.0599 213.199 47.4183C218.095 44.7766 223.701 48.2558 223.894 53.6679Z" fill="#FFB573"/>
<path d="M221.574 64.2335C226.857 61.9785 230.272 57.1462 228.854 49.6724C227.437 42.5207 222.604 41.8119 220.607 43.2938C218.61 44.7757 213.649 42.5851 210.621 45.0979C205.466 49.4791 210.363 54.118 212.876 56.9529C214.422 60.0456 216.419 66.4885 221.574 64.2335Z" fill="#263238"/>
<path d="M219.383 48.3863C221.187 50.9634 224.538 51.6722 226.986 49.997C229.434 48.3218 229.95 44.907 228.146 42.3298C226.342 39.7527 222.991 39.0439 220.543 40.7191C218.159 42.3943 217.644 45.8735 219.383 48.3863Z" fill="#00A48A"/>
<path d="M220.8 43.8114C220.027 39.4946 224.151 36.1443 229.563 37.755C235.039 39.3657 232.14 44.198 231.045 48.0638C229.949 51.9296 232.849 55.6021 234.073 52.6383C235.297 49.6745 233.235 48.7725 233.235 48.7725C233.235 48.7725 239.034 50.2544 233.622 56.8262C228.21 63.3336 223.378 56.1175 224.666 51.8651C225.762 48.5148 221.509 47.8705 220.8 43.8114Z" fill="#263238"/>
<path d="M215.324 45.4238C212.811 44.1352 208.623 43.0399 206.239 47.099C205.08 49.0319 205.531 51.6091 205.531 51.6091L212.876 52.1245L215.324 45.4238Z" fill="#263238"/>
<path d="M204.629 50.3806C204.5 50.3806 204.435 50.3161 204.5 50.1873C204.5 50.0584 204.693 47.4812 206.239 45.8705C210.041 41.9403 214.422 45.2262 215.711 46.3215C215.775 46.3859 215.775 46.4504 215.711 46.5792C215.646 46.6436 215.582 46.6436 215.453 46.5792C214.229 45.5483 209.976 42.3913 206.433 46.1282C204.951 47.6745 204.758 50.2517 204.758 50.2517C204.822 50.3161 204.693 50.3806 204.629 50.3806Z" fill="#263238"/>
<path d="M213.843 56.6987C213.843 57.7295 213.392 58.7604 212.748 59.4691C211.846 60.5 210.815 59.9846 210.622 58.8248C210.428 57.794 210.622 55.9899 211.717 55.3456C212.812 54.7658 213.843 55.5389 213.843 56.6987Z" fill="#FFB573"/>
<path d="M212.683 105.734C212.683 105.734 213.005 143.168 216.291 164.043C218.932 180.924 223.765 219.904 223.765 219.904H231.11C231.11 219.904 231.818 182.277 230.465 165.59C227.115 123.388 235.813 115.528 228.79 105.734H212.683Z" fill="#263238"/>
<path opacity="0.1" d="M212.683 105.734C212.683 105.734 213.005 143.168 216.291 164.043C218.932 180.924 223.765 219.904 223.765 219.904H231.11C231.11 219.904 231.818 182.277 230.465 165.59C227.115 123.388 235.813 115.528 228.79 105.734H212.683Z" fill="white"/>
<path opacity="0.3" d="M216.549 122.733C219.126 134.008 217.064 151.855 215.647 159.716C214.165 147.796 213.391 132.397 213.005 121.058C214.358 118.867 215.582 118.738 216.549 122.733Z" fill="black"/>
<path d="M222.734 220.092H232.077L232.592 216.807L222.67 216.484L222.734 220.092Z" fill="#00A48A"/>
<path d="M225.376 74.1005C226.278 72.3609 230.981 71.2656 233.558 71.2656L235.491 79.8992C235.491 79.8992 230.337 87.5664 228.211 86.7288C225.698 85.7623 223.507 77.9019 225.376 74.1005Z" fill="#00A48A"/>
<path opacity="0.4" d="M225.376 74.1005C226.278 72.3609 230.981 71.2656 233.558 71.2656L235.491 79.8992C235.491 79.8992 230.337 87.5664 228.211 86.7288C225.698 85.7623 223.507 77.9019 225.376 74.1005Z" fill="black"/>
<path d="M219.963 217.967C219.963 217.902 219.963 217.902 219.963 217.838C219.963 217.773 219.899 217.773 219.834 217.773C219.577 217.838 217.193 218.224 216.871 218.869C216.806 218.998 216.806 219.126 216.871 219.255C216.999 219.449 217.193 219.577 217.45 219.642C218.159 219.706 219.319 218.675 219.963 217.967C219.899 217.967 219.899 217.967 219.963 217.967ZM217.064 218.998C217.257 218.611 218.546 218.289 219.448 218.16C218.61 218.998 217.837 219.513 217.386 219.449C217.257 219.449 217.128 219.384 216.999 219.191C217.064 219.126 217.064 219.062 217.064 218.998Z" fill="#00A48A"/>
<path d="M219.963 217.97C219.963 217.906 219.963 217.841 219.963 217.841C219.899 217.777 218.997 216.682 218.095 216.617C217.837 216.617 217.58 216.682 217.386 216.875C217.129 217.133 217.129 217.326 217.193 217.455C217.451 218.035 219.19 218.228 219.899 218.035C219.899 218.035 219.899 218.035 219.963 217.97ZM217.386 217.197C217.386 217.133 217.451 217.133 217.515 217.068C217.644 216.939 217.837 216.875 218.031 216.875C218.61 216.939 219.255 217.519 219.577 217.841C218.804 217.906 217.58 217.648 217.386 217.326C217.386 217.326 217.386 217.261 217.386 217.197Z" fill="#00A48A"/>
<path d="M225.569 215.705L220.608 217.896L218.418 213.321L215.518 207.329L215.196 206.62L220.157 204.43L220.544 205.203L223.314 211.002L225.569 215.705Z" fill="#FFB573"/>
<path opacity="0.2" d="M223.315 211.01L218.418 213.329L215.519 207.337L220.544 205.211L223.315 211.01Z" fill="black"/>
<path d="M206.884 105.734C206.884 105.734 191.099 144.908 195.416 163.399C199.281 180.086 216.355 211.657 216.355 211.657L222.927 208.371C222.927 208.371 212.361 170.229 211.201 161.982C208.946 145.874 223.314 123.13 223.314 105.799L206.884 105.734Z" fill="#263238"/>
<path opacity="0.1" d="M206.884 105.734C206.884 105.734 191.099 144.908 195.416 163.399C199.281 180.086 216.355 211.657 216.355 211.657L222.927 208.371C222.927 208.371 212.361 170.229 211.201 161.982C208.946 145.874 223.314 123.13 223.314 105.799L206.884 105.734Z" fill="white"/>
<path d="M219.771 217.196L224.667 213.652C224.861 213.523 225.054 213.523 225.247 213.717L228.598 217.196C228.92 217.583 228.855 218.162 228.469 218.485C226.729 219.709 225.827 220.224 223.701 221.77C222.348 222.737 219.706 224.863 217.902 226.216C216.098 227.505 214.681 225.83 215.325 225.121C218.224 221.899 218.804 219.902 219.255 218.098C219.32 217.647 219.449 217.389 219.771 217.196Z" fill="#263238"/>
<path d="M215.905 213.064L224.409 209.134L223.314 205.719L214.165 209.842L215.905 213.064Z" fill="#00A48A"/>
<path d="M211.072 73.7054C210.363 71.9014 204.178 69.8396 201.085 69.1953L199.732 79.3752C199.732 79.3752 204.758 86.6558 207.013 86.0115C209.59 85.2383 212.554 77.5712 211.072 73.7054Z" fill="#00A48A"/>
<path opacity="0.4" d="M211.072 73.7054C210.363 71.9014 204.178 69.8396 201.085 69.1953L199.732 79.3752C199.732 79.3752 204.758 86.6558 207.013 86.0115C209.59 85.2383 212.554 77.5712 211.072 73.7054Z" fill="black"/>
<path d="M204.307 73.1899C204.307 73.1899 201.73 74.0919 206.885 105.791C215.583 105.791 224.603 105.791 228.791 105.791C228.404 96.9 228.404 91.3591 232.656 73.061C232.656 73.061 228.082 72.0301 223.379 71.8368C219.706 71.6436 216.678 71.5147 213.456 71.8368C209.14 72.159 204.307 73.1899 204.307 73.1899Z" fill="#00A48A"/>
<path opacity="0.4" d="M204.307 73.1899C204.307 73.1899 201.73 74.0919 206.885 105.791C215.583 105.791 224.603 105.791 228.791 105.791C228.404 96.9 228.404 91.3591 232.656 73.061C232.656 73.061 228.082 72.0301 223.379 71.8368C219.706 71.6436 216.678 71.5147 213.456 71.8368C209.14 72.159 204.307 73.1899 204.307 73.1899Z" fill="black"/>
<path d="M229.113 104.434L230.079 106.366C230.144 106.495 229.95 106.689 229.693 106.689H206.691C206.498 106.689 206.305 106.56 206.305 106.495L206.111 104.562C206.111 104.434 206.24 104.305 206.498 104.305H228.726C228.919 104.305 229.048 104.369 229.113 104.434Z" fill="#00A48A"/>
<path opacity="0.3" d="M229.113 104.434L230.079 106.366C230.144 106.495 229.95 106.689 229.693 106.689H206.691C206.498 106.689 206.305 106.56 206.305 106.495L206.111 104.562C206.111 104.434 206.24 104.305 206.498 104.305H228.726C228.919 104.305 229.048 104.369 229.113 104.434Z" fill="white"/>
<path d="M226.149 106.952H226.729C226.858 106.952 226.922 106.888 226.922 106.823L226.665 104.246C226.665 104.182 226.536 104.117 226.407 104.117H225.827C225.698 104.117 225.634 104.182 225.634 104.246L225.892 106.823C225.892 106.888 226.02 106.952 226.149 106.952Z" fill="#263238"/>
<path d="M211.717 106.952H212.296C212.425 106.952 212.49 106.888 212.49 106.823L212.232 104.246C212.232 104.182 212.103 104.117 211.974 104.117H211.394C211.266 104.117 211.201 104.182 211.201 104.246L211.459 106.823C211.523 106.888 211.588 106.952 211.717 106.952Z" fill="#263238"/>
</svg>
