<svg width="68" height="68" viewBox="0 0 68 68" fill="none" xmlns="http://www.w3.org/2000/svg">
<rect width="68" height="68" rx="18" fill="#FD5D5C"/>
<path fill-rule="evenodd" clip-rule="evenodd" d="M26.8828 23.6314C25.9948 22.7895 24.5672 22.7895 23.6791 23.6314C22.7736 24.4899 22.7736 25.8953 23.6791 26.7538L31.3223 34L23.6796 41.2458C22.7741 42.1043 22.7741 43.5096 23.6796 44.3681C24.5676 45.21 25.9953 45.21 26.8833 44.3681L34.0002 37.6208L41.1172 44.3681C42.0052 45.21 43.4328 45.21 44.3209 44.3681C45.2264 43.5096 45.2264 42.1043 44.3209 41.2458L36.6777 33.9996L44.3204 26.7538C45.2259 25.8953 45.2259 24.4899 44.3204 23.6314C43.4324 22.7895 42.0047 22.7895 41.1167 23.6314L33.9998 30.3788L26.8828 23.6314ZM26.485 43.948C25.8203 44.5782 24.7426 44.5782 24.0779 43.948C24.0667 43.9374 24.0558 43.9267 24.045 43.9159C24.0555 43.9264 24.0662 43.9369 24.0771 43.9472C24.7418 44.5774 25.8195 44.5774 26.4842 43.9472L33.9994 36.8222L41.5147 43.9472C42.1794 44.5774 43.257 44.5774 43.9217 43.9472C44.5753 43.3276 44.5862 42.3295 43.9547 41.6972C44.5871 42.3295 44.5763 43.3282 43.9225 43.948C43.2579 44.5782 42.1802 44.5782 41.5155 43.948L34.0002 36.823L26.485 43.948ZM35.8209 33.9995C35.8843 33.949 35.946 33.8955 36.0057 33.839L43.9221 26.3336C44.5759 25.7138 44.5866 24.7151 43.9542 24.0829C44.5858 24.7152 44.5748 25.7132 43.9213 26.3328L36.0048 33.8381C35.9451 33.8947 35.8834 33.9483 35.82 33.9988C35.8203 33.999 35.8206 33.9993 35.8209 33.9995ZM24.0775 26.3336C24.0663 26.323 24.0553 26.3123 24.0445 26.3015C24.055 26.312 24.0657 26.3225 24.0766 26.3328L31.9931 33.8381C32.0529 33.8949 32.1148 33.9485 32.1784 33.9992C32.1784 33.9992 32.1783 33.9992 32.1783 33.9992C32.115 33.9488 32.0534 33.8954 31.9939 33.839L24.0775 26.3336Z" fill="#F8F8F8"/>
</svg>
