<svg width="30" height="30" viewBox="0 0 30 30" fill="none" xmlns="http://www.w3.org/2000/svg">
<path d="M15 21.5359V18.268L19.4731 22.6078L15 27V23.732C13.3832 23.732 11.8743 23.3312 10.4731 22.5294C9.10778 21.7625 8.02994 20.7168 7.23952 19.3922C6.41317 18.0327 6 16.5686 6 15C6 14.1634 6.12575 13.3529 6.37725 12.5686C6.62874 11.7669 6.97904 11.0261 7.42814 10.3464L9.04491 11.9412C8.52395 12.8649 8.26347 13.8845 8.26347 15C8.26347 16.1852 8.55988 17.2832 9.1527 18.2941C9.76347 19.2876 10.5808 20.0806 11.6048 20.6732C12.6467 21.2484 13.7784 21.5359 15 21.5359ZM15 6.26797C16.6168 6.26797 18.1257 6.66885 19.5269 7.47059C20.8922 8.23747 21.9701 9.28322 22.7605 10.6078C23.5868 11.9673 24 13.4314 24 15C24 15.8366 23.8743 16.6558 23.6228 17.4575C23.3892 18.2593 23.0389 18.9913 22.5719 19.6536L20.9551 18.0588C21.476 17.1351 21.7365 16.1155 21.7365 15C21.7365 13.8148 21.4311 12.7255 20.8204 11.732C20.2275 10.7211 19.4102 9.9281 18.3683 9.35294C17.3443 8.76035 16.2216 8.46405 15 8.46405V11.732L10.5269 7.39216L15 3V6.26797Z" fill="white"/>
</svg>
