<svg width="36" height="36" viewBox="0 0 36 36" fill="none" xmlns="http://www.w3.org/2000/svg">
<path d="M18 2.25L4.5 6.75V20.25C4.5 27.7066 10.5434 33.75 18 33.75C25.4566 33.75 31.5 27.7066 31.5 20.25V6.75L18 2.25ZM28.9688 20.25C28.9688 26.3074 24.0574 31.2188 18 31.2188C11.9426 31.2188 7.03125 26.3074 7.03125 20.25V8.64844L18 4.78125L28.9688 8.64844V20.25Z" fill="black" fill-opacity="0.85"/>
<path d="M13.3014 16.6985C13.1841 16.5806 13.0447 16.4871 12.8912 16.4233C12.7376 16.3595 12.573 16.3267 12.4067 16.3267C12.2404 16.3267 12.0758 16.3595 11.9223 16.4233C11.7687 16.4871 11.6293 16.5806 11.512 16.6985C11.3941 16.8158 11.3006 16.9552 11.2368 17.1087C11.173 17.2623 11.1402 17.4269 11.1402 17.5932C11.1402 17.7595 11.173 17.9241 11.2368 18.0776C11.3006 18.2312 11.3941 18.3706 11.512 18.4879L16.135 23.111C16.246 23.2221 16.3778 23.3103 16.5229 23.3705C16.6679 23.4307 16.8235 23.4616 16.9805 23.4616C17.1376 23.4616 17.2931 23.4307 17.4382 23.3705C17.5833 23.3103 17.7151 23.2221 17.826 23.111L25.6835 15.2535C25.7946 15.1426 25.8828 15.0108 25.943 14.8657C26.0032 14.7206 26.0342 14.5651 26.0342 14.408C26.0342 14.251 26.0032 14.0954 25.943 13.9504C25.8828 13.8053 25.7946 13.6735 25.6835 13.5625L25.585 13.4641C25.4741 13.3529 25.3423 13.2647 25.1972 13.2046C25.0521 13.1444 24.8966 13.1134 24.7395 13.1134C24.5825 13.1134 24.4269 13.1444 24.2819 13.2046C24.1368 13.2647 24.005 13.3529 23.894 13.4641L16.9788 20.3758L13.3014 16.6985Z" fill="black" fill-opacity="0.85"/>
</svg>
