<svg width="17" height="16" viewBox="0 0 17 16" fill="none" xmlns="http://www.w3.org/2000/svg">
<path fill-rule="evenodd" clip-rule="evenodd" d="M2.76782 6.72727C2.76782 4.11647 4.8843 2 7.4951 2C10.1059 2 12.2224 4.11647 12.2224 6.72727C12.2224 9.33807 10.1059 11.4545 7.4951 11.4545C4.8843 11.4545 2.76782 9.33807 2.76782 6.72727ZM7.4951 0C3.77973 0 0.767822 3.0119 0.767822 6.72727C0.767822 10.4426 3.77973 13.4545 7.4951 13.4545C8.99203 13.4545 10.3748 12.9656 11.4923 12.1388L14.9015 15.548C15.2921 15.9385 15.9252 15.9385 16.3158 15.548C16.7063 15.1575 16.7063 14.5243 16.3158 14.1338L12.9065 10.7246C13.7334 9.60699 14.2224 8.22423 14.2224 6.72727C14.2224 3.0119 11.2105 0 7.4951 0Z" fill="white"/>
</svg>
