<svg width="18" height="18" viewBox="0 0 18 18" fill="none" xmlns="http://www.w3.org/2000/svg">
<path d="M11.8027 6.0326L8.1683 11.1217C8.12652 11.1802 8.10088 11.2487 8.09397 11.3203C8.08706 11.3919 8.09911 11.464 8.12892 11.5294L10.6538 17.0621C10.8808 17.5764 11.6215 17.5422 11.7992 17.0088L17.0111 1.37317C17.0473 1.26492 17.0526 1.14874 17.0264 1.03766C17.0002 0.926585 16.9436 0.825 16.8629 0.744301C16.7822 0.663603 16.6806 0.606982 16.5695 0.580791C16.4584 0.5546 16.3422 0.559875 16.234 0.596023L0.598316 5.80791C0.064966 5.9857 0.0313783 6.72694 0.545039 6.95337L6.07833 9.47766C6.14378 9.50766 6.21599 9.51987 6.28767 9.51305C6.35935 9.50624 6.42796 9.48065 6.48659 9.43886L11.5751 5.80386C11.6067 5.78172 11.645 5.77141 11.6834 5.77475C11.7218 5.77808 11.7578 5.79485 11.7851 5.82211C11.8123 5.84936 11.8291 5.88535 11.8324 5.92374C11.8357 5.96214 11.8254 6.00048 11.8033 6.03202L11.8027 6.0326Z" fill="#F8F8F8"/>
</svg>
