<svg width="30" height="30" viewBox="0 0 30 30" fill="none" xmlns="http://www.w3.org/2000/svg">
<rect width="30" height="30" rx="8" fill="#BFBFBF" fill-opacity="0.15"/>
<path d="M23.5147 13.7102C23.7165 13.5614 23.8662 13.3538 23.9428 13.1166C24.0194 12.8794 24.0191 12.6243 23.9418 12.3873C23.8646 12.1503 23.7143 11.9431 23.5121 11.7949C23.3098 11.6466 23.0658 11.5647 22.8142 11.5607L17.9269 11.3779C17.9029 11.3763 17.8799 11.3678 17.8606 11.3535C17.8413 11.3392 17.8266 11.3197 17.8183 11.2973L16.1295 6.78332C16.0446 6.55366 15.8905 6.35535 15.688 6.21525C15.4855 6.07514 15.2444 6 14.9973 6C14.7502 6 14.5091 6.07514 14.3066 6.21525C14.104 6.35535 13.9499 6.55366 13.8651 6.78332L12.1817 11.3135C12.1734 11.3358 12.1587 11.3553 12.1394 11.3696C12.1201 11.3839 12.0971 11.3924 12.0731 11.3941L7.18583 11.5768C6.9342 11.5808 6.69016 11.6627 6.48793 11.811C6.28571 11.9592 6.13543 12.1664 6.05819 12.4034C5.98094 12.6405 5.9806 12.8955 6.0572 13.1327C6.1338 13.37 6.28351 13.5775 6.48533 13.7263L10.3191 16.7088C10.3383 16.7237 10.3526 16.7439 10.3604 16.7668C10.3681 16.7898 10.3688 16.8144 10.3625 16.8378L9.04299 21.4646C8.97461 21.7002 8.98123 21.951 9.06196 22.1827C9.14269 22.4145 9.2936 22.616 9.49416 22.7599C9.69473 22.9037 9.93521 22.983 10.1829 22.9868C10.4306 22.9906 10.6734 22.9188 10.8784 22.7812L14.9294 20.0943C14.9494 20.0807 14.973 20.0734 14.9973 20.0734C15.0215 20.0734 15.0452 20.0807 15.0652 20.0943L19.1161 22.7812C19.3184 22.9235 19.5604 23 19.8085 23C20.0567 23 20.2986 22.9235 20.5009 22.7812C20.7015 22.6387 20.8525 22.4382 20.9333 22.2072C21.014 21.9762 21.0204 21.7262 20.9516 21.4915L19.6212 16.8485C19.6141 16.8252 19.6145 16.8003 19.6223 16.7772C19.6301 16.7541 19.6448 16.734 19.6646 16.7195L23.5147 13.7102Z" fill="#EFC75E"/>
</svg>
