<?xml version="1.0" encoding="UTF-8" standalone="no"?>
<svg
   xmlns:dc="http://purl.org/dc/elements/1.1/"
   xmlns:cc="http://creativecommons.org/ns#"
   xmlns:rdf="http://www.w3.org/1999/02/22-rdf-syntax-ns#"
   xmlns:svg="http://www.w3.org/2000/svg"
   xmlns="http://www.w3.org/2000/svg"
   xmlns:sodipodi="http://sodipodi.sourceforge.net/DTD/sodipodi-0.dtd"
   xmlns:inkscape="http://www.inkscape.org/namespaces/inkscape"
   version="1.1"
   id="svg2"
   xml:space="preserve"
   width="816"
   height="1056"
   viewBox="0 0 816 1056"
   sodipodi:docname="logo2.ai"><metadata
     id="metadata8"><rdf:RDF><cc:Work
         rdf:about=""><dc:format>image/svg+xml</dc:format><dc:type
           rdf:resource="http://purl.org/dc/dcmitype/StillImage" /></cc:Work></rdf:RDF></metadata><defs
     id="defs6"><clipPath
       clipPathUnits="userSpaceOnUse"
       id="clipPath18"><path
         d="M 0,792 H 612 V 0 H 0 Z"
         id="path16" /></clipPath></defs><sodipodi:namedview
     pagecolor="#ffffff"
     bordercolor="#666666"
     borderopacity="1"
     objecttolerance="10"
     gridtolerance="10"
     guidetolerance="10"
     inkscape:pageopacity="0"
     inkscape:pageshadow="2"
     inkscape:window-width="640"
     inkscape:window-height="480"
     id="namedview4" /><g
     id="g10"
     inkscape:groupmode="layer"
     inkscape:label="logo2"
     transform="matrix(1.3333333,0,0,-1.3333333,0,1056)"><g
       id="g12"><g
         id="g14"
         clip-path="url(#clipPath18)"><g
           id="g20"
           transform="translate(600.6669,286.2779)"><path
             d="m 0,0 -10.914,-33.622 -440.071,0.017 c -79.464,0.641 -10.764,64.109 -102.98,69.804 l 1.311,-69.737 -36.453,0.143 -0.227,203.612 c 33.769,5.144 101.989,14.449 128.216,-9.809 34.221,-31.653 18.007,-102.729 -11.317,-112.707 -0.411,-1.243 -0.584,-1.766 -0.996,-3.008 10.358,-15.573 11.177,-20.094 19.449,-37.803 0.008,-0.018 0.016,-0.036 0.025,-0.054 1.931,-4.158 6.085,-6.836 10.67,-6.836 z m -554.063,39.134 c 17.461,10.921 50.084,18.888 55.193,20.496 2.105,0.662 3.797,2.599 5.561,4.176 1.468,1.459 2.938,2.919 4.407,4.378 4.014,0.624 14.086,3.741 17.147,5.916 3.078,2.187 2.147,2.95 2.148,6.853 0.001,3.751 1.587,3.056 3.571,5.716 -0.849,3.612 -0.443,0.625 -2.604,3.874 1.727,0.996 3.454,1.992 5.181,2.988 -1.056,1.919 -2.112,3.836 -3.167,5.754 2.925,1.686 4.529,2.551 6.004,4.896 -1.855,4.644 -7.664,5.659 -11.666,9.561 -0.648,-1.407 -2.504,-3.967 -5.086,-0.356 -1.466,-0.627 -2.368,-1.335 -4.018,-2.067 -1.237,0.12 -2.475,0.241 -3.713,0.361 2.194,1.229 5.808,1.923 9.225,5.056 -0.512,0.789 -0.395,0.609 -0.908,1.398 -4.728,-2.058 -6.44,-4.191 -10.749,-6.34 0.328,2.403 0.034,1.935 2.386,3.564 7.864,5.447 13.056,3.413 11.512,7.208 -1.385,1.625 -0.403,1.184 -2.943,1.176 -5.851,0.047 -13.436,-9.603 -14.809,-10.567 0.91,10.291 15.617,12.873 16.444,13.295 -0.684,4.236 -2.611,9.227 -5.686,12.176 -3.53,3.387 -6.204,3.031 -12.587,2.419 1.253,1.266 2.506,2.533 3.759,3.799 6.425,9 -17.026,17.133 -37.354,6.492 -17.174,-8.99 -25.11,-27.277 -28.55,-44.56 -0.323,-17.288 0.467,-42.651 1.302,-67.662"
             style="fill:#dd1e25;fill-opacity:1;fill-rule:evenodd;stroke:none"
             id="path22" /></g><g
           id="g24"
           transform="translate(586.3298,288.6432)"><path
             d="M 0,0 C 0.44,1.67 0.65,2.84 0.65,3.49 0.65,4.1 0.49,4.61 0.15,5 0.115,5.043 0.079,5.083 0.042,5.121 -0.071,5.145 -0.19,5.157 -0.315,5.157 c -1.5,0 -2.81,-0.93 -3.93,-2.79 -1.12,-1.86 -1.68,-3.75 -1.68,-5.67 0,-0.9 0.2,-1.62 0.6,-2.14 0.078,-0.1 0.159,-0.19 0.246,-0.271 0.184,-0.05 0.38,-0.076 0.589,-0.076 1,0 1.89,0.54 2.68,1.64 0.77,1.09 1.38,2.47 1.81,4.15 m -91.37,-2.91 c 1.26,2.21 1.88,4.25 1.88,6.11 0,0.73 -0.17,1.3 -0.53,1.71 -0.031,0.035 -0.062,0.069 -0.095,0.101 -0.168,0.044 -0.348,0.066 -0.54,0.066 -1.42,0 -2.76,-1.1 -4.03,-3.31 -1.27,-2.2 -1.9,-4.23 -1.9,-6.08 0,-0.71 0.19,-1.27 0.57,-1.71 0.044,-0.051 0.09,-0.099 0.137,-0.144 0.159,-0.042 0.329,-0.063 0.508,-0.063 1.41,0 2.75,1.11 4,3.32 m -21.459,1.57 c 3.065,0.971 4.599,2.613 4.599,4.92 0,0.618 -0.122,1.082 -0.365,1.393 -0.1,0.016 -0.207,0.024 -0.32,0.024 -0.93,0 -1.82,-0.65 -2.67,-1.95 -0.747,-1.157 -1.162,-2.614 -1.244,-4.387 M -2.946,-11.576 c -3.899,-1.418 -5.859,-3.04 -5.859,-4.857 0,-0.59 0.19,-1.06 0.58,-1.43 0.011,-0.011 0.022,-0.021 0.034,-0.032 0.198,-0.056 0.412,-0.085 0.641,-0.085 1.03,0 1.91,0.59 2.67,1.78 0.666,1.048 1.308,2.585 1.934,4.624 m -102.821,17.973 0.738,-0.417 c 0.175,-0.099 0.34,-0.209 0.494,-0.333 0.79,-0.61 1.19,-1.43 1.19,-2.44 0,-2.69 -3.11,-4.86 -9.33,-6.53 0.307,-1.395 0.889,-2.41 1.744,-3.043 0.552,-0.229 1.185,-0.344 1.901,-0.344 0.93,0 1.83,0.24 2.68,0.69 0.81,0.45 2.04,1.41 3.67,2.91 0.19,1.49 0.75,2.92 1.66,4.3 1.17,1.77 2.67,3.19 4.49,4.28 1.83,1.1 3.45,1.64 4.86,1.64 0.846,0 1.571,-0.169 2.173,-0.509 l 0.785,-0.443 c 0.46,-0.259 0.848,-0.618 1.165,-1.077 l 3.967,2.029 h 1.19 l 0.785,-0.443 -1.88,-5.73 c -0.98,-2.88 -1.47,-4.85 -1.47,-5.92 0,-0.543 0.102,-0.954 0.303,-1.234 0.067,-0.009 0.138,-0.013 0.212,-0.013 0.55,0 1.16,0.27 1.82,0.81 0.67,0.54 1.61,1.35 2.81,2.46 0.92,0.91 1.742,1.879 2.495,2.906 l -0.529,0.299 c -0.842,0.475 -1.266,1.117 -1.266,1.925 0,0.99 0.37,2.05 1.11,3.17 0.75,1.13 1.78,1.69 3.08,1.69 0.412,0 0.747,-0.073 1.005,-0.218 l 0.785,-0.443 c 0.43,-0.243 0.645,-0.688 0.645,-1.332 0,-0.69 -0.232,-1.626 -0.696,-2.822 1.926,0.564 3.637,2.138 5.131,4.735 l 1.93,0.08 0.785,-0.443 -1.97,-4.98 c -0.82,-2.09 -1.35,-3.52 -1.59,-4.28 -0.24,-0.76 -0.36,-1.43 -0.36,-2.02 0,-0.54 0.13,-0.97 0.41,-1.3 0.003,-0.003 0.005,-0.005 0.007,-0.008 0.104,-0.019 0.213,-0.029 0.328,-0.029 0.51,0 0.99,0.16 1.47,0.47 0.46,0.31 1.51,1.18 3.13,2.59 0.14,0.99 0.34,1.94 0.6,2.87 0.53,1.87 1.38,3.96 2.56,6.29 l 5.18,0.92 0.785,-0.443 c -0.737,-1.791 -1.304,-3.336 -1.7,-4.624 1.758,1.718 3.195,2.954 4.305,3.697 1.38,0.91 2.59,1.37 3.66,1.37 0.463,0 0.876,-0.103 1.243,-0.31 l 0.785,-0.443 c 0.203,-0.115 0.393,-0.261 0.567,-0.44 0.47,-0.5 0.71,-1.12 0.71,-1.87 0,-1.24 -0.61,-3.3 -1.83,-6.17 -0.85,-1.97 -1.27,-3.26 -1.27,-3.85 0,-0.303 0.052,-0.548 0.155,-0.734 0.036,-0.002 0.073,-0.003 0.11,-0.003 1.04,0 2.72,1.25 5.03,3.75 l 0.011,-0.006 c 0.406,2.428 1.342,5.417 2.819,8.966 l 5.42,1.03 h 0.25 l 0.785,-0.443 -2.13,-6.08 c -0.88,-2.51 -1.31,-4.31 -1.31,-5.38 0,-0.407 0.09,-0.742 0.269,-0.997 0.009,0 0.017,0 0.026,0 0.56,0 1.11,0.18 1.67,0.54 0.56,0.37 1.44,1.16 2.64,2.36 0.14,0.99 0.34,1.94 0.6,2.87 0.53,1.87 1.38,3.96 2.56,6.29 l 5.18,0.92 0.785,-0.443 c -0.737,-1.791 -1.304,-3.336 -1.699,-4.624 1.757,1.718 3.194,2.954 4.304,3.697 1.38,0.91 2.59,1.37 3.66,1.37 0.463,0 0.876,-0.103 1.243,-0.31 l 0.785,-0.443 c 0.204,-0.115 0.392,-0.261 0.567,-0.44 0.47,-0.5 0.71,-1.12 0.71,-1.87 0,-1.24 -0.61,-3.3 -1.83,-6.17 -0.85,-1.97 -1.27,-3.26 -1.27,-3.85 0,-0.303 0.052,-0.548 0.155,-0.734 0.036,-0.002 0.072,-0.003 0.11,-0.003 1.01,0 2.63,1.18 4.83,3.54 0.17,2.41 1.27,4.68 3.3,6.8 2.2,2.32 4.55,3.48 7.04,3.48 0.862,0 1.664,-0.209 2.407,-0.629 L 1.652,6.038 C 1.882,5.909 2.106,5.759 2.325,5.589 2.935,5.797 3.704,6.094 4.61,6.47 L 6.13,7.11 H 6.62 L 7.405,6.667 c -0.56,-1.54 -0.99,-3.04 -1.29,-4.5 l -1.837,-8.96 c 1.606,0.767 3.247,2.056 4.922,3.873 l 0.785,-0.443 v -2.23 c -1.8,-1.73 -3.95,-3 -6.46,-3.82 -1.18,-3.36 -2.67,-5.94 -4.48,-7.76 -1.81,-1.81 -3.73,-2.72 -5.75,-2.72 -0.79,0 -1.466,0.159 -2.03,0.478 l -0.786,0.443 c -0.235,0.133 -0.452,0.294 -0.649,0.482 -0.69,0.63 -1.03,1.46 -1.03,2.5 0,1.39 0.68,2.63 2.04,3.73 1.35,1.11 3.65,2.17 6.9,3.19 l 0.533,2.247 c -0.878,-0.828 -1.665,-1.473 -2.368,-1.93 -0.99,-0.66 -1.99,-0.99 -3,-0.99 -0.623,0 -1.185,0.142 -1.688,0.426 l -0.785,0.443 c -0.448,0.253 -0.848,0.618 -1.202,1.094 -0.332,0.456 -0.592,0.968 -0.778,1.538 -2.994,-2.754 -5.58,-4.131 -7.767,-4.131 -0.626,0 -1.174,0.131 -1.641,0.394 l -0.785,0.443 c -0.241,0.136 -0.461,0.308 -0.659,0.516 -0.58,0.61 -0.87,1.44 -0.87,2.46 0,1.39 0.62,3.52 1.88,6.4 0.66,1.54 1,2.52 1,2.94 0,0.052 -0.003,0.1 -0.008,0.145 -0.153,-0.045 -0.331,-0.126 -0.537,-0.238 -0.29,-0.18 -0.64,-0.43 -1.04,-0.76 -0.36,-0.3 -0.75,-0.66 -1.19,-1.09 -0.38,-0.36 -0.79,-0.78 -1.24,-1.24 l -1.19,-1.27 c -0.52,-0.59 -0.85,-1.21 -0.98,-1.86 -0.21,-1.1 -0.35,-2.12 -0.42,-3.04 -0.04,-0.69 -0.06,-1.62 -0.06,-2.79 l -4.7,-1.01 -0.785,0.443 c -0.122,1.423 -0.198,2.549 -0.222,3.383 -2.828,-2.547 -4.977,-3.826 -6.453,-3.826 -0.463,0 -0.888,0.109 -1.276,0.328 l -0.785,0.443 c -0.374,0.211 -0.715,0.525 -1.024,0.942 -0.447,0.613 -0.738,1.335 -0.865,2.169 -2.878,-2.59 -5.372,-3.882 -7.49,-3.882 -0.626,0 -1.174,0.13 -1.64,0.394 l -0.747,0.421 c -0.006,0.004 -0.013,0.007 -0.019,0.011 l -0.019,0.011 c -0.242,0.136 -0.462,0.308 -0.66,0.516 -0.58,0.61 -0.87,1.44 -0.87,2.46 0,1.39 0.62,3.52 1.87,6.4 0.67,1.54 1.01,2.52 1.01,2.94 0,0.051 -0.003,0.1 -0.008,0.145 -0.154,-0.045 -0.332,-0.126 -0.537,-0.238 -0.29,-0.18 -0.64,-0.43 -1.04,-0.76 -0.36,-0.3 -0.75,-0.66 -1.19,-1.09 -0.38,-0.36 -0.79,-0.78 -1.24,-1.24 l -1.19,-1.27 c -0.52,-0.59 -0.85,-1.21 -0.98,-1.86 -0.21,-1.1 -0.35,-2.12 -0.42,-3.04 -0.04,-0.69 -0.07,-1.62 -0.07,-2.79 l -4.69,-1.01 -0.785,0.443 c -0.125,1.462 -0.202,2.61 -0.224,3.449 -3.089,-2.596 -5.507,-3.892 -7.251,-3.892 -0.52,0 -0.991,0.118 -1.413,0.357 l -0.748,0.421 c -0.003,0.002 -0.006,0.004 -0.009,0.006 l -0.028,0.016 c -0.284,0.16 -0.546,0.374 -0.787,0.643 -0.59,0.66 -0.89,1.49 -0.89,2.47 0,1.632 0.843,3.745 2.527,6.338 -0.626,-0.198 -1.282,-0.351 -1.972,-0.461 -0.92,-1.56 -2.36,-3.25 -4.34,-5.05 h -0.01 c -2.26,-1.97 -3.89,-3.26 -4.87,-3.85 -0.98,-0.59 -1.91,-0.89 -2.8,-0.89 -0.575,0 -1.073,0.119 -1.493,0.356 l -0.785,0.443 c -0.99,0.558 -1.547,1.776 -1.671,3.653 -1.12,-1.367 -2.172,-2.406 -3.151,-3.132 -1.2,-0.88 -2.43,-1.32 -3.71,-1.32 -0.682,0 -1.309,0.163 -1.882,0.487 l -0.786,0.443 c -0.468,0.265 -0.901,0.636 -1.297,1.113 -0.481,0.602 -0.832,1.273 -1.046,2.018 -1.486,-1.282 -2.84,-2.257 -4.069,-2.911 -1.43,-0.77 -3.01,-1.15 -4.74,-1.15 -1.357,0 -2.527,0.277 -3.516,0.835 l -0.785,0.443 c -0.417,0.235 -0.801,0.52 -1.154,0.855 -0.63,0.609 -1.094,1.314 -1.387,2.124 -3.191,-2.816 -6.453,-4.217 -9.788,-4.217 -1.01,0 -2,0.12 -2.94,0.36 -0.94,0.24 -2.09,0.65 -3.45,1.22 -1.35,0.57 -2.55,0.99 -3.58,1.24 -1.92,-1.91 -3.65,-2.86 -5.2,-2.86 -0.39,0 -0.733,0.084 -1.03,0.251 l -0.75,0.423 c -0.005,0.003 -0.009,0.006 -0.014,0.009 l -0.021,0.011 c -0.114,0.064 -0.22,0.14 -0.32,0.229 -0.35,0.32 -0.53,0.71 -0.53,1.17 0,0.98 0.53,1.84 1.59,2.58 1.06,0.73 2.55,1.24 4.49,1.52 0.8,1.02 1.32,2.01 1.54,2.98 0.23,0.97 0.41,2.57 0.53,4.79 0.24,4.59 1.58,8.18 4.02,10.77 2.43,2.6 5.08,3.9 7.93,3.9 1.408,0 2.636,-0.294 3.68,-0.883 l 0.785,-0.443 c 0.408,-0.231 0.789,-0.506 1.14,-0.827 1.26,-1.13 1.89,-2.58 1.89,-4.34 0,-2.04 -0.67,-3.82 -1.99,-5.35 -1.31,-1.53 -2.84,-2.3 -4.55,-2.3 -0.68,0 -1.256,0.135 -1.717,0.395 l -0.785,0.443 c -0.142,0.08 -0.273,0.172 -0.393,0.275 -0.51,0.45 -0.77,1.06 -0.77,1.83 0,0.41 0.09,0.87 0.26,1.4 l 0.785,-0.443 c 0.024,-0.025 0.048,-0.048 0.073,-0.071 0.181,-0.05 0.375,-0.076 0.582,-0.076 0.97,0 1.81,0.52 2.54,1.57 0.72,1.05 1.08,2.3 1.08,3.75 0,1.11 -0.28,1.99 -0.83,2.63 -0.108,0.127 -0.224,0.242 -0.347,0.344 -0.343,0.122 -0.725,0.183 -1.148,0.183 -1.16,0 -2.07,-0.39 -2.72,-1.15 -0.64,-0.77 -1.09,-1.69 -1.35,-2.75 -0.25,-1.07 -0.52,-2.79 -0.8,-5.18 -0.29,-2.38 -0.77,-4.49 -1.45,-6.33 -0.61,-1.677 -1.711,-3.329 -3.295,-4.949 0.688,-0.017 1.313,-0.091 1.87,-0.218 0.89,-0.2 2.16,-0.59 3.81,-1.15 1.65,-0.56 3.07,-0.85 4.26,-0.85 2.29,0 4.48,1.06 6.56,3.17 0.16,2.47 1.19,4.72 3.1,6.75 2.08,2.23 4.39,3.34 6.93,3.34 1.062,0 1.956,-0.201 2.676,-0.607 z M -33,14.64 c -0.74,-0.51 -1.51,-0.76 -2.27,-0.76 -0.642,0 -1.497,0.295 -2.553,0.883 l -0.137,0.077 c -0.46,-1.43 -1.1,-2.71 -1.92,-3.85 0.184,-0.143 0.376,-0.271 0.576,-0.384 l 0.785,-0.443 c 0.737,-0.416 1.585,-0.626 2.544,-0.626 2.51,0 3.76,1.55 3.76,4.66 z"
             style="fill:#ffffff;fill-opacity:1;fill-rule:evenodd;stroke:none"
             id="path26" /></g><g
           id="g28"
           transform="translate(589.65,281.4534)"><path
             d="M 0,0 C 1.91,0.67 3.87,2.09 5.88,4.27 V 2.04 c -1.8,-1.73 -3.95,-3 -6.46,-3.82 -1.18,-3.36 -2.67,-5.94 -4.48,-7.76 -1.81,-1.81 -3.73,-2.72 -5.75,-2.72 -1.12,0 -2.01,0.32 -2.68,0.96 -0.69,0.63 -1.03,1.46 -1.03,2.5 0,1.39 0.68,2.63 2.04,3.73 1.35,1.11 3.65,2.17 6.9,3.19 l 0.91,3.84 c -1.36,-1.4 -2.53,-2.43 -3.53,-3.08 -0.99,-0.66 -1.99,-0.99 -3,-0.99 -1.18,0 -2.14,0.51 -2.89,1.52 -0.51,0.7 -0.85,1.53 -1.01,2.5 -3.23,-3.1 -6,-4.65 -8.32,-4.65 -0.95,0 -1.72,0.3 -2.3,0.91 -0.58,0.61 -0.87,1.44 -0.87,2.46 0,1.39 0.62,3.52 1.88,6.4 0.66,1.54 1,2.52 1,2.94 0,0.42 -0.18,0.63 -0.54,0.63 -0.2,0 -0.46,-0.1 -0.79,-0.28 -0.29,-0.18 -0.64,-0.43 -1.04,-0.76 -0.36,-0.3 -0.75,-0.66 -1.19,-1.09 -0.38,-0.36 -0.79,-0.78 -1.24,-1.24 L -29.7,5.96 C -30.22,5.37 -30.55,4.75 -30.68,4.1 -30.89,3 -31.03,1.98 -31.1,1.06 c -0.04,-0.69 -0.06,-1.62 -0.06,-2.79 l -4.7,-1.01 c -0.15,1.75 -0.23,3.05 -0.23,3.91 0,0.21 0,0.43 0.01,0.64 -3.22,-3.03 -5.63,-4.55 -7.24,-4.55 -0.91,0 -1.67,0.42 -2.3,1.27 -0.62,0.85 -0.94,1.91 -0.94,3.19 V 1.8 c -3.18,-3.03 -5.91,-4.54 -8.2,-4.54 -0.95,0 -1.72,0.3 -2.3,0.91 -0.58,0.61 -0.87,1.44 -0.87,2.46 0,1.39 0.62,3.52 1.87,6.4 0.67,1.54 1.01,2.52 1.01,2.94 0,0.42 -0.19,0.63 -0.54,0.63 -0.2,0 -0.46,-0.1 -0.79,-0.28 -0.29,-0.18 -0.64,-0.43 -1.04,-0.76 -0.36,-0.3 -0.75,-0.66 -1.19,-1.09 -0.38,-0.36 -0.79,-0.78 -1.24,-1.24 L -61.04,5.96 C -61.56,5.37 -61.89,4.75 -62.02,4.1 -62.23,3 -62.37,1.98 -62.44,1.06 c -0.04,-0.69 -0.07,-1.62 -0.07,-2.79 l -4.69,-1.01 c -0.15,1.75 -0.23,3.05 -0.23,3.91 0,0.22 0,0.44 0.01,0.66 -3.47,-3.05 -6.15,-4.57 -8.04,-4.57 -0.87,0 -1.6,0.33 -2.2,1 -0.59,0.66 -0.89,1.49 -0.89,2.47 0,1.84 1.07,4.29 3.21,7.35 C -76.39,7.59 -77.53,7.25 -78.78,7.05 -79.7,5.49 -81.14,3.8 -83.12,2 h -0.01 c -2.26,-1.97 -3.89,-3.26 -4.87,-3.85 -0.98,-0.59 -1.91,-0.89 -2.8,-0.89 -2.25,0 -3.31,1.81 -3.18,5.43 -1.41,-1.86 -2.72,-3.22 -3.92,-4.11 -1.2,-0.88 -2.43,-1.32 -3.71,-1.32 -1.24,0 -2.3,0.54 -3.18,1.6 -0.68,0.85 -1.1,1.84 -1.24,2.98 -1.72,-1.54 -3.27,-2.69 -4.66,-3.43 -1.43,-0.77 -3.01,-1.15 -4.74,-1.15 -1.93,0 -3.48,0.56 -4.67,1.69 -0.86,0.83 -1.41,1.84 -1.64,3.05 -3.36,-3.14 -6.8,-4.7 -10.32,-4.7 -1.01,0 -2,0.12 -2.94,0.36 -0.94,0.24 -2.09,0.65 -3.45,1.22 -1.35,0.57 -2.55,0.99 -3.58,1.24 -1.92,-1.91 -3.65,-2.86 -5.2,-2.86 -0.54,0 -0.99,0.16 -1.35,0.48 -0.35,0.32 -0.53,0.71 -0.53,1.17 0,0.98 0.53,1.84 1.59,2.58 1.06,0.73 2.55,1.24 4.49,1.52 0.8,1.02 1.32,2.01 1.54,2.98 0.23,0.97 0.41,2.57 0.53,4.79 0.24,4.59 1.58,8.18 4.02,10.77 2.43,2.6 5.08,3.9 7.93,3.9 1.96,0 3.57,-0.57 4.82,-1.71 1.26,-1.13 1.89,-2.58 1.89,-4.34 0,-2.04 -0.67,-3.82 -1.99,-5.35 -1.31,-1.53 -2.84,-2.3 -4.55,-2.3 -0.89,0 -1.6,0.23 -2.11,0.67 -0.51,0.45 -0.77,1.06 -0.77,1.83 0,0.41 0.09,0.87 0.26,1.4 0.38,-0.39 0.86,-0.59 1.44,-0.59 0.97,0 1.81,0.52 2.54,1.57 0.72,1.05 1.08,2.3 1.08,3.75 0,1.11 -0.28,1.99 -0.83,2.63 -0.55,0.65 -1.31,0.97 -2.28,0.97 -1.16,0 -2.07,-0.39 -2.72,-1.15 -0.64,-0.77 -1.09,-1.69 -1.35,-2.75 -0.25,-1.07 -0.52,-2.79 -0.8,-5.18 -0.29,-2.38 -0.77,-4.49 -1.45,-6.33 -0.67,-1.84 -1.93,-3.65 -3.77,-5.42 1.2,0.08 2.25,0.01 3.13,-0.19 0.89,-0.2 2.16,-0.59 3.81,-1.15 1.65,-0.56 3.07,-0.85 4.26,-0.85 2.29,0 4.48,1.06 6.56,3.17 0.16,2.47 1.19,4.72 3.1,6.75 2.08,2.23 4.39,3.34 6.93,3.34 1.32,0 2.38,-0.31 3.17,-0.94 0.79,-0.61 1.19,-1.43 1.19,-2.44 0,-2.69 -3.11,-4.86 -9.33,-6.53 0.56,-2.55 2.04,-3.83 4.43,-3.83 0.93,0 1.83,0.24 2.68,0.69 0.81,0.45 2.04,1.41 3.67,2.91 0.19,1.49 0.75,2.92 1.66,4.3 1.17,1.77 2.67,3.19 4.49,4.28 1.83,1.1 3.45,1.64 4.86,1.64 1.77,0 3.01,-0.74 3.71,-2.24 l 4.38,2.24 h 1.19 l -1.88,-5.73 c -0.98,-2.88 -1.47,-4.85 -1.47,-5.92 0,-1.13 0.44,-1.69 1.3,-1.69 0.55,0 1.16,0.27 1.82,0.81 0.67,0.54 1.61,1.35 2.81,2.46 0.93,0.92 1.76,1.9 2.52,2.94 -1.21,0.49 -1.82,1.22 -1.82,2.19 0,0.99 0.37,2.05 1.11,3.17 0.75,1.13 1.78,1.69 3.08,1.69 1.1,0 1.65,-0.52 1.65,-1.55 0,-0.81 -0.32,-1.96 -0.96,-3.47 2.36,0.24 4.42,1.88 6.18,4.94 l 1.93,0.08 -1.97,-4.98 C -72.23,7.15 -72.76,5.72 -73,4.96 -73.24,4.2 -73.36,3.53 -73.36,2.94 c 0,-0.54 0.13,-0.97 0.41,-1.3 0.28,-0.32 0.65,-0.48 1.12,-0.48 0.51,0 0.99,0.16 1.47,0.47 0.46,0.31 1.51,1.18 3.13,2.59 0.14,0.99 0.34,1.94 0.6,2.87 0.53,1.87 1.38,3.96 2.56,6.29 l 5.18,0.92 c -1.09,-2.65 -1.81,-4.76 -2.15,-6.3 2.33,2.37 4.18,4.02 5.54,4.93 1.38,0.91 2.59,1.37 3.66,1.37 0.72,0 1.32,-0.25 1.81,-0.75 0.47,-0.5 0.71,-1.12 0.71,-1.87 0,-1.24 -0.61,-3.3 -1.83,-6.17 -0.85,-1.97 -1.27,-3.26 -1.27,-3.85 0,-0.79 0.35,-1.18 1.05,-1.18 1.04,0 2.72,1.25 5.03,3.75 V 4.16 c 0.4,2.44 1.34,5.45 2.83,9.03 l 5.42,1.03 h 0.25 l -2.13,-6.08 c -0.88,-2.51 -1.31,-4.31 -1.31,-5.38 0,-0.43 0.1,-0.78 0.3,-1.04 0.21,-0.27 0.47,-0.4 0.78,-0.4 0.56,0 1.11,0.18 1.67,0.54 0.56,0.37 1.44,1.16 2.64,2.36 0.14,0.99 0.34,1.94 0.6,2.87 0.53,1.87 1.38,3.96 2.56,6.29 l 5.18,0.92 c -1.09,-2.65 -1.81,-4.76 -2.15,-6.3 2.33,2.37 4.18,4.02 5.54,4.93 1.38,0.91 2.59,1.37 3.66,1.37 0.72,0 1.32,-0.25 1.81,-0.75 0.47,-0.5 0.71,-1.12 0.71,-1.87 0,-1.24 -0.61,-3.3 -1.83,-6.17 -0.85,-1.97 -1.27,-3.26 -1.27,-3.85 0,-0.79 0.35,-1.18 1.05,-1.18 1.01,0 2.63,1.18 4.83,3.54 0.17,2.41 1.27,4.68 3.3,6.8 2.2,2.32 4.55,3.48 7.04,3.48 1.37,0 2.59,-0.53 3.66,-1.59 0.64,0.21 1.48,0.53 2.49,0.95 L 2.81,14.3 H 3.3 C 2.74,12.76 2.31,11.26 2.01,9.8 Z m -115.69,10.68 c 0.85,1.3 1.74,1.95 2.67,1.95 0.98,0 1.47,-0.62 1.47,-1.86 0,-2.5 -1.8,-4.22 -5.4,-5.15 0,2.08 0.42,3.76 1.26,5.06 m 21,-6.4 c -1.25,-2.21 -2.59,-3.32 -4,-3.32 -0.58,0 -1.06,0.22 -1.43,0.65 -0.38,0.44 -0.57,1 -0.57,1.71 0,1.85 0.63,3.88 1.9,6.08 1.27,2.21 2.61,3.31 4.03,3.31 0.59,0 1.07,-0.21 1.42,-0.61 0.36,-0.41 0.53,-0.98 0.53,-1.71 0,-1.86 -0.62,-3.9 -1.88,-6.11 M -8.2,-9.01 c -0.76,-1.19 -1.64,-1.78 -2.67,-1.78 -0.59,0 -1.08,0.19 -1.46,0.56 -0.39,0.37 -0.58,0.84 -0.58,1.43 0,1.97 2.3,3.71 6.88,5.21 -0.7,-2.44 -1.42,-4.24 -2.17,-5.42 m 4.88,16.2 C -3.75,5.51 -4.36,4.13 -5.13,3.04 -5.92,1.94 -6.81,1.4 -7.81,1.4 c -0.67,0 -1.21,0.26 -1.62,0.79 -0.4,0.52 -0.6,1.24 -0.6,2.14 0,1.92 0.56,3.81 1.68,5.67 1.12,1.86 2.43,2.79 3.93,2.79 0.51,0 0.92,-0.2 1.25,-0.6 0.34,-0.39 0.5,-0.9 0.5,-1.51 0,-0.65 -0.21,-1.82 -0.65,-3.49 m -33,14.64 c -0.74,-0.51 -1.51,-0.76 -2.27,-0.76 -0.67,0 -1.57,0.32 -2.69,0.96 -0.46,-1.43 -1.1,-2.71 -1.92,-3.85 0.86,-0.67 1.9,-1.01 3.12,-1.01 2.51,0 3.76,1.55 3.76,4.66"
             style="fill:#000001;fill-opacity:1;fill-rule:evenodd;stroke:none"
             id="path30" /></g><g
           id="g32"
           transform="translate(132.4008,269.3863)"><path
             d="m 0,0 -0.559,3.273 v 2.781 h 2.33 V 3.273 L 1.235,0 Z M 3.752,0 3.215,3.273 v 2.781 h 2.33 V 3.273 L 4.986,0 Z m 4.705,3.814 h 1.98 V -8.985 h 4.706 v -2.027 H 8.457 Z m 17.84,-10.392 h -8.013 c 0.174,-0.994 0.571,-1.716 1.187,-2.173 0.621,-0.457 1.293,-0.688 2.024,-0.688 1.122,0 2.065,0.478 2.822,1.43 l 1.445,-1.116 c -1.084,-1.434 -2.536,-2.149 -4.357,-2.149 -1.397,0 -2.562,0.489 -3.506,1.47 -0.939,0.977 -1.409,2.193 -1.409,3.647 0,1.363 0.477,2.538 1.429,3.539 0.951,0.997 2.112,1.497 3.486,1.497 1.351,0 2.508,-0.504 3.472,-1.517 0.962,-1.013 1.436,-2.327 1.42,-3.94 m -7.804,1.621 h 5.754 c -0.64,1.318 -1.584,1.978 -2.829,1.978 -1.363,0 -2.338,-0.66 -2.925,-1.978 m 17.985,3.551 h 1.98 v -9.606 h -1.98 v 1.907 c -0.967,-1.446 -2.163,-2.169 -3.592,-2.169 -1.239,0 -2.298,0.497 -3.176,1.494 -0.877,0.993 -1.315,2.2 -1.315,3.623 0,1.346 0.441,2.522 1.327,3.527 0.885,1.005 1.925,1.509 3.117,1.509 0.738,0 1.437,-0.206 2.101,-0.623 0.66,-0.413 1.173,-0.953 1.538,-1.617 z m 0.279,-4.819 c 0,0.878 -0.31,1.633 -0.928,2.256 -0.617,0.628 -1.359,0.942 -2.221,0.942 -0.842,0 -1.577,-0.31 -2.202,-0.933 -0.624,-0.624 -0.939,-1.356 -0.939,-2.197 0,-0.91 0.307,-1.685 0.916,-2.324 0.611,-0.64 1.352,-0.958 2.225,-0.958 0.862,0 1.604,0.318 2.221,0.954 0.618,0.632 0.928,1.387 0.928,2.26 m 6.868,4.819 v -1.979 c 0.439,0.799 0.87,1.375 1.289,1.733 0.423,0.353 0.971,0.531 1.643,0.531 0.19,0 0.461,-0.047 0.818,-0.138 l -0.581,-2.026 c -0.381,0.075 -0.633,0.115 -0.754,0.115 -0.672,0 -1.235,-0.238 -1.689,-0.719 -0.454,-0.477 -0.679,-1.072 -0.679,-1.792 v -5.331 h -1.98 v 9.606 z m 5.661,-9.606 v 9.606 h 1.98 v -1.593 c 0.563,0.643 1.075,1.116 1.533,1.422 0.459,0.306 0.971,0.456 1.534,0.456 0.843,0 1.565,-0.285 2.163,-0.862 0.598,-0.575 0.897,-1.266 0.897,-2.077 v -6.952 h -1.981 v 6.365 c 0,0.524 -0.163,0.952 -0.493,1.298 -0.326,0.341 -0.741,0.512 -1.246,0.512 -0.656,0 -1.219,-0.285 -1.697,-0.858 -0.473,-0.571 -0.71,-1.262 -0.71,-2.073 v -5.244 z M 59.49,1.74 c 0,0.421 0.151,0.783 0.454,1.088 0.307,0.306 0.664,0.461 1.083,0.461 0.411,0 0.765,-0.155 1.064,-0.461 0.299,-0.305 0.45,-0.667 0.45,-1.088 0,-0.425 -0.151,-0.79 -0.45,-1.097 -0.299,-0.301 -0.653,-0.452 -1.064,-0.452 -0.419,0 -0.776,0.151 -1.083,0.452 C 59.641,0.95 59.49,1.315 59.49,1.74 m 0.558,-3.146 h 1.981 v -9.606 h -1.981 z m 4.547,-9.606 v 9.606 h 1.98 v -1.593 c 0.563,0.643 1.076,1.116 1.534,1.422 0.458,0.306 0.971,0.456 1.533,0.456 0.843,0 1.566,-0.285 2.163,-0.862 0.599,-0.575 0.897,-1.266 0.897,-2.077 v -6.952 h -1.981 v 6.365 c 0,0.524 -0.162,0.952 -0.492,1.298 -0.326,0.341 -0.742,0.512 -1.247,0.512 -0.656,0 -1.219,-0.285 -1.696,-0.858 -0.474,-0.571 -0.711,-1.262 -0.711,-2.073 v -5.244 z m 18.381,9.606 h 1.933 v -9.22 c 0,-1.359 -0.458,-2.515 -1.37,-3.465 -0.913,-0.948 -2.02,-1.426 -3.316,-1.426 -0.987,0 -1.892,0.274 -2.718,0.819 -0.827,0.548 -1.433,1.379 -1.821,2.494 h 2.05 c 0.613,-1.032 1.468,-1.549 2.558,-1.549 0.742,0 1.375,0.274 1.899,0.823 0.524,0.544 0.785,1.203 0.785,1.97 v 1.815 c -0.955,-1.418 -2.159,-2.129 -3.616,-2.129 -1.199,0 -2.243,0.509 -3.133,1.521 -0.889,1.014 -1.335,2.214 -1.335,3.596 0,1.387 0.435,2.57 1.301,3.555 0.869,0.989 1.902,1.481 3.098,1.481 1.549,0 2.776,-0.77 3.685,-2.311 z m 0.279,-4.775 c 0,0.906 -0.306,1.661 -0.917,2.268 -0.609,0.608 -1.366,0.91 -2.267,0.91 -0.827,0 -1.557,-0.314 -2.185,-0.946 -0.63,-0.631 -0.944,-1.358 -0.944,-2.184 0,-0.895 0.31,-1.665 0.932,-2.312 0.621,-0.648 1.362,-0.97 2.22,-0.97 0.87,0 1.616,0.314 2.233,0.946 0.618,0.631 0.928,1.394 0.928,2.288 M 94.079,1.74 c 0,0.421 0.151,0.783 0.455,1.088 0.307,0.306 0.663,0.461 1.083,0.461 0.411,0 0.765,-0.155 1.064,-0.461 0.299,-0.305 0.45,-0.667 0.45,-1.088 0,-0.425 -0.151,-0.79 -0.45,-1.097 -0.299,-0.301 -0.653,-0.452 -1.064,-0.452 -0.42,0 -0.776,0.151 -1.083,0.452 C 94.23,0.95 94.079,1.315 94.079,1.74 m 0.559,-3.146 h 1.981 v -9.606 h -1.981 z m 10.581,-1.124 -1.32,-1.188 c -0.342,0.25 -0.637,0.44 -0.89,0.568 -0.252,0.131 -0.547,0.195 -0.889,0.195 -0.808,0 -1.211,-0.303 -1.211,-0.911 0,-0.436 0.508,-0.858 1.53,-1.266 1.021,-0.41 1.755,-0.858 2.2,-1.347 0.447,-0.493 0.672,-1.08 0.672,-1.776 0,-0.806 -0.322,-1.513 -0.966,-2.113 -0.645,-0.603 -1.402,-0.906 -2.272,-0.906 -1.327,0 -2.41,0.628 -3.261,1.879 l 1.557,0.767 c 0.547,-0.541 1.114,-0.811 1.708,-0.811 0.408,0 0.765,0.116 1.072,0.346 0.307,0.226 0.462,0.492 0.462,0.799 0,0.536 -0.539,1.02 -1.615,1.453 -1.08,0.43 -1.825,0.866 -2.236,1.303 -0.416,0.441 -0.622,0.981 -0.622,1.625 0,0.799 0.295,1.466 0.881,1.995 0.591,0.532 1.328,0.797 2.218,0.797 0.885,0 1.883,-0.468 2.982,-1.409 m 8.149,4.27 c 0,0.421 0.151,0.783 0.454,1.088 0.307,0.306 0.664,0.461 1.084,0.461 0.411,0 0.765,-0.155 1.063,-0.461 0.3,-0.305 0.451,-0.667 0.451,-1.088 0,-0.425 -0.151,-0.79 -0.451,-1.097 -0.298,-0.301 -0.652,-0.452 -1.063,-0.452 -0.42,0 -0.777,0.151 -1.084,0.452 -0.303,0.307 -0.454,0.672 -0.454,1.097 m 0.559,-3.146 h 1.981 v -9.606 h -1.981 z m 4.547,-9.606 v 9.606 h 1.98 v -1.593 c 0.563,0.643 1.075,1.116 1.533,1.422 0.459,0.306 0.971,0.456 1.534,0.456 0.843,0 1.565,-0.285 2.163,-0.862 0.598,-0.575 0.897,-1.266 0.897,-2.077 v -6.952 H 124.6 v 6.365 c 0,0.524 -0.163,0.952 -0.493,1.298 -0.326,0.341 -0.742,0.512 -1.246,0.512 -0.656,0 -1.219,-0.285 -1.696,-0.858 -0.474,-0.571 -0.711,-1.262 -0.711,-2.073 v -5.244 z m 17.611,2.932 v -2.312 c -1.009,-0.588 -1.987,-0.882 -2.936,-0.882 -1.296,0 -2.43,0.501 -3.404,1.498 -0.974,1.001 -1.464,2.156 -1.464,3.468 0,1.494 0.486,2.729 1.456,3.714 0.971,0.981 2.19,1.473 3.654,1.473 0.87,0 1.77,-0.23 2.694,-0.691 v -2.264 c -0.994,0.636 -1.934,0.954 -2.822,0.954 -0.819,0 -1.534,-0.294 -2.151,-0.886 -0.614,-0.588 -0.921,-1.28 -0.921,-2.074 0,-0.89 0.288,-1.64 0.866,-2.252 0.575,-0.608 1.282,-0.914 2.117,-0.914 0.85,0 1.82,0.389 2.911,1.168 m 1.394,1.91 c 0,1.319 0.505,2.488 1.518,3.512 1.014,1.025 2.178,1.537 3.491,1.537 1.351,0 2.531,-0.504 3.541,-1.512 1.009,-1.01 1.514,-2.185 1.514,-3.537 0,-1.354 -0.497,-2.545 -1.487,-3.578 -0.99,-1.034 -2.132,-1.55 -3.433,-1.55 -1.385,0 -2.594,0.509 -3.614,1.53 -1.021,1.02 -1.53,2.22 -1.53,3.598 m 8.153,-0.004 c 0,0.823 -0.302,1.534 -0.912,2.142 -0.605,0.607 -1.328,0.91 -2.163,0.91 -0.858,0 -1.596,-0.306 -2.217,-0.922 -0.616,-0.616 -0.927,-1.347 -0.927,-2.201 0,-0.814 0.315,-1.525 0.94,-2.137 0.624,-0.608 1.362,-0.914 2.204,-0.914 0.82,0 1.538,0.314 2.152,0.938 0.616,0.628 0.923,1.354 0.923,2.184 m 3.844,-4.838 v 9.606 h 1.98 V -2.86 c 0.458,0.604 0.902,1.044 1.316,1.322 0.421,0.279 0.901,0.417 1.445,0.417 0.707,0 1.266,-0.158 1.666,-0.476 0.404,-0.318 0.745,-0.826 1.025,-1.525 0.492,0.699 0.97,1.207 1.432,1.525 0.462,0.318 0.994,0.476 1.604,0.476 0.745,0 1.389,-0.285 1.93,-0.858 0.539,-0.571 0.811,-1.246 0.811,-2.033 v -7 h -1.98 v 6.499 c 0,1.069 -0.513,1.605 -1.538,1.605 -0.585,0 -1.079,-0.274 -1.487,-0.818 -0.407,-0.548 -0.61,-1.224 -0.61,-2.027 v -5.259 h -1.979 v 6.213 c 0,1.26 -0.501,1.891 -1.503,1.891 -0.594,0 -1.099,-0.258 -1.511,-0.77 -0.414,-0.513 -0.621,-1.149 -0.621,-1.904 v -5.43 z m 17.961,9.606 v -1.931 c 0.943,1.478 2.155,2.216 3.626,2.216 1.212,0 2.252,-0.496 3.125,-1.485 0.874,-0.993 1.309,-2.173 1.309,-3.551 0,-1.391 -0.442,-2.591 -1.332,-3.6 -0.884,-1.012 -1.929,-1.517 -3.137,-1.517 -0.695,0 -1.366,0.187 -2.007,0.56 -0.637,0.37 -1.168,0.91 -1.584,1.617 v -6.42 h -1.98 v 14.111 z m 6.01,-4.751 c 0,0.85 -0.31,1.593 -0.931,2.225 -0.622,0.635 -1.355,0.953 -2.198,0.953 -0.854,0 -1.596,-0.314 -2.221,-0.946 -0.625,-0.632 -0.939,-1.374 -0.939,-2.232 0,-0.878 0.31,-1.641 0.928,-2.288 0.617,-0.648 1.346,-0.97 2.189,-0.97 0.87,0 1.619,0.318 2.241,0.958 0.621,0.639 0.931,1.406 0.931,2.3 m 4.865,10.256 h 1.98 v -15.111 h -1.98 z m 14.214,-10.677 h -8.014 c 0.175,-0.994 0.572,-1.716 1.188,-2.173 0.622,-0.457 1.294,-0.688 2.024,-0.688 1.122,0 2.065,0.478 2.823,1.43 l 1.443,-1.116 c -1.083,-1.434 -2.535,-2.149 -4.356,-2.149 -1.398,0 -2.563,0.489 -3.505,1.47 -0.94,0.977 -1.41,2.193 -1.41,3.647 0,1.363 0.477,2.538 1.429,3.539 0.95,0.997 2.112,1.497 3.486,1.497 1.351,0 2.509,-0.504 3.471,-1.517 0.963,-1.013 1.437,-2.327 1.421,-3.94 m -7.803,1.621 h 5.753 c -0.64,1.318 -1.584,1.978 -2.83,1.978 -1.363,0 -2.338,-0.66 -2.923,-1.978 m 10.716,6.315 h 1.979 v -2.764 h 1.957 v -1.883 h -1.957 v -7.723 h -1.979 v 7.723 h -1.561 v 1.883 h 1.561 z m 15.048,-7.936 h -8.014 c 0.175,-0.994 0.571,-1.716 1.187,-2.173 0.622,-0.457 1.294,-0.688 2.024,-0.688 1.122,0 2.065,0.478 2.823,1.43 l 1.444,-1.116 c -1.083,-1.434 -2.535,-2.149 -4.356,-2.149 -1.398,0 -2.563,0.489 -3.506,1.47 -0.939,0.977 -1.41,2.193 -1.41,3.647 0,1.363 0.478,2.538 1.429,3.539 0.951,0.997 2.113,1.497 3.487,1.497 1.351,0 2.508,-0.504 3.471,-1.517 0.962,-1.013 1.437,-2.327 1.421,-3.94 m -7.804,1.621 h 5.754 c -0.641,1.318 -1.584,1.978 -2.83,1.978 -1.363,0 -2.338,-0.66 -2.924,-1.978 m 22.93,3.956 2.625,-6.364 2.78,5.959 h 1.711 l -4.6,-9.868 -2.535,6.15 -2.497,-6.078 -4.601,9.796 h 1.728 l 2.788,-5.927 z m 8.747,2.741 c 0,0.421 0.152,0.783 0.455,1.088 0.307,0.306 0.664,0.461 1.083,0.461 0.412,0 0.765,-0.155 1.063,-0.461 0.3,-0.305 0.451,-0.667 0.451,-1.088 0,-0.425 -0.151,-0.79 -0.451,-1.097 -0.298,-0.301 -0.651,-0.452 -1.063,-0.452 -0.419,0 -0.776,0.151 -1.083,0.452 -0.303,0.307 -0.455,0.672 -0.455,1.097 m 0.56,-3.146 h 1.98 v -9.606 h -1.98 z m 5.548,2.764 h 1.979 v -2.764 h 1.958 v -1.883 h -1.958 v -7.723 h -1.979 v 7.723 h -1.561 v 1.883 h 1.561 z m 5.241,2.741 h 1.981 V -2.96 c 0.546,0.644 1.056,1.113 1.529,1.403 0.473,0.289 1.052,0.436 1.732,0.436 0.796,0 1.487,-0.313 2.065,-0.937 0.578,-0.627 0.869,-1.374 0.869,-2.248 v -6.706 h -1.98 v 6.161 c 0,0.608 -0.151,1.097 -0.45,1.462 -0.299,0.37 -0.695,0.552 -1.184,0.552 -0.715,0 -1.324,-0.277 -1.825,-0.829 -0.505,-0.557 -0.756,-1.229 -0.756,-2.015 v -5.331 h -1.981 z m 10.11,-10.269 c 0,1.319 0.505,2.488 1.519,3.512 1.013,1.025 2.177,1.537 3.49,1.537 1.351,0 2.532,-0.504 3.541,-1.512 1.01,-1.01 1.514,-2.185 1.514,-3.537 0,-1.354 -0.497,-2.545 -1.487,-3.578 -0.99,-1.034 -2.132,-1.55 -3.431,-1.55 -1.388,0 -2.595,0.509 -3.616,1.53 -1.021,1.02 -1.53,2.22 -1.53,3.598 m 8.154,-0.004 c 0,0.823 -0.303,1.534 -0.912,2.142 -0.606,0.607 -1.329,0.91 -2.163,0.91 -0.859,0 -1.596,-0.306 -2.218,-0.922 -0.616,-0.616 -0.927,-1.347 -0.927,-2.201 0,-0.814 0.315,-1.525 0.94,-2.137 0.625,-0.608 1.362,-0.914 2.205,-0.914 0.819,0 1.537,0.314 2.151,0.938 0.616,0.628 0.924,1.354 0.924,2.184 m 3.657,4.768 h 1.98 v -5.411 c 0,-1.668 0.714,-2.502 2.147,-2.502 0.638,0 1.142,0.222 1.515,0.667 0.368,0.449 0.555,1.06 0.555,1.835 v 5.411 h 1.98 v -5.737 c 0,-1.203 -0.384,-2.193 -1.153,-2.967 -0.765,-0.775 -1.747,-1.164 -2.94,-1.164 -1.219,0 -2.201,0.389 -2.954,1.164 -0.753,0.774 -1.13,1.788 -1.13,3.039 z m 11.206,2.764 h 1.98 v -2.764 h 1.956 v -1.883 h -1.956 v -7.723 h -1.98 v 7.723 h -1.561 v 1.883 h 1.561 z m 12.598,2.456 h 3.141 c 1.565,0 2.834,-0.398 3.816,-1.192 0.983,-0.795 1.476,-1.812 1.476,-3.051 0,-0.989 -0.314,-1.867 -0.948,-2.626 -0.632,-0.758 -1.618,-1.294 -2.958,-1.605 l 4.186,-6.352 h -2.271 l -4.019,6.102 h -0.443 v -6.102 h -1.98 z m 1.98,-1.788 v -5.172 c 2.92,-0.064 4.38,0.802 4.38,2.598 0,0.627 -0.171,1.144 -0.512,1.545 -0.342,0.397 -0.796,0.671 -1.363,0.814 -0.571,0.143 -1.406,0.215 -2.505,0.215 m 16.144,-3.432 h 1.981 v -9.606 h -1.981 v 1.907 c -0.966,-1.446 -2.162,-2.169 -3.591,-2.169 -1.239,0 -2.299,0.497 -3.176,1.494 -0.878,0.993 -1.316,2.2 -1.316,3.623 0,1.346 0.442,2.522 1.327,3.527 0.885,1.005 1.926,1.509 3.118,1.509 0.738,0 1.437,-0.206 2.101,-0.623 0.659,-0.413 1.173,-0.953 1.537,-1.617 z m 0.28,-4.819 c 0,0.878 -0.31,1.633 -0.928,2.256 -0.617,0.628 -1.359,0.942 -2.221,0.942 -0.843,0 -1.577,-0.31 -2.202,-0.933 -0.625,-0.624 -0.94,-1.356 -0.94,-2.197 0,-0.91 0.307,-1.685 0.917,-2.324 0.61,-0.64 1.351,-0.958 2.225,-0.958 0.862,0 1.604,0.318 2.221,0.954 0.618,0.632 0.928,1.387 0.928,2.26 m 12.575,10.324 h 1.934 v -15.111 h -1.934 v 2.003 c -0.936,-1.51 -2.159,-2.265 -3.672,-2.265 -1.224,0 -2.272,0.501 -3.146,1.506 -0.874,1.001 -1.311,2.205 -1.311,3.611 0,1.378 0.445,2.558 1.338,3.551 0.89,0.989 1.953,1.485 3.188,1.485 0.742,0 1.428,-0.21 2.069,-0.627 0.641,-0.421 1.154,-0.966 1.534,-1.641 z m 0.233,-10.276 c 0,0.861 -0.311,1.613 -0.928,2.245 -0.617,0.635 -1.355,0.953 -2.212,0.953 -0.886,0 -1.636,-0.31 -2.249,-0.93 -0.617,-0.62 -0.924,-1.374 -0.924,-2.268 0,-0.858 0.314,-1.609 0.939,-2.249 0.626,-0.643 1.356,-0.965 2.19,-0.965 0.886,0 1.639,0.31 2.256,0.934 0.617,0.624 0.928,1.382 0.928,2.28 m 4.282,10.276 h 1.981 V -2.96 c 0.546,0.644 1.056,1.113 1.529,1.403 0.474,0.289 1.052,0.436 1.732,0.436 0.796,0 1.487,-0.313 2.066,-0.937 0.578,-0.627 0.869,-1.374 0.869,-2.248 v -6.706 h -1.981 v 6.161 c 0,0.608 -0.15,1.097 -0.449,1.462 -0.299,0.37 -0.695,0.552 -1.185,0.552 -0.714,0 -1.324,-0.277 -1.825,-0.829 -0.505,-0.557 -0.756,-1.229 -0.756,-2.015 v -5.331 h -1.981 z m 20.011,-10.677 h -8.013 c 0.174,-0.994 0.571,-1.716 1.187,-2.173 0.621,-0.457 1.293,-0.688 2.024,-0.688 1.121,0 2.065,0.478 2.822,1.43 l 1.445,-1.116 c -1.084,-1.434 -2.536,-2.149 -4.357,-2.149 -1.397,0 -2.562,0.489 -3.506,1.47 -0.939,0.977 -1.409,2.193 -1.409,3.647 0,1.363 0.477,2.538 1.429,3.539 0.951,0.997 2.112,1.497 3.486,1.497 1.351,0 2.508,-0.504 3.471,-1.517 0.964,-1.013 1.437,-2.327 1.421,-3.94 m -7.804,1.621 h 5.754 c -0.64,1.318 -1.583,1.978 -2.83,1.978 -1.363,0 -2.337,-0.66 -2.924,-1.978 m 16.699,8.771 h 1.981 v -6.039 l 6.126,6.039 h 2.772 l -6.996,-6.897 7.043,-7.929 h -2.536 l -6.409,7.214 v -7.214 h -1.981 z m 14.859,-5.22 v -1.979 c 0.438,0.799 0.869,1.375 1.289,1.733 0.423,0.353 0.97,0.531 1.642,0.531 0.19,0 0.462,-0.047 0.819,-0.138 l -0.582,-2.026 c -0.381,0.075 -0.633,0.115 -0.753,0.115 -0.672,0 -1.235,-0.238 -1.689,-0.719 -0.455,-0.477 -0.68,-1.072 -0.68,-1.792 v -5.331 h -1.98 v 9.606 z m 5.195,3.146 c 0,0.421 0.151,0.783 0.454,1.088 0.308,0.306 0.664,0.461 1.083,0.461 0.412,0 0.765,-0.155 1.064,-0.461 0.299,-0.305 0.451,-0.667 0.451,-1.088 0,-0.425 -0.152,-0.79 -0.451,-1.097 -0.299,-0.301 -0.652,-0.452 -1.064,-0.452 -0.419,0 -0.775,0.151 -1.083,0.452 -0.303,0.307 -0.454,0.672 -0.454,1.097 m 0.559,-3.146 h 1.98 v -9.606 h -1.98 z m 10.581,-1.124 -1.321,-1.188 c -0.342,0.25 -0.637,0.44 -0.889,0.568 -0.252,0.131 -0.548,0.195 -0.889,0.195 -0.808,0 -1.212,-0.303 -1.212,-0.911 0,-0.436 0.509,-0.858 1.53,-1.266 1.021,-0.41 1.755,-0.858 2.201,-1.347 0.446,-0.493 0.672,-1.08 0.672,-1.776 0,-0.806 -0.323,-1.513 -0.966,-2.113 -0.645,-0.603 -1.402,-0.906 -2.272,-0.906 -1.328,0 -2.411,0.628 -3.262,1.879 l 1.557,0.767 c 0.548,-0.541 1.115,-0.811 1.709,-0.811 0.408,0 0.765,0.116 1.072,0.346 0.307,0.226 0.462,0.492 0.462,0.799 0,0.536 -0.54,1.02 -1.616,1.453 -1.079,0.43 -1.825,0.866 -2.236,1.303 -0.416,0.441 -0.622,0.981 -0.622,1.625 0,0.799 0.295,1.466 0.882,1.995 0.59,0.532 1.328,0.797 2.217,0.797 0.886,0 1.884,-0.468 2.983,-1.409 m 1.653,6.629 h 1.98 V -2.96 c 0.547,0.644 1.056,1.113 1.529,1.403 0.475,0.289 1.053,0.436 1.733,0.436 0.795,0 1.486,-0.313 2.065,-0.937 0.579,-0.627 0.87,-1.374 0.87,-2.248 v -6.706 h -1.981 v 6.161 c 0,0.608 -0.151,1.097 -0.45,1.462 -0.299,0.37 -0.694,0.552 -1.184,0.552 -0.715,0 -1.324,-0.277 -1.825,-0.829 -0.504,-0.557 -0.757,-1.229 -0.757,-2.015 v -5.331 h -1.98 z m 10.274,-15.111 v 9.606 h 1.979 v -1.593 c 0.563,0.643 1.076,1.116 1.534,1.422 0.459,0.306 0.971,0.456 1.534,0.456 0.843,0 1.565,-0.285 2.163,-0.862 0.598,-0.575 0.896,-1.266 0.896,-2.077 v -6.952 h -1.98 v 6.365 c 0,0.524 -0.162,0.952 -0.492,1.298 -0.327,0.341 -0.742,0.512 -1.247,0.512 -0.655,0 -1.219,-0.285 -1.697,-0.858 -0.474,-0.571 -0.711,-1.262 -0.711,-2.073 v -5.244 z m 18.473,9.606 h 1.981 v -9.606 h -1.981 v 1.907 c -0.966,-1.446 -2.162,-2.169 -3.592,-2.169 -1.238,0 -2.297,0.497 -3.175,1.494 -0.878,0.993 -1.316,2.2 -1.316,3.623 0,1.346 0.442,2.522 1.328,3.527 0.885,1.005 1.925,1.509 3.117,1.509 0.738,0 1.437,-0.206 2.101,-0.623 0.659,-0.413 1.172,-0.953 1.537,-1.617 z m 0.28,-4.819 c 0,0.878 -0.311,1.633 -0.928,2.256 -0.617,0.628 -1.359,0.942 -2.221,0.942 -0.843,0 -1.577,-0.31 -2.202,-0.933 -0.625,-0.624 -0.939,-1.356 -0.939,-2.197 0,-0.91 0.307,-1.685 0.916,-2.324 0.61,-0.64 1.352,-0.958 2.225,-0.958 0.862,0 1.604,0.318 2.221,0.954 0.617,0.632 0.928,1.387 0.928,2.26 M 422.689,0 422.13,3.273 v 2.781 h 2.329 V 3.273 L 423.924,0 Z m 3.751,0 -0.536,3.273 v 2.781 h 2.329 V 3.273 L 427.674,0 Z"
             style="fill:#ffffff;fill-opacity:1;fill-rule:evenodd;stroke:none"
             id="path34" /></g><g
           id="g36"
           transform="translate(163.5207,373.691)"><path
             d="M 0,0 7.074,-1.681 6.719,-3.18 5.545,-2.902 c 0.373,-0.539 0.629,-1.01 0.772,-1.41 0.142,-0.4 0.161,-0.815 0.061,-1.241 C 6.227,-6.191 5.885,-6.688 5.354,-7.04 4.823,-7.392 4.259,-7.498 3.661,-7.356 l -5.119,1.216 0.356,1.5 4.687,-1.114 c 0.387,-0.091 0.731,-0.043 1.046,0.147 0.309,0.187 0.511,0.471 0.601,0.854 0.118,0.496 0.008,0.974 -0.327,1.434 -0.336,0.46 -0.803,0.76 -1.4,0.901 L -0.357,-1.5 Z M 4.174,2.076 C 4.783,1.955 5.358,2.082 5.902,2.459 6.444,2.832 6.777,3.34 6.903,3.976 7.033,4.632 6.917,5.24 6.553,5.805 6.188,6.367 5.692,6.711 5.058,6.837 4.453,6.956 3.879,6.82 3.33,6.433 2.785,6.044 2.446,5.526 2.319,4.883 2.195,4.257 2.319,3.663 2.69,3.102 3.063,2.539 3.556,2.198 4.174,2.076 M 5.406,8.302 C 6.386,8.108 7.178,7.551 7.786,6.627 8.393,5.704 8.599,4.739 8.4,3.737 8.197,2.704 7.644,1.878 6.742,1.255 5.84,0.632 4.89,0.419 3.889,0.617 2.881,0.816 2.072,1.37 1.454,2.278 0.837,3.186 0.625,4.132 0.822,5.126 1.031,6.184 1.591,7.032 2.503,7.662 3.415,8.292 4.384,8.505 5.406,8.302 M 9.263,11.713 9.11,10.18 1.874,10.898 2.027,12.431 Z m 2.413,0.197 c 0.318,-0.031 0.578,-0.175 0.785,-0.433 0.208,-0.26 0.296,-0.548 0.264,-0.873 -0.032,-0.318 -0.175,-0.581 -0.429,-0.79 -0.253,-0.209 -0.537,-0.299 -0.855,-0.267 -0.32,0.032 -0.584,0.176 -0.79,0.431 -0.206,0.254 -0.291,0.539 -0.26,0.858 0.032,0.325 0.173,0.589 0.424,0.805 0.254,0.211 0.541,0.302 0.861,0.269 m -3.023,1.97 -0.846,1.071 c 0.202,0.256 0.358,0.479 0.465,0.669 0.107,0.193 0.167,0.419 0.18,0.685 C 8.483,16.933 8.271,17.258 7.811,17.28 7.481,17.298 7.142,16.917 6.794,16.139 6.445,15.36 6.078,14.806 5.691,14.477 5.302,14.149 4.848,13.995 4.322,14.022 c -0.609,0.03 -1.132,0.307 -1.56,0.83 -0.433,0.524 -0.631,1.124 -0.598,1.8 0.051,1.031 0.567,1.851 1.546,2.465 L 4.23,17.878 C 3.801,17.473 3.574,17.042 3.552,16.579 3.536,16.263 3.609,15.981 3.771,15.735 c 0.16,-0.247 0.356,-0.378 0.587,-0.39 0.405,-0.02 0.792,0.382 1.161,1.202 0.365,0.823 0.725,1.387 1.071,1.69 0.35,0.306 0.766,0.447 1.252,0.422 0.605,-0.03 1.098,-0.284 1.475,-0.76 C 9.697,17.42 9.869,16.837 9.835,16.145 9.8,15.457 9.408,14.7 8.653,13.88 m 1.167,8.466 -0.017,-1.541 -7.271,0.08 0.016,1.541 z m 2.386,0.41 c 0.319,-0.003 0.591,-0.123 0.821,-0.362 0.228,-0.242 0.343,-0.52 0.34,-0.847 -0.004,-0.32 -0.125,-0.594 -0.358,-0.825 -0.235,-0.23 -0.509,-0.345 -0.829,-0.341 -0.322,0.003 -0.596,0.124 -0.826,0.36 -0.225,0.235 -0.336,0.511 -0.334,0.831 0.005,0.326 0.122,0.603 0.353,0.84 0.234,0.234 0.511,0.348 0.833,0.344 m 1.135,12.075 0.076,-1.624 -7.785,-3.898 8.115,-3.22 0.076,-1.618 -11.815,4.688 z M 10.826,48.952 11.145,47.445 5.919,46.333 C 6.484,46.017 6.913,45.704 7.205,45.389 7.497,45.075 7.699,44.657 7.81,44.139 7.938,43.533 7.818,42.957 7.449,42.418 7.079,41.879 6.573,41.541 5.926,41.403 L 0.96,40.345 0.639,41.853 5.202,42.824 c 0.451,0.096 0.787,0.288 1.01,0.574 0.225,0.286 0.296,0.616 0.216,0.987 -0.115,0.544 -0.42,0.966 -0.91,1.26 -0.494,0.296 -1.031,0.383 -1.614,0.259 L -0.043,45.063 -0.364,46.57 Z M 7.257,53.388 5.27,52.733 4.89,53.885 3.536,53.439 l 0.38,-1.153 -5.551,-1.831 0.483,-1.464 5.551,1.831 0.477,-1.446 1.354,0.446 -0.477,1.446 1.987,0.656 z m -3.61,3.951 0.596,-1.421 -6.707,-2.81 -0.595,1.421 z m 2.028,1.322 C 5.969,58.785 6.267,58.782 6.572,58.654 6.878,58.523 7.094,58.312 7.219,58.011 7.344,57.716 7.343,57.417 7.218,57.112 7.094,56.807 6.888,56.593 6.593,56.471 6.297,56.346 5.996,56.348 5.692,56.473 c -0.3,0.126 -0.512,0.336 -0.636,0.632 -0.126,0.3 -0.129,0.601 -0.009,0.909 0.122,0.307 0.331,0.523 0.628,0.647 m -4.969,5.857 -3.388,-3.988 5.002,0.091 0.598,-1.192 -8.283,-0.152 3.275,3.853 -4.985,-0.329 5.02,6.529 0.603,-1.202 -3.035,-3.953 z m -11.473,10.357 c 0.528,0.437 0.815,0.985 0.868,1.644 0.051,0.66 -0.148,1.26 -0.595,1.8 -0.41,0.496 -0.957,0.782 -1.636,0.854 -0.681,0.073 -1.261,-0.091 -1.742,-0.489 -0.523,-0.432 -0.817,-0.989 -0.887,-1.674 -0.069,-0.685 0.111,-1.285 0.537,-1.799 0.431,-0.522 0.984,-0.819 1.659,-0.884 0.674,-0.065 1.274,0.117 1.796,0.548 m 2.645,2.473 0.96,-1.16 -5.378,-4.45 c -0.793,-0.656 -1.694,-0.939 -2.701,-0.85 -1.006,0.089 -1.834,0.522 -2.477,1.3 -0.489,0.591 -0.779,1.266 -0.871,2.025 -0.091,0.76 0.093,1.524 0.551,2.296 l 1.018,-1.229 c -0.298,-0.867 -0.175,-1.628 0.366,-2.282 0.368,-0.445 0.842,-0.693 1.421,-0.741 0.578,-0.052 1.091,0.11 1.539,0.48 l 1.059,0.876 c -1.302,-0.112 -2.313,0.267 -3.036,1.14 -0.595,0.72 -0.817,1.591 -0.667,2.613 0.149,1.022 0.628,1.869 1.433,2.536 0.809,0.669 1.715,0.98 2.72,0.936 1.009,-0.044 1.808,-0.425 2.402,-1.143 0.768,-0.929 0.928,-2.036 0.48,-3.325 z m -15.901,5.246 1.181,-0.991 2.554,3.039 c 0.395,0.469 0.873,0.751 1.434,0.846 0.562,0.092 1.038,-0.024 1.428,-0.353 0.301,-0.252 0.465,-0.56 0.493,-0.921 0.029,-0.365 -0.083,-0.695 -0.339,-0.999 l -3.1,-3.689 1.18,-0.992 3.387,4.029 c 0.394,0.47 0.553,1.02 0.478,1.654 -0.077,0.632 -0.368,1.159 -0.871,1.581 -0.334,0.283 -0.714,0.452 -1.135,0.504 -0.422,0.052 -0.958,0.035 -1.606,-0.056 l 0.776,0.923 -1.181,0.992 z m 0.637,7.986 1.321,-0.792 -3.738,-6.237 -1.322,0.793 z m 0.851,2.267 c 0.164,0.274 0.405,0.449 0.727,0.525 0.324,0.076 0.622,0.034 0.902,-0.133 0.275,-0.166 0.451,-0.408 0.531,-0.726 0.081,-0.319 0.042,-0.613 -0.122,-0.888 -0.166,-0.275 -0.409,-0.453 -0.727,-0.531 -0.318,-0.076 -0.614,-0.032 -0.888,0.132 -0.28,0.167 -0.46,0.408 -0.547,0.727 -0.082,0.321 -0.041,0.617 0.124,0.894 m -12.001,-4.605 1.378,-0.693 1.785,3.545 c 0.275,0.548 0.675,0.933 1.2,1.154 0.525,0.22 1.016,0.216 1.471,-0.013 0.351,-0.176 0.582,-0.438 0.692,-0.782 0.112,-0.349 0.079,-0.696 -0.1,-1.051 l -2.166,-4.304 1.378,-0.693 2.366,4.701 c 0.276,0.548 0.302,1.12 0.084,1.719 -0.221,0.599 -0.626,1.045 -1.212,1.339 -0.391,0.197 -0.799,0.275 -1.221,0.228 -0.423,-0.046 -0.941,-0.187 -1.55,-0.425 l 0.542,1.077 -1.377,0.694 z m -1.682,8.312 -0.512,-1.409 c 0.528,0.453 0.992,0.748 1.39,0.892 0.402,0.139 0.849,0.121 1.34,-0.058 0.139,-0.05 0.326,-0.155 0.564,-0.316 l -0.95,-1.287 c -0.258,0.154 -0.433,0.25 -0.522,0.282 -0.491,0.178 -0.964,0.158 -1.421,-0.063 -0.455,-0.221 -0.774,-0.584 -0.959,-1.096 l -1.376,-3.794 -1.448,0.526 2.478,6.836 z m -6.68,-1.661 c 0.162,0.644 0.067,1.258 -0.285,1.832 -0.351,0.577 -0.853,0.949 -1.503,1.112 -0.637,0.159 -1.248,0.071 -1.835,-0.269 -0.587,-0.339 -0.959,-0.817 -1.113,-1.436 -0.168,-0.668 -0.078,-1.294 0.263,-1.88 0.343,-0.584 0.845,-0.959 1.504,-1.124 0.65,-0.163 1.269,-0.069 1.853,0.28 0.582,0.347 0.955,0.842 1.116,1.485 m 0.677,3.591 1.494,-0.375 -1.767,-7.053 -1.496,0.374 0.351,1.4 c -0.997,-0.879 -2.032,-1.183 -3.111,-0.913 -0.934,0.234 -1.644,0.8 -2.123,1.699 -0.48,0.895 -0.589,1.865 -0.327,2.908 0.248,0.989 0.798,1.769 1.653,2.34 0.852,0.57 1.731,0.743 2.63,0.518 0.558,-0.141 1.047,-0.423 1.472,-0.855 0.422,-0.428 0.71,-0.922 0.863,-1.478 z m -14.656,0.388 4.411,-0.778 c -0.318,1.07 -0.955,1.69 -1.91,1.858 -1.045,0.185 -1.878,-0.176 -2.501,-1.08 m 5.769,-2.263 -6.143,1.083 c 0.004,-0.764 0.211,-1.356 0.625,-1.781 0.416,-0.424 0.9,-0.686 1.46,-0.786 0.861,-0.151 1.647,0.077 2.352,0.686 l 0.96,-1.028 c -1.018,-0.923 -2.226,-1.259 -3.621,-1.014 -1.071,0.19 -1.901,0.712 -2.495,1.571 -0.59,0.855 -0.792,1.825 -0.601,2.909 0.18,1.016 0.7,1.827 1.561,2.445 0.861,0.615 1.816,0.831 2.87,0.646 1.035,-0.184 1.856,-0.716 2.461,-1.6 0.605,-0.886 0.795,-1.931 0.571,-3.131 m -13.169,9.848 1.534,-0.159 -0.994,-9.637 3.643,-0.376 -0.157,-1.526 -5.177,0.534 z m -8.082,0.762 -0.083,-1.549 c -0.435,0.312 -0.813,0.477 -1.137,0.494 -0.271,0.014 -0.491,-0.073 -0.655,-0.267 -0.164,-0.19 -0.255,-0.465 -0.274,-0.823 l -0.095,-1.82 2.027,-0.107 -0.074,-1.405 -2.028,0.107 -0.309,-5.857 -1.539,0.082 0.309,5.856 -1.34,0.07 0.074,1.407 1.341,-0.072 0.09,1.716 c 0.044,0.825 0.293,1.474 0.747,1.944 0.453,0.471 1.038,0.687 1.75,0.649 0.357,-0.019 0.752,-0.16 1.196,-0.425 m -8.093,-7.37 c 0.006,0.622 -0.223,1.163 -0.691,1.629 -0.467,0.465 -1.027,0.701 -1.677,0.709 -0.667,0.007 -1.243,-0.218 -1.733,-0.678 -0.486,-0.46 -0.734,-1.01 -0.741,-1.657 -0.008,-0.616 0.23,-1.158 0.711,-1.627 0.481,-0.465 1.054,-0.703 1.708,-0.712 0.638,-0.007 1.201,0.224 1.683,0.69 0.487,0.469 0.731,1.016 0.74,1.646 m -6.347,0.078 c 0.012,0.999 0.416,1.878 1.214,2.644 0.797,0.766 1.708,1.144 2.73,1.132 1.051,-0.014 1.965,-0.406 2.742,-1.179 0.778,-0.774 1.159,-1.668 1.147,-2.69 -0.012,-1.026 -0.41,-1.923 -1.19,-2.696 -0.78,-0.773 -1.672,-1.152 -2.685,-1.141 -1.079,0.013 -2.015,0.409 -2.801,1.191 -0.784,0.782 -1.17,1.695 -1.157,2.739 m -12.857,-3.984 -0.276,7.266 1.539,0.059 0.048,-1.205 c 0.418,0.504 0.803,0.877 1.15,1.121 0.349,0.246 0.743,0.375 1.179,0.391 0.657,0.026 1.227,-0.17 1.708,-0.586 0.482,-0.42 0.735,-0.934 0.758,-1.546 l 0.2,-5.259 -1.539,-0.059 -0.185,4.814 c -0.014,0.397 -0.154,0.717 -0.42,0.968 -0.265,0.249 -0.592,0.367 -0.985,0.351 -0.51,-0.019 -0.94,-0.253 -1.295,-0.7 -0.351,-0.446 -0.515,-0.977 -0.492,-1.589 l 0.151,-3.968 z m -3.081,3.496 c -0.042,0.621 -0.311,1.144 -0.815,1.571 -0.501,0.428 -1.077,0.619 -1.725,0.577 -0.667,-0.044 -1.224,-0.313 -1.676,-0.809 -0.45,-0.497 -0.654,-1.066 -0.611,-1.711 0.039,-0.615 0.319,-1.136 0.834,-1.566 0.517,-0.427 1.105,-0.62 1.759,-0.577 0.637,0.041 1.179,0.314 1.625,0.818 0.448,0.505 0.65,1.07 0.609,1.697 m -6.334,-0.413 c -0.065,0.996 0.269,1.904 1.005,2.73 0.736,0.826 1.615,1.272 2.635,1.339 1.049,0.069 1.991,-0.251 2.826,-0.962 0.834,-0.711 1.285,-1.573 1.351,-2.593 0.067,-1.024 -0.26,-1.949 -0.976,-2.78 -0.719,-0.831 -1.579,-1.279 -2.591,-1.345 -1.075,-0.071 -2.039,0.251 -2.883,0.97 -0.843,0.719 -1.298,1.599 -1.367,2.641 m -3.724,3.326 1.536,0.119 0.563,-7.249 -1.536,-0.12 z m -0.618,2.341 c -0.025,0.319 0.071,0.6 0.289,0.848 0.22,0.251 0.488,0.389 0.813,0.414 0.319,0.024 0.603,-0.071 0.852,-0.283 0.251,-0.213 0.389,-0.477 0.414,-0.795 0.025,-0.321 -0.071,-0.605 -0.285,-0.855 -0.214,-0.245 -0.481,-0.381 -0.8,-0.406 -0.325,-0.024 -0.611,0.068 -0.867,0.277 -0.253,0.212 -0.391,0.479 -0.416,0.8 m -1.157,-3.34 -0.945,-0.986 c -0.281,0.165 -0.523,0.289 -0.725,0.368 -0.205,0.081 -0.439,0.109 -0.705,0.085 -0.626,-0.055 -0.917,-0.311 -0.877,-0.768 0.029,-0.331 0.453,-0.613 1.27,-0.851 0.819,-0.238 1.419,-0.527 1.797,-0.865 0.38,-0.341 0.593,-0.769 0.639,-1.293 0.055,-0.608 -0.149,-1.163 -0.608,-1.659 -0.459,-0.5 -1.026,-0.78 -1.7,-0.84 -1.029,-0.092 -1.912,0.308 -2.654,1.194 l 1.156,0.684 c 0.46,-0.369 0.917,-0.534 1.378,-0.493 0.317,0.028 0.586,0.139 0.808,0.334 0.222,0.192 0.326,0.404 0.305,0.634 -0.036,0.404 -0.487,0.732 -1.35,0.985 -0.865,0.249 -1.472,0.528 -1.821,0.829 -0.351,0.305 -0.547,0.697 -0.589,1.183 -0.054,0.602 0.13,1.125 0.549,1.564 0.423,0.442 0.977,0.692 1.666,0.754 0.687,0.061 1.492,-0.224 2.406,-0.859 m -6.137,-0.573 -0.925,-1.006 c -0.285,0.161 -0.53,0.279 -0.734,0.354 -0.206,0.078 -0.44,0.101 -0.704,0.071 -0.625,-0.067 -0.912,-0.328 -0.864,-0.785 0.036,-0.328 0.464,-0.603 1.288,-0.826 0.823,-0.222 1.427,-0.498 1.813,-0.828 0.386,-0.334 0.607,-0.757 0.664,-1.281 0.067,-0.607 -0.125,-1.165 -0.575,-1.671 -0.449,-0.509 -1.01,-0.8 -1.684,-0.872 -1.026,-0.112 -1.916,0.269 -2.676,1.139 l 1.142,0.709 c 0.468,-0.36 0.928,-0.517 1.388,-0.467 0.316,0.034 0.583,0.15 0.801,0.351 0.219,0.195 0.317,0.409 0.292,0.638 -0.044,0.405 -0.501,0.724 -1.368,0.959 -0.87,0.233 -1.484,0.499 -1.838,0.793 -0.357,0.298 -0.56,0.686 -0.613,1.171 -0.065,0.602 0.109,1.128 0.52,1.575 0.413,0.45 0.962,0.712 1.65,0.786 0.685,0.075 1.496,-0.194 2.423,-0.81 m -8.337,-0.061 1.531,0.179 0.842,-7.223 -1.53,-0.179 z m -0.707,2.315 c -0.037,0.318 0.047,0.603 0.256,0.86 0.21,0.257 0.473,0.406 0.797,0.444 0.318,0.037 0.604,-0.047 0.863,-0.251 0.258,-0.202 0.406,-0.46 0.443,-0.778 0.037,-0.319 -0.046,-0.608 -0.252,-0.865 -0.204,-0.254 -0.465,-0.398 -0.783,-0.435 -0.324,-0.038 -0.613,0.043 -0.877,0.242 -0.261,0.202 -0.41,0.464 -0.447,0.783 m -4.635,1.518 4.594,-11.188 -1.481,-0.195 -2.816,6.859 -2.182,-7.956 -4.187,7.139 -0.933,-7.375 -1.49,-0.197 1.52,11.993 4.596,-7.833 z"
             style="fill:#ec008c;fill-opacity:1;fill-rule:evenodd;stroke:none"
             id="path38" /></g><g
           id="g40"
           transform="translate(83.9859,432.8036)"><path
             d="m 0,0 c 0.737,-1.437 1.306,-1.522 3.104,-1.976 1.759,-0.442 2.7,-0.286 4.038,-1 C 6.771,-4.859 6.567,-4.551 6.04,-5.982 l -2.986,-9.167 c -1.249,-3.835 2.265,-7.902 3.507,-11.49 -3.842,-2.896 -4.222,-0.898 -4.768,2.957 -0.362,2.564 -2.321,5.056 -2.555,7.331 -0.334,3.257 2.247,4.952 -0.4,8.837 -2.616,3.84 0.643,-1.468 -1.963,6.913 -0.709,-0.525 -0.249,-0.141 -0.868,-0.72 -2.029,-1.898 -1.636,-2.862 -1.788,-4.527 -6.546,-1.554 -3.916,-4.598 -4.331,-9.766 l -6.814,-4.359 c -1.444,0.477 -1.058,0.82 -2.569,1.549 0.574,-1.981 1.023,-1.428 0.264,-2.87 -2.255,0.061 -1.061,0.378 -3.006,1.641 l 0.871,-2.745 -1.746,-0.798 -1.156,3.04 c -1.081,-1.956 1.065,-2.564 -0.893,-3.632 -1.121,0.392 -0.296,0.115 -0.698,1.041 -0.401,0.448 0.141,0.922 -0.641,1.05 -2.345,-1.944 0.888,-2.914 -1.809,-4.911 -1.119,-0.83 -2.984,-0.939 -3.322,-2.494 1.24,-0.817 2.148,0.404 3.792,1.293 2.317,-2.648 1.13,-2.693 0.506,-6.516 -0.954,-5.834 1.151,-4.906 1.641,-4.926 0.603,-0.024 0.959,0.223 1.18,0.328 0.639,-3.938 -4.139,-12.107 -5.759,-14.773 -5.465,-8.989 -12.085,-18.405 -5.502,-30.871 2.118,-4.012 6.95,-9.918 9.621,-11.301 0.531,4.504 -0.768,6.152 0.43,10.696 -5.786,3.399 -7.03,11.195 -5.218,19.672 0.956,4.471 5.151,16.193 7.565,18.624 1.508,-2.892 1.679,-6.619 3.666,-10.025 2.008,-3.443 0.932,-1.62 -1.578,-9.352 -2.633,-8.108 -2.319,-15.366 -1.469,-24.232 l 6.365,-4.866 -0.668,8.869 c 1.282,-0.727 7.057,-5.538 7.535,-6.235 0.285,-2.168 -0.139,-4.437 -0.843,-6.299 -1.132,-2.996 -2.214,-1.882 -3.55,-3.037 8.329,-1.498 5.864,1.337 7.82,7.526 1.279,-0.61 1.766,-1.418 2.17,-3.296 0.441,-2.052 0.055,-3.05 -0.315,-4.659 4.531,0.565 3.771,10.533 4.336,15.303 0.735,6.214 0.857,12.663 0.715,19.017 -0.219,9.882 -3.746,27.107 2.403,33.339 2.469,-5.779 0.462,-10.919 -0.348,-16.773 -1.848,-13.352 -1.116,-40.196 -1.975,-44.816 -0.443,-2.383 -2.194,-5.472 -2.246,-6.828 4.913,-0.483 5.698,-0.135 10.133,0.302 3.429,0.338 6.652,-0.494 10.219,-0.028 4.234,0.552 4.604,1.323 9.726,0.731 2.695,-0.311 6.721,-1.097 8.847,-0.101 -0.33,1.479 -10.414,6.581 -13.336,8.561 -5.852,3.966 -7.227,16.862 -8.907,24.579 -1.248,5.734 -1.347,4.008 0.779,8.866 3.865,8.83 -3.022,10.339 -2.345,17.271 2.128,-2.826 1.391,-5.422 6.354,-4.615 -1.307,2.43 -2.688,-0.442 -1.171,6.895 4.27,-2.202 2.767,-6.833 2.569,-8.846 -0.61,-6.238 -2.702,-12.738 5.101,-11.349 0.488,0.086 1.118,0.332 1.37,0.411 0.136,0.043 0.504,0.173 0.643,0.21 2.49,0.676 1.473,-0.214 2.334,0.674 -2.414,1.25 -4.458,1.187 -7.248,1.249 0.142,1.297 0.171,1.328 0.52,2.473 0.392,1.286 0.211,0.203 0.511,2.088 0.858,5.388 3.143,9.344 1.086,12.585 -2.572,4.054 -6.176,8.22 -5.391,14.645 1.446,1.404 1.398,0.054 1.971,2.318 0.48,1.896 0.166,1.292 0.924,3.233 1.81,4.633 -3.052,9.009 -6.129,7.905 -2.637,-0.946 -1.523,-2.227 -5.353,-2.764 -0.218,-2.682 -0.929,-2.294 -1.639,-4.058 0.794,-0.831 1.878,-1.582 1.437,-2.763 -1.395,-0.14 -2.466,2.712 -3.125,3.938 -1.509,2.808 -1.111,2.499 -0.34,5.731 C 10.339,-4.061 12.421,1.541 3.2,-0.188 1.236,-0.556 1.83,-0.284 0,0 m -16.764,-21.282 c 1.103,0.886 4.917,3.217 6.127,3.464 -0.511,-1.603 -0.757,-3.19 -1.427,-4.983 -0.254,-0.681 -0.575,-1.452 -0.971,-2.129 l -1.49,-1.783 z m -5.272,-11.61 c -2.331,2.831 -0.668,4.059 -0.5,4.563 0.855,2.568 0.698,2.409 1.84,4.644 0.813,-0.675 1.499,-1.871 1.74,-3.034 0.97,-4.695 0.328,-0.954 1.376,-3.655 -1.358,-1.061 -2.162,-1.852 -4.456,-2.518 m 0.46,-5.241 c 2.027,0.774 4.52,2.392 6.685,2.515 1.944,-5.899 2.722,-13.553 -0.894,-18.273 -3.275,3.203 -5.478,9.979 -5.791,15.758"
             style="fill:#ec008c;fill-opacity:1;fill-rule:evenodd;stroke:none"
             id="path42" /></g><g
           id="g44"
           transform="translate(401.8639,286.5832)"><path
             d="m 0,0 c -0.24,-0.12 -0.53,-0.22 -0.85,-0.31 h -23.83 c -29.88,2.29 -30.26,22.19 -40.02,33.53 -8.2,-6.45 0.77,-22.31 3.35,-33.53 h -53.99 l -0.02,21.62 c 19,4.53 24.53,25.2 0,47.67 l -0.11,57.15 5.21,-0.01 0.96,-0.01 11.52,-0.03 3.69,-0.01 h 3.24 l 4.28,-0.01 3.4,-0.01 8.96,-0.03 h 1.59 l 2.62,-0.01 4.07,-0.01 h 2.63 l 2.06,-0.01 c -0.05,-0.22 -0.1,-0.44 -0.14,-0.66 -0.23,-1.06 -0.45,-2.09 -0.66,-3.1 -0.36,-1.75 -0.7,-3.43 -1.01,-5.06 -0.14,-0.75 -0.28,-1.49 -0.41,-2.21 -2.53,-14 -3.02,-24.21 -2.27,-42.6 16.36,15.7 17.53,46.01 35.71,55.15 23.72,-15.07 31.47,4.47 14.76,-17.57 -6.08,-8.02 -26.01,-48.87 -32.46,-60.72 2.85,-3.63 6,-7.34 9.34,-11.08 0.81,-0.9 1.63,-1.8 2.47,-2.7 C -24.54,23.06 -11.26,10.56 0,0"
             style="fill:#293389;fill-opacity:1;fill-rule:evenodd;stroke:none"
             id="path46" /></g><g
           id="g48"
           transform="translate(182.1338,325.6234)"><path
             d="m 0,0 c -2.31,-2.41 -4.1,-4.19 -5.38,-5.38 -1.29,-1.2 -2.47,-1.8 -3.55,-1.8 -1.67,0 -2.52,1.25 -2.52,3.76 0,2.38 0.94,6.77 2.85,13.18 l 3.67,12.75 h -2.33 l -8.49,-4.98 c -1.37,3.33 -3.79,4.98 -7.23,4.98 -2.72,0 -5.87,-1.21 -9.42,-3.65 -3.54,-2.42 -6.46,-5.6 -8.74,-9.53 -2.27,-3.93 -3.4,-8.06 -3.4,-12.41 0,-3.45 0.85,-6.38 2.54,-8.77 1.7,-2.38 3.76,-3.58 6.17,-3.58 2.48,0 4.88,0.99 7.21,2.96 2.33,1.96 4.87,5.01 7.62,9.14 -0.26,-8.06 1.8,-12.1 6.16,-12.1 1.74,0 3.54,0.67 5.45,2 1.86,1.28 4.92,4.06 9.19,8.28 -0.04,0.46 -0.06,0.93 -0.06,1.41 0,1.26 0.09,2.51 0.26,3.74 m -22.39,0.2 c -2.42,-4.92 -5.02,-7.38 -7.77,-7.38 -1.13,0 -2.06,0.48 -2.78,1.44 -0.73,0.98 -1.1,2.23 -1.1,3.8 0,4.12 1.23,8.64 3.7,13.55 2.45,4.9 5.06,7.36 7.81,7.36 1.16,0 2.08,-0.46 2.77,-1.36 0.69,-0.92 1.03,-2.18 1.03,-3.8 0,-4.15 -1.21,-8.69 -3.66,-13.61"
             style="fill:#00a650;fill-opacity:1;fill-rule:evenodd;stroke:none"
             id="path50" /></g><g
           id="g52"
           transform="translate(217.6239,318.4432)"><path
             d="m 0,0 c -0.7,0 -1.28,0.34 -1.72,1 -0.44,0.68 -0.66,1.57 -0.66,2.69 0,4.74 2.73,18.45 8.21,41.14 1.37,5.68 2.04,8.68 2.04,8.99 0,0.46 -0.26,0.69 -0.81,0.69 -1.68,0 -4.91,-0.56 -9.73,-1.68 L -8.58,26.75 c -0.96,1.07 -1.85,1.83 -2.66,2.28 -0.81,0.44 -1.94,0.66 -3.36,0.66 -5.15,0 -9.96,-2.76 -14.44,-8.27 -3.6,-4.45 -5.75,-9.19 -6.45,-14.24 -0.17,-1.23 -0.26,-2.48 -0.26,-3.74 0,-0.48 0.02,-0.95 0.06,-1.41 0.24,-2.54 1.11,-4.8 2.62,-6.78 1.79,-2.33 3.85,-3.5 6.19,-3.5 2.15,0 4.56,1.01 7.21,3 2.66,2 5.11,4.92 7.37,8.76 0.03,-3.84 0.62,-6.76 1.76,-8.76 1.15,-1.99 2.7,-3 4.64,-3 1.61,0 3.45,0.73 5.52,2.19 2.01,1.4 4.89,4.04 8.65,7.92 0,1.72 0.05,3.41 0.15,5.08 C 4.53,2.31 1.73,0 0,0 M -13.61,7.24 C -15.96,2.4 -18.47,0 -21.16,0 c -1.22,0 -2.18,0.45 -2.87,1.39 -0.7,0.93 -1.05,2.2 -1.05,3.79 0,4.06 1.2,8.63 3.58,13.67 2.4,5.04 4.88,7.56 7.43,7.56 1.19,0 2.13,-0.5 2.87,-1.52 0.73,-1.02 1.1,-2.39 1.1,-4.11 0,-4.21 -1.17,-8.73 -3.51,-13.54"
             style="fill:#2c3687;fill-opacity:1;fill-rule:evenodd;stroke:none"
             id="path54" /></g><g
           id="g56"
           transform="translate(266.6139,323.8934)"><path
             d="m 0,0 c 0,0.53 0.02,1.06 0.05,1.58 -4.63,-5.4 -7.81,-8.1 -9.55,-8.1 -0.49,0 -0.93,0.25 -1.29,0.76 -0.37,0.5 -0.55,1.06 -0.55,1.71 0,1.42 0.98,4.83 2.99,10.27 2,5.45 2.99,9.47 2.99,12.07 0,1.74 -0.44,3.13 -1.3,4.19 -0.87,1.05 -2.02,1.58 -3.43,1.58 -1.28,0 -2.52,-0.29 -3.75,-0.87 -1.21,-0.57 -3.67,-1.96 -7.35,-4.18 3.82,5.26 6.64,9.77 8.43,13.48 1.8,3.72 2.69,7.12 2.69,10.19 0,1.82 -0.26,3.34 -0.75,4.56 -0.5,1.22 -1.1,1.82 -1.81,1.82 -0.39,0 -1.92,-0.49 -4.61,-1.45 -2.68,-0.97 -5.81,-2.21 -9.43,-3.75 -4.85,-8.32 -8.41,-16.19 -10.66,-23.62 -1.79,-5.88 -2.87,-12.13 -3.24,-18.75 -0.1,-1.67 -0.15,-3.36 -0.15,-5.08 v -0.22 c 0,-3.56 0.18,-6.86 0.54,-9.89 l 9.2,2.25 c 0,7.44 0.48,13.81 1.45,19.12 2.31,2.7 4.51,4.84 6.6,6.42 2.1,1.57 3.7,2.35 4.8,2.35 1.07,0 1.61,-0.59 1.61,-1.77 0,-1.04 -0.68,-3.25 -2.02,-6.65 -2.54,-6.29 -3.81,-11.17 -3.81,-14.63 0,-2.03 0.61,-3.73 1.83,-5.08 1.23,-1.34 2.78,-2.01 4.66,-2.01 4.22,0 9.58,3.52 16.11,10.55 v 0.06 C 0.08,-2.11 0,-1.08 0,0 m -28.37,14.68 c 1.77,8.04 4.07,14.91 6.9,20.61 2.8,5.69 4.96,8.54 6.47,8.54 0.92,0 1.37,-0.87 1.37,-2.6 0,-5.7 -4.91,-14.55 -14.74,-26.55"
             style="fill:#1993d2;fill-opacity:1;fill-rule:evenodd;stroke:none"
             id="path58" /></g><g
           id="g60"
           transform="translate(290.3138,318.9132)"><path
             d="m 0,0 c -1.65,-1.02 -3.38,-1.54 -5.19,-1.54 -4.64,0 -7.52,2.84 -8.62,8.51 12.09,3.73 18.13,8.57 18.13,14.54 0,2.26 -0.77,4.08 -2.31,5.45 -1.54,1.39 -3.6,2.08 -6.15,2.08 -4.94,0 -9.43,-2.48 -13.48,-7.43 -3.7,-4.53 -5.71,-9.54 -6.03,-15.05 -0.03,-0.52 -0.05,-1.05 -0.05,-1.58 0,-1.08 0.08,-2.11 0.25,-3.09 0.45,-2.7 1.52,-4.98 3.21,-6.84 2.3,-2.51 5.32,-3.77 9.06,-3.77 3.35,0 6.43,0.86 9.21,2.57 2.79,1.72 5.92,4.38 9.42,7.98 V 6.79 C 4.14,3.28 1.64,1.02 0,0 m -11.68,21.17 c 1.65,2.88 3.37,4.33 5.18,4.33 1.9,0 2.86,-1.38 2.86,-4.14 0,-5.57 -3.5,-9.39 -10.49,-11.46 0,4.62 0.82,8.37 2.45,11.27"
             style="fill:#a54786;fill-opacity:1;fill-rule:evenodd;stroke:none"
             id="path62" /></g><g
           id="g64"
           transform="translate(402.8838,330.0134)"><path
             d="m 0,0 c -0.31,-2.09 -0.47,-4.01 -0.48,-5.74 -7.4,-7.11 -13.12,-10.67 -17.17,-10.67 -1.86,0 -3.44,0.79 -4.72,2.37 -1.28,1.57 -1.92,3.53 -1.92,5.86 0,4.33 2.3,10.12 6.9,17.37 -2.25,-1.16 -4.71,-1.97 -7.38,-2.43 -1.73,-3.23 -7.82,-10.19 -12.16,-14.75 -0.84,0.9 -1.66,1.8 -2.47,2.7 2.56,2.86 7.81,10.19 9.64,12.94 -2.61,1.16 -2.87,2.27 -2.87,4.56 0,2.34 0.79,4.85 2.39,7.5 1.61,2.67 3.81,4 6.61,4 2.37,0 3.56,-1.22 3.56,-3.65 0,-1.92 -0.69,-4.65 -2.06,-8.21 5.06,0.55 9.49,4.44 13.27,11.68 l 4.16,0.18 -4.23,-11.77 c -1.77,-4.96 -2.91,-8.33 -3.43,-10.12 -0.51,-1.81 -0.78,-3.39 -0.78,-4.78 0,-1.28 0.3,-2.3 0.89,-3.07 0.6,-0.77 1.39,-1.15 2.41,-1.15 1.09,0 2.14,0.38 3.16,1.12 0.99,0.72 3.22,2.74 6.68,6.06"
             style="fill:#00a650;fill-opacity:1;fill-rule:evenodd;stroke:none"
             id="path66" /></g><g
           id="g68"
           transform="translate(424.4338,371.7133)"><path
             d="m 0,0 c 0,-7.34 -2.7,-11.02 -8.09,-11.02 -2.63,0 -4.86,0.8 -6.72,2.39 1.76,2.7 3.14,5.73 4.12,9.1 2.41,-1.5 4.35,-2.26 5.8,-2.26 1.64,0 3.28,0.6 4.89,1.79"
             style="fill:#293389;fill-opacity:1;fill-rule:evenodd;stroke:none"
             id="path70" /></g><g
           id="g72"
           transform="translate(425.3738,324.8133)"><path
             d="m 0,0 c -7.14,-7.47 -12.47,-11.21 -16.02,-11.21 -1.95,0 -3.59,1.01 -4.93,3.02 -1.35,2.01 -2.02,4.52 -2.02,7.55 v 0.1 c 0.01,1.73 0.17,3.65 0.48,5.74 0.86,5.76 2.89,12.85 6.08,21.28 l 11.64,2.43 h 0.55 L -8.8,14.54 C -10.69,8.59 -11.63,4.35 -11.63,1.8 c 0,-1.02 0.22,-1.83 0.66,-2.46 0.45,-0.63 1,-0.94 1.67,-0.94 1.2,0 2.39,0.42 3.59,1.29 1.04,0.74 2.58,2.22 4.65,4.42 z"
             style="fill:#293389;fill-opacity:1;fill-rule:evenodd;stroke:none"
             id="path74" /></g><g
           id="g76"
           transform="translate(492.0641,321.2334)"><path
             d="m 0,0 c -0.55,0 -1.03,0.27 -1.44,0.8 -0.4,0.53 -0.61,1.13 -0.61,1.82 0,1.51 1.1,5.13 3.32,10.91 2.21,5.79 3.31,10.06 3.31,12.83 0,1.85 -0.49,3.32 -1.44,4.45 -0.97,1.12 -2.23,1.68 -3.8,1.68 -1.42,0 -2.79,-0.31 -4.15,-0.92 -1.34,-0.61 -4.06,-2.09 -8.14,-4.44 4.23,5.58 7.36,10.37 9.34,14.31 1.99,3.96 2.97,7.57 2.97,10.83 0,1.93 -0.28,3.55 -0.83,4.85 -0.54,1.29 -1.22,1.93 -2,1.93 -0.44,0 -2.12,-0.51 -5.11,-1.53 -2.96,-1.04 -6.43,-2.36 -10.43,-3.99 -5.37,-8.84 -9.31,-17.21 -11.81,-25.1 -2.5,-7.9 -3.75,-16.41 -3.75,-25.56 0,-3.78 0.2,-7.28 0.59,-10.5 l 10.19,2.39 c 0,7.91 0.53,14.67 1.61,20.31 2.56,2.87 5,5.15 7.31,6.83 2.33,1.66 4.09,2.49 5.31,2.49 1.19,0 1.78,-0.62 1.78,-1.88 0,-1.1 -0.75,-3.45 -2.23,-7.06 -2.81,-6.69 -4.22,-11.87 -4.22,-15.54 0,-2.17 0.67,-3.97 2.03,-5.4 1.36,-1.43 3.08,-2.14 5.16,-2.14 4.57,0 10.36,3.59 17.39,10.76 0.04,1.94 0.18,3.83 0.41,5.69 C 5.54,2.94 1.95,0 0,0 m -20.9,22.53 c 1.97,8.54 4.51,15.83 7.64,21.89 3.11,6.05 5.5,9.08 7.17,9.08 1.01,0 1.51,-0.93 1.51,-2.77 0,-6.06 -5.43,-15.46 -16.32,-28.2"
             style="fill:#a54786;fill-opacity:1;fill-rule:evenodd;stroke:none"
             id="path78" /></g><g
           id="g80"
           transform="translate(547.1938,326.7232)"><path
             d="m 0,0 c 0,-0.81 0.05,-1.59 0.14,-2.35 -6.86,-7.18 -12.77,-10.77 -17.7,-10.77 -2.03,0 -3.69,0.72 -4.94,2.17 -1.25,1.44 -1.87,3.39 -1.87,5.81 0,3.29 1.34,8.33 4.03,15.13 1.44,3.66 2.16,5.98 2.16,6.97 0,0.99 -0.39,1.47 -1.16,1.47 -0.42,0 -0.98,-0.22 -1.69,-0.64 -0.64,-0.44 -1.39,-1.04 -2.25,-1.81 -0.76,-0.7 -1.61,-1.57 -2.56,-2.57 -0.81,-0.86 -1.7,-1.85 -2.65,-2.95 l -2.57,-3 c -1.12,-1.4 -1.82,-2.86 -2.1,-4.39 -0.46,-2.61 -0.76,-5.01 -0.91,-7.19 -0.1,-1.64 -0.14,-3.83 -0.14,-6.6 l -10.09,-2.4 c -0.33,4.15 -0.5,7.22 -0.5,9.25 0,0.51 0.01,1.01 0.02,1.51 0.04,1.94 0.18,3.83 0.41,5.69 0.28,2.34 0.71,4.6 1.28,6.81 1.14,4.42 2.97,9.38 5.5,14.89 l 11.16,2.16 c -2.35,-6.28 -3.89,-11.25 -4.63,-14.89 5,5.6 8.99,9.49 11.92,11.64 2.96,2.17 5.56,3.25 7.86,3.25 1.55,0 2.84,-0.59 3.89,-1.77 1.03,-1.18 1.55,-2.65 1.55,-4.43 0,-2.93 -1.32,-7.8 -3.96,-14.6 -1.81,-4.66 -2.71,-7.69 -2.71,-9.09 0,-1.86 0.75,-2.79 2.25,-2.79 2.17,0 5.65,2.8 10.43,8.39 C 0.06,1.94 0,0.97 0,0"
             style="fill:#ca6d39;fill-opacity:1;fill-rule:evenodd;stroke:none"
             id="path82" /></g><g
           id="g84"
           transform="translate(590.5438,324.2832)"><path
             d="m 0,0 c -1.42,-1.28 -2.73,-1.92 -3.92,-1.92 -1.86,0 -2.8,1.33 -2.8,4 0,2.53 1.05,7.19 3.16,14.01 L 0.5,29.63 h -2.58 l -9.4,-5.29 c -1.52,3.53 -4.19,5.29 -8,5.29 -3.02,0 -6.5,-1.28 -10.44,-3.88 -3.92,-2.57 -7.15,-5.94 -9.67,-10.12 -1.98,-3.29 -3.18,-6.72 -3.59,-10.29 -0.11,-0.96 -0.17,-1.93 -0.17,-2.9 0,-0.81 0.05,-1.59 0.14,-2.35 0.32,-2.67 1.21,-4.99 2.67,-6.97 1.88,-2.53 4.16,-3.8 6.83,-3.8 2.75,0 5.4,1.05 7.98,3.14 2.58,2.09 5.39,5.32 8.44,9.72 -0.29,-8.57 2,-12.86 6.82,-12.86 1.92,0 3.92,0.71 6.03,2.12 2.11,1.4 5.61,4.44 10.48,9.09 V 5.8 C 3.45,3.2 1.44,1.27 0,0 m -18.82,5.93 c -2.69,-5.23 -5.57,-7.85 -8.61,-7.85 -1.25,0 -2.28,0.52 -3.08,1.54 -0.81,1.04 -1.22,2.37 -1.22,4.03 0,4.38 1.36,9.19 4.09,14.4 2.72,5.21 5.61,7.81 8.66,7.81 1.28,0 2.3,-0.48 3.06,-1.44 0.77,-0.97 1.14,-2.31 1.14,-4.03 0,-4.41 -1.34,-9.23 -4.04,-14.46"
             style="fill:#485e88;fill-opacity:1;fill-rule:evenodd;stroke:none"
             id="path86" /></g><g
           id="g88"
           transform="translate(454.5338,333.6834)"><path
             d="m 0,0 c 0,-4.68 -2.23,-9.2 -6.72,-13.55 -4.46,-4.35 -9.1,-6.53 -13.9,-6.53 -2.08,0 -3.97,0.55 -5.69,1.65 -1.7,1.1 -2.56,2.28 -2.56,3.53 0,0.74 0.85,2.14 2.55,4.18 1.69,2.05 2.9,3.07 3.64,3.07 0.97,0 1.84,-1.25 2.61,-3.76 0.76,-2.52 2.07,-3.77 3.93,-3.77 1.88,0 3.63,0.86 5.25,2.61 1.64,1.74 2.46,3.61 2.46,5.61 0.03,1.94 -1,4.51 -3.08,7.71 -2.1,3.22 -3.47,5.9 -4.14,8.09 -3.55,-5.73 -8.08,-11.7 -13.51,-17.71 l -1.06,4.11 -0.01,0.03 c 7.49,7.99 12.56,15.68 15.16,22.89 2.11,0.55 4.23,1 6.37,1.35 2.12,0.36 3.41,0.53 3.84,0.53 0.3,0 0.46,-0.12 0.46,-0.36 0,-0.47 -0.13,-0.94 -0.38,-1.43 -0.5,-1.41 -0.75,-2.76 -0.75,-4.03 0.03,-1.6 0.95,-3.77 2.78,-6.53 C -0.92,4.93 0,2.37 0,0"
             style="fill:#0095da;fill-opacity:1;fill-rule:evenodd;stroke:none"
             id="path90" /></g><g
           id="g92"
           transform="translate(360.4417,441.743)"><path
             d="m 0,0 -0.095,-2.707 c 0.198,0.13 0.389,0.26 0.581,0.397 l 0.054,0.034 0.199,0.144 0.068,2.734 C 0.609,0.445 0.404,0.294 0.199,0.144 0.131,0.096 0.062,0.048 0,0 M 0.096,2.912 C 0.363,3.097 0.623,3.281 0.875,3.466 L 2.256,60.192 C 2.195,60.336 2.133,60.473 2.072,60.609 Z M 2.12,62.038 c 0.054,-0.123 0.116,-0.246 0.17,-0.376 l 0.082,3.459 C 2.325,65.23 2.284,65.333 2.236,65.442 Z M 2.68,78.518 2.284,66.782 2.372,66.577 2.407,66.495 2.687,77.848 2.68,78.047 Z m 0.007,0.383 c 0,-0.13 0,-0.26 -0.007,-0.383 l 0.068,1.934 C 2.721,79.912 2.7,79.393 2.687,78.901 M 0.486,-2.31 0.54,-2.276 0.739,-2.132 0.807,0.602 C 0.609,0.445 0.404,0.294 0.199,0.144 0.131,0.096 0.062,0.048 0,0 l -0.095,-2.707 c 0.198,0.13 0.389,0.26 0.581,0.397 M 2.12,62.038 c -2.496,5.352 -4.416,9.74 -4.423,12.345 -0.089,-3.261 1.886,-8.018 4.375,-13.774 z m 0.164,4.744 -0.062,0.136 v 0.008 l -0.287,0.683 c -0.041,0.109 -0.089,0.226 -0.137,0.335 l -0.13,0.335 C 1.627,68.388 1.586,68.504 1.538,68.614 1.497,68.723 1.456,68.832 1.422,68.935 1.34,69.154 1.265,69.372 1.19,69.577 v 0.007 C 1.156,69.687 1.122,69.789 1.087,69.898 1.053,70.001 1.019,70.104 0.992,70.206 0.923,70.411 0.862,70.616 0.807,70.815 0.78,70.91 0.752,71.013 0.732,71.109 0.705,71.204 0.677,71.3 0.657,71.395 0.609,71.587 0.568,71.778 0.534,71.963 0.5,72.141 0.465,72.325 0.438,72.496 0.411,72.674 0.39,72.845 0.377,73.009 0.37,73.091 0.363,73.173 0.356,73.255 l -0.349,0.683 c 0.028,-2.597 0.909,-5.427 2.229,-8.496 z m 11.77,-3.944 C 23.015,50.814 29.878,37.752 23.849,20.417 22.626,16.904 18.818,9.125 16.385,6.309 16.323,6.234 16.221,6.138 16.159,6.07 16.091,6.002 15.982,5.913 15.92,5.851 12.037,2.058 8.265,-3.643 -2.098,-10.383 c -3.042,-1.982 -5.953,-3.684 -8.941,-5.249 -6.138,-3.199 -15.83,-7.888 -21.538,-13.418 -0.246,-0.233 -0.478,-0.472 -0.704,-0.704 -0.629,-0.657 -1.196,-1.326 -1.695,-2.003 -0.082,-0.109 -0.164,-0.226 -0.239,-0.342 -0.082,-0.116 -0.158,-0.226 -0.233,-0.341 -0.13,-0.185 -0.246,-0.37 -0.355,-0.561 -0.089,-0.157 -0.185,-0.321 -0.267,-0.479 0.677,0.547 1.333,1.128 1.996,1.709 1.025,0.903 2.064,1.839 3.117,2.707 0.096,0.082 0.192,0.164 0.287,0.239 2.071,1.675 3.739,2.618 6.344,4.163 11.052,6.569 25.851,11.689 34.45,23.097 0.403,0.533 0.622,0.895 1.196,1.531 1.162,1.292 0.137,0.547 1.586,1.354 -0.903,-2.338 -2.755,-5.407 -4.238,-6.911 -0.041,-0.021 -0.13,0.082 -0.143,0.034 -0.411,-1.804 0.123,0.28 -0.691,0.02 C 7.8,-5.543 7.67,-5.584 7.629,-5.605 L 3.494,-9.563 c -5.92,-5.215 -14.116,-9.166 -21.005,-12.857 -3.35,-1.797 -7.636,-4.32 -10.808,-6.644 -0.136,-0.102 -0.273,-0.198 -0.403,-0.294 -0.239,-0.184 -0.478,-0.362 -0.704,-0.54 -0.355,-0.28 -0.697,-0.56 -1.004,-0.827 0,0 0,0.007 -0.007,0 -0.199,-0.171 -0.397,-0.348 -0.588,-0.533 -2.14,-1.996 -3.589,-3.363 -5.441,-5.509 -0.902,-1.046 -3.937,-5.059 -4.382,-6.378 0.486,1.258 5.12,6.754 7.622,8.326 0.69,0.43 1.271,0.82 1.791,1.176 0.259,0.17 0.505,0.341 0.745,0.512 1.688,1.169 2.98,2.133 5.68,3.609 0.273,0.144 0.554,0.294 0.854,0.451 0.322,0.164 0.657,0.335 1.019,0.52 1.23,0.629 2.399,1.128 3.787,1.681 0.451,0.171 1.715,0.773 1.968,0.868 3.514,1.251 1.948,0.24 2.632,-0.328 -4.662,-0.902 -12.265,-5.837 -15.742,-8.599 -0.116,-0.095 -0.232,-0.191 -0.342,-0.28 -0.219,-0.177 -0.41,-0.342 -0.588,-0.499 0.889,0.424 1.497,0.978 2.447,1.559 0.322,0.198 0.663,0.396 1.033,0.594 0.177,0.103 0.369,0.205 0.56,0.301 0.389,0.205 0.8,0.41 1.223,0.622 0.821,0.396 1.703,0.793 2.625,1.203 0.281,0.123 0.568,0.246 0.862,0.369 0.382,0.164 0.779,0.328 1.175,0.499 0.677,0.28 1.374,0.561 2.072,0.841 4.654,1.866 9.576,3.643 12.611,4.956 5.092,2.194 12.174,6.527 15.516,10.916 1.333,1.736 2.228,3.821 3.712,5.502 -1.648,-8.277 -12.529,-15.619 -20.069,-18.852 -4.094,-1.75 -8.558,-3.609 -12.413,-5.55 -0.383,-0.192 -0.813,-0.417 -1.183,-0.609 -2.16,-1.134 -4.347,-2.194 -6.179,-3.349 -2.474,-1.558 -5.659,-3.923 -7.437,-6.234 -0.683,-0.779 -0.977,-1.155 -1.654,-2.002 -0.841,-1.067 -2.283,-3.069 -2.823,-4.587 3.575,2.563 4.491,6.89 16.788,11.135 0.485,0.164 0.998,0.328 1.456,0.472 3.274,0.997 6.077,1.421 9.829,2.577 3.411,1.045 7.601,2.897 11.183,3.602 l -0.65,-0.711 c -3.028,-2.557 -11.887,-3.999 -20.759,-7.615 -0.034,-0.013 -0.075,-0.027 -0.109,-0.048 -0.308,-0.129 -0.615,-0.259 -0.923,-0.389 -0.615,-0.26 -1.23,-0.533 -1.839,-0.82 -0.307,-0.144 -0.608,-0.288 -0.915,-0.438 -0.301,-0.15 -0.602,-0.301 -0.903,-0.458 -0.246,-0.123 -0.485,-0.253 -0.724,-0.376 -0.656,-0.355 -1.306,-0.725 -1.949,-1.114 -0.246,-0.151 -0.492,-0.301 -0.738,-0.458 -1.572,-0.998 -3.082,-2.112 -4.49,-3.356 -0.24,-0.212 -0.479,-0.424 -0.711,-0.65 -0.007,-0.006 -0.014,-0.013 -0.021,-0.02 -0.26,-0.239 -0.512,-0.485 -0.752,-0.745 -0.054,-0.048 -0.102,-0.096 -0.15,-0.15 -0.212,-0.212 -0.417,-0.431 -0.615,-0.65 -0.055,-0.061 -0.11,-0.123 -0.158,-0.178 -0.232,-0.252 -0.451,-0.505 -0.663,-0.772 -0.28,-0.328 -0.547,-0.67 -0.806,-1.012 -0.096,-0.123 -0.185,-0.239 -0.267,-0.362 -0.123,-0.164 -0.239,-0.328 -0.355,-0.499 -0.103,-0.143 -0.205,-0.294 -0.301,-0.444 -0.116,-0.171 -0.225,-0.349 -0.335,-0.52 -0.096,-0.143 -0.184,-0.287 -0.266,-0.43 -0.233,-0.383 -0.458,-0.779 -0.67,-1.183 -0.171,-0.301 -0.328,-0.608 -0.472,-0.923 -0.034,-0.068 -0.068,-0.136 -0.096,-0.205 -0.082,-0.15 -0.15,-0.307 -0.218,-0.465 -0.082,-0.184 -0.164,-0.376 -0.247,-0.567 -0.088,-0.191 -0.163,-0.39 -0.239,-0.588 -0.082,-0.198 -0.164,-0.403 -0.232,-0.608 -0.062,-0.144 -0.109,-0.287 -0.157,-0.431 -0.123,-0.348 -0.24,-0.704 -0.349,-1.066 -0.082,-0.26 -0.157,-0.526 -0.232,-0.8 -0.212,-0.765 -0.397,-1.558 -0.547,-2.378 -0.027,-0.13 -0.055,-0.267 -0.075,-0.397 -0.069,-0.389 -0.13,-0.786 -0.185,-1.189 -0.048,-0.342 -0.089,-0.677 -0.123,-1.026 -0.014,-0.095 -0.02,-0.198 -0.027,-0.3 -0.048,-0.39 -0.076,-0.786 -0.103,-1.19 0,-0.041 -0.007,-0.082 -0.007,-0.13 -0.027,-0.464 -0.047,-0.929 -0.061,-1.408 0.369,-0.847 0.711,-1.674 1.046,-2.474 0.006,0 0.006,0 0.006,-0.007 10.185,-24.812 2.857,-26.528 15.995,-44.238 -10.642,4.771 -19.392,53.247 -32.201,70.288 -0.164,0.232 -0.335,0.458 -0.52,0.677 -0.116,0.15 -0.232,0.3 -0.355,0.444 -0.096,0.109 -0.185,0.225 -0.28,0.335 -1.039,1.237 -2.482,2.932 -3.924,4.914 -0.048,0.069 -0.103,0.144 -0.157,0.212 -0.164,0.233 -0.335,0.465 -0.499,0.704 -0.383,0.547 -0.759,1.108 -1.114,1.668 -0.39,0.622 -0.766,1.258 -1.121,1.907 -0.116,0.212 -0.233,0.424 -0.342,0.636 -0.185,0.362 -0.362,0.724 -0.527,1.094 -0.081,0.17 -0.157,0.341 -0.232,0.512 -0.465,1.039 -0.84,2.105 -1.114,3.185 -0.635,2.482 -0.69,5.024 0.226,7.451 -0.035,-2.789 0.177,-5.222 0.738,-7.457 0.335,-1.354 0.799,-2.639 1.408,-3.883 0.219,-0.451 0.506,-0.943 0.854,-1.47 0.076,-0.116 0.151,-0.232 0.233,-0.348 0.13,-0.184 0.26,-0.376 0.396,-0.567 0.909,-1.272 2.071,-2.693 3.356,-4.184 0.103,-0.123 0.212,-0.246 0.322,-0.376 0.506,-0.587 1.025,-1.182 1.551,-1.784 0.123,-0.136 0.247,-0.28 0.37,-0.417 0.622,-0.704 1.25,-1.401 1.872,-2.105 0.212,-0.232 0.417,-0.471 0.629,-0.704 1.77,-1.996 3.479,-3.944 4.833,-5.653 0.089,-0.116 0.184,-0.232 0.273,-0.355 0.28,-0.356 0.533,-0.69 0.766,-1.019 0.082,-0.109 0.157,-0.218 0.232,-0.321 0.075,-0.109 0.151,-0.212 0.219,-0.314 0.383,-0.575 0.704,-1.101 0.93,-1.573 0.04,-0.068 0.068,-0.136 0.102,-0.205 0.021,-0.054 0.041,-0.102 0.061,-0.15 0.035,-0.082 0.062,-0.157 0.089,-0.232 0.014,-0.048 0.028,-0.089 0.041,-0.123 0.035,-0.103 0.062,-0.206 0.082,-0.301 0,-0.014 0,-0.021 0.007,-0.034 0.021,-0.117 0.034,-0.219 0.034,-0.315 0,0.041 -0.006,0.089 -0.006,0.137 -0.082,3.37 -4.156,8.674 -6.296,11.025 -1.107,1.224 -2.187,1.73 -3.028,3.432 2.03,-1.203 4.573,-4.279 6.159,-6.241 l 4.682,-8.148 c 0.581,4.553 0.991,5.045 -0.212,10.007 -1.387,5.735 -4.381,10.445 -7.69,15.052 l -0.82,1.141 c -5.174,7.212 -9.111,13.172 -9.303,23.377 -0.137,7.314 2.502,12.892 3.896,19.064 0.055,-8.954 -6.623,-17.683 1.45,-31.982 2.72,-4.819 4.989,-7.137 7.6,-10.418 0.335,-0.423 0.684,-0.868 1.032,-1.333 0.158,-0.205 0.315,-0.417 0.472,-0.635 1.62,-2.208 3.404,-4.963 5.516,-8.975 0.096,-0.178 0.192,-0.362 0.287,-0.554 0.199,-0.376 0.397,-0.758 0.595,-1.155 0,0.232 -0.007,0.458 -0.013,0.684 0,0.164 -0.014,0.334 -0.021,0.499 -0.027,0.464 -0.075,0.915 -0.144,1.36 -0.02,0.143 -0.041,0.287 -0.068,0.431 -0.027,0.205 -0.061,0.41 -0.109,0.615 -0.035,0.171 -0.069,0.348 -0.117,0.519 0,0.021 0,0.034 -0.006,0.048 -0.048,0.178 -0.096,0.356 -0.144,0.533 -0.089,0.363 -0.198,0.711 -0.321,1.06 -0.062,0.177 -0.123,0.348 -0.185,0.519 -0.389,1.032 -0.854,2.023 -1.38,2.98 -0.178,0.322 -0.363,0.636 -0.547,0.95 -0.096,0.157 -0.192,0.315 -0.287,0.472 -0.185,0.314 -0.39,0.622 -0.595,0.93 -0.103,0.15 -0.205,0.307 -0.308,0.458 -4.422,6.541 -10.642,12.522 -10.143,23.944 1.756,-6.227 1.517,-10.069 6.438,-15.366 2.126,-2.29 3.555,-3.513 5.483,-5.496 0.628,-0.649 1.497,-1.702 2.132,-2.556 0.114,-0.161 0.229,-0.317 0.342,-0.479 0.996,-1.693 0.317,-2.61 3.318,-2.875 0.15,1.155 0.059,2.205 -0.024,3.32 -1.038,13.274 -17.655,24.245 -17.703,36.104 1.935,-6.466 5.461,-12.399 9.85,-17.348 3.568,-4.026 8.626,-11.354 9.856,-17.417 1.511,13.336 -17.758,29.324 -19.186,45.791 1.544,-7.464 4.975,-14.081 9.063,-20.383 2.864,-4.409 9.365,-13.343 10.704,-18.695 -1.093,12.775 -16.487,27.861 -18.352,38.613 l 4.545,-7.977 c 4.21,-7.628 10.697,-14.737 13.527,-23.295 1.189,3.179 -14.504,25.455 -17.198,32.557 -0.827,2.174 -1.476,4.491 -1.873,6.931 -0.28,1.743 -0.765,4.231 -0.403,6.07 0.465,2.378 -0.007,1.046 1.073,2.242 -0.28,-18.449 11.552,-26.665 18.873,-40.718 0.977,-1.873 1.838,-4.566 2.666,-5.899 -0.664,15.434 -20.172,22.037 -19.058,45.291 0.069,1.415 0.213,2.748 0.486,3.91 l 0.888,2.795 c 0.52,1.067 -0.027,0.294 0.595,0.957 l 0.567,-1.203 1.702,0.28 c -3.028,-9.227 -0.84,-15.4 1.853,-23.048 1.538,1.749 0.143,2.071 -0.807,5.68 -0.526,1.975 -0.909,4.662 -0.923,6.938 -0.034,4.525 0.821,9.521 2.885,12.406 -0.383,-3.534 -1.921,-4.6 -1.88,-11.484 0.034,-5.229 1.114,-7.245 2.126,-11.606 l 0.089,0.793 c 0.321,-0.404 0.144,-0.021 0.649,-0.984 1.374,-2.646 0.233,-2.864 3.555,-7.909 1.585,-2.406 3.575,-5.236 4.832,-7.943 3.842,-8.271 5.865,-10 5.168,-20.841 1.442,1.08 2.139,3.179 3.363,4.539 3.773,4.211 8.831,7.444 14.341,9.734 l 0.703,-0.274 c 0.076,-0.007 0.254,-0.061 0.342,-0.061 2.112,-0.041 9.556,3.718 14.785,7.416 L 0,0 C -1.175,-0.861 -2.084,-1.504 -2.802,-1.996 L -3,-2.139 -3.376,-2.392 -3.547,-2.508 C -3.656,-2.584 -3.766,-2.652 -3.868,-2.72 -3.957,-2.775 -4.039,-2.83 -4.121,-2.884 L -4.156,-2.905 -4.285,-2.987 -4.408,-3.062 H -4.415 C -4.497,-3.117 -4.572,-3.158 -4.648,-3.206 L -4.75,-3.267 -4.852,-3.322 H -4.859 L -4.955,-3.377 -5.051,-3.431 -5.14,-3.479 -5.222,-3.52 -5.311,-3.561 -5.386,-3.602 H -5.393 L -5.468,-3.643 -5.543,-3.677 -5.618,-3.711 -5.693,-3.739 -5.768,-3.773 -5.843,-3.8 -5.912,-3.835 -5.987,-3.862 -6.062,-3.889 -6.144,-3.923 -6.22,-3.951 -6.302,-3.985 -6.383,-4.019 -6.472,-4.053 -6.561,-4.094 -6.657,-4.135 -6.753,-4.176 -6.855,-4.224 H -6.862 C -6.965,-4.272 -7.081,-4.32 -7.204,-4.381 L -7.327,-4.443 -7.464,-4.504 -7.6,-4.573 c -0.192,-0.096 -0.404,-0.205 -0.643,-0.335 l -0.184,-0.095 -0.192,-0.11 -0.198,-0.109 -0.656,-0.369 -0.212,-0.116 -0.424,-0.24 -0.636,-0.348 -0.205,-0.117 -0.212,-0.109 -0.205,-0.116 -0.212,-0.109 -0.205,-0.11 -0.205,-0.109 -0.205,-0.11 -0.205,-0.109 -0.205,-0.109 -0.205,-0.11 -0.205,-0.109 -0.198,-0.109 -0.205,-0.103 -0.198,-0.109 -0.205,-0.11 -0.199,-0.102 -0.205,-0.109 -0.198,-0.103 -0.198,-0.109 -0.397,-0.212 -0.205,-0.103 -0.389,-0.219 -0.199,-0.102 -0.396,-0.219 c -0.198,-0.109 -0.39,-0.211 -0.588,-0.321 l -0.198,-0.109 c -0.13,-0.075 -0.26,-0.151 -0.39,-0.226 l -0.191,-0.109 c -0.13,-0.075 -0.26,-0.151 -0.39,-0.226 l -0.198,-0.116 -0.191,-0.109 -0.199,-0.117 -0.191,-0.116 -0.191,-0.116 c -0.198,-0.123 -0.39,-0.239 -0.581,-0.362 l -0.199,-0.123 c -0.129,-0.082 -0.259,-0.164 -0.382,-0.246 l -0.199,-0.123 -0.191,-0.13 c -0.13,-0.089 -0.26,-0.171 -0.39,-0.26 l -0.191,-0.13 -0.191,-0.137 -0.192,-0.129 h -0.007 l -0.191,-0.137 -0.191,-0.144 -0.192,-0.136 h -0.007 l -0.157,-0.117 -0.157,-0.109 -0.151,-0.109 -0.143,-0.103 -0.137,-0.096 -0.137,-0.089 -0.129,-0.088 -0.13,-0.082 -0.123,-0.082 -0.116,-0.076 -0.11,-0.075 -0.109,-0.068 -0.11,-0.069 -0.102,-0.061 -0.096,-0.055 -0.095,-0.061 -0.096,-0.055 -0.089,-0.048 -0.082,-0.054 -0.089,-0.048 -0.082,-0.041 -0.075,-0.048 -0.082,-0.041 -0.069,-0.041 h -0.006 l -0.069,-0.041 -0.075,-0.041 -0.068,-0.034 -0.069,-0.041 -0.068,-0.035 -0.062,-0.034 -0.068,-0.041 -0.061,-0.034 -0.069,-0.034 -0.061,-0.041 -0.062,-0.034 -0.068,-0.041 -0.062,-0.041 -0.061,-0.035 -0.062,-0.04 -0.068,-0.048 -0.062,-0.041 -0.068,-0.048 -0.068,-0.048 -0.069,-0.048 -0.068,-0.055 -0.068,-0.054 -0.069,-0.055 -0.075,-0.062 -0.075,-0.061 -0.082,-0.062 -0.075,-0.068 -0.082,-0.075 -0.089,-0.075 -0.178,-0.164 -0.095,-0.089 -0.096,-0.089 -0.096,-0.103 -0.109,-0.095 -0.103,-0.11 -0.109,-0.109 -0.116,-0.116 -0.124,-0.123 -0.122,-0.123 -0.069,-0.076 -0.143,-0.143 -0.076,-0.075 -0.075,-0.076 -0.075,-0.075 -0.075,-0.075 -0.164,-0.157 -0.076,-0.082 -0.081,-0.075 -0.082,-0.082 -0.089,-0.082 -0.082,-0.082 -0.171,-0.158 v -0.006 l -0.342,-0.329 -0.089,-0.088 -0.088,-0.082 -0.083,-0.089 -0.088,-0.089 -0.09,-0.082 -0.088,-0.089 -0.082,-0.089 -0.089,-0.089 -0.089,-0.089 -0.082,-0.088 -0.089,-0.089 -0.082,-0.089 -0.089,-0.089 -0.082,-0.089 -0.082,-0.096 -0.164,-0.177 -0.082,-0.096 -0.082,-0.089 -0.075,-0.089 -0.082,-0.095 -0.075,-0.089 -0.075,-0.096 c -0.048,-0.061 -0.103,-0.123 -0.151,-0.184 l -0.068,-0.096 -0.068,-0.089 -0.069,-0.096 -0.068,-0.095 -0.062,-0.089 -0.068,-0.096 -0.061,-0.096 -0.055,-0.095 c -0.062,-0.089 -0.116,-0.185 -0.171,-0.281 -0.137,-0.246 -0.253,-0.498 -0.342,-0.745 0.055,0.034 0.164,0.123 0.314,0.253 l 0.055,0.055 0.062,0.048 0.068,0.061 0.219,0.192 0.075,0.075 0.082,0.075 0.089,0.075 0.088,0.082 0.096,0.082 0.192,0.178 0.102,0.089 0.103,0.096 0.109,0.095 0.109,0.096 0.11,0.102 0.116,0.103 0.116,0.102 0.123,0.11 0.123,0.109 0.246,0.219 0.13,0.11 0.13,0.116 0.137,0.116 0.137,0.116 0.136,0.117 v 0.006 l 0.137,0.116 0.137,0.116 v 0.007 l 0.143,0.116 0.144,0.123 0.143,0.123 0.151,0.123 0.143,0.123 0.151,0.124 0.15,0.123 0.15,0.123 0.151,0.123 0.157,0.123 0.15,0.123 0.157,0.123 0.158,0.123 0.314,0.246 0.157,0.123 c 0.157,0.123 0.315,0.239 0.472,0.355 l 0.164,0.124 0.157,0.116 0.157,0.116 0.165,0.109 0.157,0.117 0.157,0.109 8.585,5.126 0.274,0.158 0.28,0.157 0.28,0.157 0.28,0.15 0.281,0.158 0.287,0.15 0.28,0.15 0.287,0.158 0.287,0.15 0.287,0.143 0.287,0.151 0.294,0.15 0.287,0.144 0.287,0.15 0.294,0.144 0.294,0.15 0.287,0.144 0.294,0.143 0.588,0.287 0.287,0.144 0.588,0.287 0.294,0.137 0.294,0.143 0.287,0.144 0.294,0.143 0.287,0.137 0.294,0.144 0.581,0.28 0.574,0.287 0.287,0.136 0.287,0.144 c 0.281,0.144 0.568,0.28 0.848,0.424 l 0.28,0.143 0.28,0.144 c 0.369,0.191 0.739,0.383 1.101,0.574 l 0.273,0.144 0.267,0.143 0.267,0.144 0.266,0.15 0.267,0.144 0.259,0.15 0.26,0.144 0.253,0.15 0.506,0.301 0.253,0.15 c 0.164,0.103 0.328,0.205 0.485,0.308 h 0.007 l 0.239,0.15 0.239,0.157 c 0.021,0.014 0.042,0.028 0.062,0.041 V -2.72 C -0.396,-2.925 -0.71,-3.13 -1.032,-3.342 -1.565,-3.691 -2.125,-4.04 -2.706,-4.388 v -0.007 c -0.574,-0.349 -1.176,-0.704 -1.791,-1.06 -0.205,-0.123 -0.41,-0.239 -0.616,-0.362 l -0.635,-0.362 c -0.424,-0.239 -0.848,-0.479 -1.285,-0.725 l -0.656,-0.369 -0.67,-0.369 -0.67,-0.369 -0.677,-0.376 -0.683,-0.376 -1.381,-0.758 c -0.465,-0.26 -0.93,-0.513 -1.395,-0.773 l -0.703,-0.389 c -9.16,-5.113 -18.688,-10.978 -21.751,-18.367 -0.047,-0.103 -0.088,-0.205 -0.129,-0.308 0.047,0.096 0.095,0.198 0.17,0.308 0.328,0.567 0.944,1.271 1.709,2.037 l 0.185,0.177 0.184,0.185 0.192,0.178 0.191,0.184 0.205,0.185 0.205,0.191 0.205,0.185 0.212,0.191 0.219,0.192 0.219,0.184 0.225,0.192 0.219,0.191 0.232,0.191 0.226,0.192 0.233,0.191 0.232,0.192 0.232,0.191 0.233,0.191 0.232,0.185 0.232,0.191 0.24,0.185 0.232,0.184 0.233,0.185 0.232,0.178 0.232,0.177 0.226,0.178 0.225,0.171 0.226,0.171 0.225,0.171 0.438,0.328 0.212,0.157 0.212,0.157 0.205,0.151 0.205,0.15 0.191,0.143 0.198,0.144 0.185,0.13 0.185,0.13 0.171,0.13 0.17,0.123 0.164,0.109 0.158,0.116 0.15,0.103 0.144,0.095 0.136,0.096 0.13,0.089 2.946,1.75 7.075,4.211 c 1.087,0.656 2.078,1.216 3.048,1.777 l 0.274,0.157 0.096,0.055 0.273,0.157 0.273,0.157 c 0.212,0.13 0.431,0.253 0.643,0.383 0.465,0.273 0.936,0.56 1.422,0.875 l 3.663,2.611 1.942,1.387 c 0.102,0.076 0.211,0.157 0.321,0.24 l 0.321,0.239 0.321,0.246 0.322,0.253 0.321,0.253 0.321,0.26 0.321,0.259 c 0.11,0.089 0.219,0.178 0.322,0.267 0.109,0.089 0.218,0.177 0.321,0.273 h 0.007 l 0.314,0.267 0.007,0.007 0.314,0.273 c 0.11,0.096 0.219,0.185 0.322,0.28 0.212,0.185 0.43,0.376 0.642,0.568 0.103,0.095 0.212,0.198 0.315,0.294 L 2.557,-1.51 2.871,-1.217 3.5,-0.615 3.815,-0.307 4.122,0 4.437,0.308 4.744,0.622 c 0.103,0.11 0.205,0.212 0.308,0.321 L 5.353,1.258 5.66,1.579 5.961,1.907 c 0.096,0.11 0.198,0.219 0.301,0.328 l 0.294,0.328 c 0.198,0.219 0.396,0.445 0.588,0.663 0.389,0.451 0.772,0.903 1.148,1.361 0.095,0.116 0.185,0.225 0.28,0.341 0.28,0.349 0.554,0.698 0.82,1.046 1.354,1.757 2.584,3.575 3.65,5.428 0.069,0.123 0.144,0.246 0.212,0.369 0.205,0.369 0.411,0.738 0.602,1.114 0.259,0.499 0.506,0.991 0.745,1.49 0.116,0.253 0.225,0.499 0.335,0.752 0.615,1.408 1.203,2.809 1.736,4.21 l 0.178,0.465 c 0.171,0.472 0.342,0.937 0.506,1.408 0.054,0.157 0.109,0.315 0.164,0.472 0.102,0.308 0.205,0.622 0.307,0.936 0.096,0.315 0.199,0.629 0.287,0.937 0.048,0.157 0.096,0.314 0.144,0.472 0.041,0.157 0.089,0.314 0.13,0.471 0.041,0.157 0.089,0.315 0.13,0.472 0.041,0.157 0.082,0.314 0.123,0.472 0.041,0.157 0.075,0.314 0.116,0.471 0.041,0.164 0.075,0.321 0.109,0.478 0.041,0.158 0.076,0.315 0.11,0.472 0.034,0.157 0.068,0.315 0.102,0.479 0.028,0.157 0.062,0.314 0.089,0.471 0.034,0.158 0.062,0.322 0.089,0.479 0.027,0.157 0.055,0.314 0.082,0.478 0.027,0.157 0.055,0.315 0.075,0.479 0.075,0.478 0.137,0.957 0.192,1.435 0.013,0.164 0.034,0.321 0.047,0.486 0.014,0.157 0.028,0.321 0.041,0.478 0.014,0.164 0.021,0.328 0.034,0.485 0.007,0.164 0.021,0.328 0.028,0.485 0.007,0.164 0.014,0.329 0.02,0.486 0,0.164 0.007,0.328 0.007,0.492 0.007,0.164 0.007,0.321 0.007,0.485 0,0.165 0,0.328 -0.007,0.492 0,0.165 -0.007,0.329 -0.013,0.493 0,0.164 -0.007,0.328 -0.021,0.492 -0.007,0.164 -0.014,0.328 -0.027,0.492 -0.007,0.164 -0.021,0.335 -0.035,0.499 -0.013,0.164 -0.027,0.328 -0.047,0.492 -0.014,0.171 -0.034,0.335 -0.055,0.499 -0.021,0.171 -0.041,0.335 -0.061,0.506 -0.028,0.164 -0.048,0.328 -0.076,0.499 -0.027,0.171 -0.054,0.335 -0.082,0.506 -0.027,0.164 -0.061,0.335 -0.089,0.499 v 0.006 c -0.034,0.165 -0.068,0.335 -0.102,0.506 -0.034,0.165 -0.076,0.335 -0.11,0.506 l -0.122,0.513 c -0.042,0.171 -0.083,0.341 -0.13,0.512 -0.048,0.171 -0.089,0.342 -0.144,0.513 -0.048,0.171 -0.096,0.342 -0.15,0.513 -0.048,0.171 -0.103,0.348 -0.158,0.519 -0.054,0.171 -0.116,0.349 -0.171,0.52 -0.061,0.171 -0.123,0.348 -0.184,0.519 -0.062,0.178 -0.123,0.349 -0.191,0.527 -0.069,0.171 -0.137,0.348 -0.205,0.526 -0.069,0.171 -0.144,0.348 -0.212,0.526 -0.075,0.178 -0.151,0.356 -0.226,0.526 -0.068,0.158 -0.137,0.308 -0.198,0.451 l -0.198,0.431 -0.185,0.41 -0.178,0.39 c -0.061,0.123 -0.123,0.246 -0.177,0.369 l -0.171,0.349 -0.164,0.335 c -0.055,0.109 -0.11,0.212 -0.158,0.314 l -0.157,0.301 -0.15,0.28 -0.144,0.267 c -0.048,0.082 -0.095,0.171 -0.143,0.253 -0.048,0.075 -0.096,0.157 -0.137,0.232 -0.048,0.075 -0.089,0.15 -0.137,0.226 -0.089,0.143 -0.171,0.28 -0.253,0.403 -0.17,0.26 -0.321,0.485 -0.471,0.683 -0.041,0.048 -0.075,0.096 -0.11,0.144 -0.075,0.089 -0.143,0.178 -0.218,0.26 l -0.103,0.123 c -0.102,0.116 -0.198,0.225 -0.294,0.321 -0.068,0.068 -0.13,0.13 -0.191,0.185 v 0.006 l -0.089,0.083 -0.096,0.088 -0.178,0.164 -0.088,0.076 -0.089,0.081 -0.089,0.076 -0.356,0.328 -0.088,0.089 -0.089,0.095 -0.096,0.096 -0.089,0.102 -0.096,0.103 -0.095,0.116 -0.096,0.117 -0.095,0.129 c -0.035,0.041 -0.069,0.089 -0.103,0.137 -0.034,0.048 -0.068,0.096 -0.103,0.144 -0.034,0.048 -0.068,0.102 -0.102,0.15 -0.034,0.055 -0.069,0.109 -0.109,0.164 -0.069,0.116 -0.144,0.233 -0.219,0.362 l -0.116,0.199 c -0.034,0.068 -0.076,0.136 -0.117,0.212 l -0.123,0.218 -0.123,0.239 c -0.253,0.486 -0.526,1.06 -0.827,1.743 0.042,-0.04 0.089,-0.075 0.13,-0.116 0.048,-0.041 0.089,-0.082 0.137,-0.123 l 0.136,-0.137 0.281,-0.28 c 0.096,-0.095 0.191,-0.198 0.294,-0.307 0.143,-0.157 0.294,-0.328 0.451,-0.506 l 0.15,-0.178 0.157,-0.184 0.158,-0.192 0.157,-0.191 0.164,-0.205 0.157,-0.198 0.164,-0.213 0.157,-0.211 0.164,-0.212 0.328,-0.438 c 0.11,-0.15 0.219,-0.3 0.329,-0.457 l 0.171,-0.226 0.163,-0.232 c 0.11,-0.158 0.219,-0.315 0.329,-0.472 l 0.164,-0.239 c 0.218,-0.322 0.43,-0.65 0.649,-0.971 v -0.007 c 0.855,-1.305 1.661,-2.645 2.345,-3.882 0.676,-1.245 1.23,-2.379 1.565,-3.274 0.54,-1.422 0.95,-2.707 1.258,-3.897 0.088,-0.328 0.164,-0.642 0.232,-0.957 0.116,-0.526 0.212,-1.032 0.294,-1.524 0.021,-0.102 0.034,-0.198 0.048,-0.301 0.027,-0.191 0.055,-0.389 0.082,-0.581 0.014,-0.095 0.02,-0.191 0.034,-0.287 v -0.007 l 0.027,-0.287 c 0.014,-0.095 0.021,-0.191 0.028,-0.28 0.013,-0.096 0.02,-0.191 0.027,-0.287 l 0.021,-0.287 0.013,-0.281 0.014,-0.28 0.014,-0.287 0.007,-0.28 0.006,-0.28 V 33.924 L 20.562,33.637 20.555,33.35 20.541,33.063 20.534,32.776 20.52,32.489 20.5,32.195 C 20.493,31.996 20.479,31.798 20.466,31.6 l -0.021,-0.301 -0.02,-0.3 H 20.418 L 20.397,30.691 20.37,30.384 20.35,30.069 20.295,29.433 H 20.288 L 20.233,28.777 C 20.11,27.444 19.98,26.002 19.857,24.375 l 0.007,0.007 1.026,1.743 c 0.663,1.873 0.963,3.957 0.977,6.131 0.007,0.075 0.007,0.158 0.007,0.239 0,0.076 0,0.151 -0.007,0.233 0,0.157 0,0.314 -0.007,0.471 -0.007,0.158 -0.007,0.315 -0.02,0.472 -0.007,0.157 -0.014,0.315 -0.021,0.479 -0.014,0.157 -0.02,0.314 -0.034,0.478 -0.014,0.157 -0.028,0.314 -0.041,0.479 -0.014,0.157 -0.034,0.321 -0.048,0.478 v 0.007 c -0.021,0.157 -0.041,0.321 -0.055,0.478 h -0.007 c -0.013,0.165 -0.034,0.329 -0.061,0.486 -0.02,0.164 -0.041,0.328 -0.068,0.485 -0.028,0.164 -0.055,0.328 -0.075,0.492 -0.028,0.157 -0.062,0.322 -0.09,0.486 -0.027,0.164 -0.061,0.321 -0.088,0.485 -0.035,0.164 -0.062,0.328 -0.096,0.492 -0.034,0.164 -0.068,0.321 -0.109,0.485 -0.035,0.164 -0.069,0.329 -0.11,0.492 -0.034,0.158 -0.075,0.322 -0.116,0.486 -0.075,0.321 -0.157,0.649 -0.246,0.971 -0.041,0.163 -0.089,0.328 -0.13,0.485 -0.136,0.485 -0.28,0.97 -0.43,1.449 -0.103,0.321 -0.206,0.635 -0.308,0.957 -0.055,0.157 -0.109,0.314 -0.164,0.471 -0.055,0.158 -0.109,0.315 -0.164,0.472 -0.171,0.472 -0.342,0.936 -0.52,1.401 -0.177,0.458 -0.362,0.916 -0.553,1.361 -0.192,0.451 -0.383,0.895 -0.581,1.332 -0.062,0.144 -0.13,0.288 -0.199,0.431 -0.198,0.431 -0.403,0.855 -0.608,1.272 -0.068,0.143 -0.136,0.28 -0.205,0.416 -0.137,0.274 -0.28,0.541 -0.417,0.807 -0.075,0.13 -0.143,0.26 -0.212,0.389 -0.075,0.137 -0.143,0.26 -0.212,0.39 -0.075,0.13 -0.143,0.26 -0.218,0.383 -0.069,0.123 -0.144,0.253 -0.212,0.376 -0.076,0.123 -0.144,0.246 -0.219,0.369 -0.068,0.116 -0.144,0.239 -0.212,0.356 -0.075,0.123 -0.143,0.239 -0.219,0.355 l -0.054,0.096 -0.062,0.095 -0.061,0.096 -0.055,0.096 -0.062,0.095 -0.054,0.089 -0.062,0.096 -0.061,0.096 -0.055,0.095 -0.062,0.096 -0.054,0.089 -0.062,0.095 -0.054,0.096 -0.062,0.089 -0.055,0.096 -0.061,0.089 -0.055,0.095 -0.061,0.096 -0.055,0.089 -0.062,0.095 -0.109,0.178 -0.062,0.096 -0.054,0.089 -0.062,0.096 -0.054,0.089 -0.062,0.088 -0.055,0.096 -0.061,0.089 -0.055,0.089 -0.061,0.089 -0.055,0.095 -0.062,0.089 -0.054,0.089 -0.062,0.089 -0.054,0.089 -0.062,0.095 -0.054,0.089 -0.062,0.089 -0.061,0.089 -0.055,0.089 -0.062,0.089 -0.061,0.089 -0.055,0.088 -0.062,0.089 -0.061,0.089 -0.055,0.089 -0.123,0.178 -0.061,0.088 -0.055,0.089 -0.061,0.089 -0.123,0.178 -0.062,0.089 -0.061,0.089 -0.062,0.089 -0.061,0.088 -0.062,0.089 -0.062,0.089 -0.061,0.089 -0.069,0.089 -0.006,0.013 -0.117,0.165 -0.068,0.088 -0.061,0.089 -0.069,0.096 -0.061,0.089 -0.069,0.096 -0.061,0.088 -0.069,0.089 -0.061,0.096 -0.068,0.089 -0.062,0.089 -0.061,0.095 -0.062,0.089 -0.068,0.089 -0.062,0.096 -0.061,0.089 L 9.98,62.182 9.919,62.277 9.851,62.366 9.789,62.455 9.666,62.633 9.605,62.728 9.543,62.817 9.42,62.995 9.358,63.084 9.297,63.173 9.235,63.262 9.18,63.35 9.119,63.439 9.057,63.528 8.996,63.617 8.873,63.795 8.811,63.884 8.757,63.972 8.695,64.061 8.634,64.15 8.572,64.232 8.517,64.321 8.456,64.41 8.394,64.499 8.333,64.588 8.278,64.67 8.217,64.759 8.155,64.847 8.094,64.929 8.039,65.018 7.977,65.1 7.916,65.189 7.854,65.271 7.8,65.36 7.738,65.442 7.677,65.531 7.622,65.613 7.56,65.702 7.499,65.784 7.437,65.866 7.321,66.037 7.082,66.372 C 6.863,66.666 6.658,66.953 6.46,67.233 6.111,67.725 5.79,68.19 5.489,68.641 4.895,69.55 4.403,70.398 3.999,71.266 3.917,71.45 3.835,71.635 3.76,71.82 v 0.006 C 3.733,71.888 3.705,71.949 3.685,72.011 3.63,72.134 3.589,72.264 3.541,72.394 L 3.473,72.585 C 3.404,72.776 3.343,72.968 3.288,73.166 3.234,73.364 3.179,73.569 3.131,73.774 3.097,73.911 3.07,74.048 3.035,74.191 3.022,74.26 3.008,74.328 2.994,74.403 2.981,74.472 2.967,74.547 2.954,74.615 2.94,74.69 2.933,74.766 2.919,74.834 l -0.034,0.225 -0.034,0.226 c -0.007,0.075 -0.014,0.15 -0.027,0.226 v 0.006 C 2.817,75.593 2.81,75.668 2.796,75.75 l -0.02,0.232 -0.021,0.246 -0.02,0.239 v 0.007 L 2.721,76.72 2.707,76.973 2.7,77.233 2.687,77.5 v 0.348 l 0.061,2.604 c 1.374,5.667 8.709,8.538 12.243,3.432 3.185,-4.6 0.745,-9.194 -2.755,-9.939 -0.916,-0.198 -1.572,-0.246 -2.474,0.089 -1.511,0.547 -1.026,0.554 -1.566,1.436 5.147,-1.798 8.401,1.873 5.954,6.233 -1.887,3.357 -6.528,3.09 -8.278,-0.396 -3.062,-6.104 5.332,-14.648 8.182,-18.469"
             style="fill:#86c5c5;fill-opacity:1;fill-rule:evenodd;stroke:none"
             id="path94" /></g><g
           id="g96"
           transform="translate(363.3539,475.2)"><path
             d="m 0,0 c 0.018,3.442 -4.746,13.748 -6.021,17.785 -2.555,8.096 -2.73,11.529 -3.68,20.145 -3.54,-5.066 -0.516,-7.434 -13.176,-17.659 -3.63,-2.931 -9.847,-6.527 -13.778,-9.528 -0.756,-0.578 -1.254,-1.042 -2.03,-1.634 -5.665,-4.318 -7.662,-6.83 -9.577,-14.183 -4.621,-17.744 13.532,-23.004 12.292,-44.084 0.998,0.871 2.458,3.75 5.348,6.351 12.55,11.301 25.517,6.692 31.248,24.442 C 1.869,-14.519 2.725,-2.651 0,0 m -3.641,-12.479 c 0.018,-7.934 -4.289,-14.467 -9.868,-17.276 -1.272,-0.641 -2.846,-1.168 -4.072,-1.5 -10.281,-2.796 -16.913,0.891 -22.775,8.312 -12.453,15.766 9.635,34.371 20.836,37.276 3.836,0.994 5.689,0.008 7.714,-2.844 4.021,-5.668 8.149,-16.831 8.165,-23.968"
             style="fill:#6dc38f;fill-opacity:1;fill-rule:evenodd;stroke:none"
             id="path98" /></g><g
           id="g100"
           transform="translate(356.4611,521.3052)"><path
             d="m 0,0 c -5.247,-7.756 3.353,-28.55 6.291,-36.139 4.601,-11.884 6.92,-20.562 2.004,-32.758 -1.044,-2.591 -1.035,-1.51 -0.514,-2.559 0.37,-0.742 -3.726,-4.203 -4.122,-4.639 -3.363,-3.706 -12.055,-8.386 -16.782,-9.856 l 0.701,-0.268 c 0.077,-0.008 0.253,-0.063 0.347,-0.065 2.723,-0.055 14.331,6.223 18.596,10.526 6.379,6.433 8.299,12.695 7.742,22.678 -1.114,19.937 -14.815,38.252 -13.922,46.271 0.182,4.606 0.465,5.027 1.375,8.978 C 0.52,1.167 0.531,1.177 0.109,-0.746 Z"
             style="fill:#d6e8e9;fill-opacity:1;fill-rule:evenodd;stroke:none"
             id="path102" /></g><g
           id="g104"
           transform="translate(326.8592,459.5221)"><path
             d="m 0,0 c 0.977,-6.169 7.65,-11.273 14.839,-10.021 14.132,2.461 8.773,17.672 4.207,23.388 -2.922,3.657 -4.812,2.436 -8.602,0.588 C 5.798,11.689 -1.123,7.08 0,0 M 10.274,-5.012 0,0 Z"
             style="fill:#86d1d4;fill-opacity:1;fill-rule:evenodd;stroke:none"
             id="path106" /></g><g
           id="g108"
           transform="translate(311.1088,462.0427)"><path
             d="m 0,0 c -0.848,16.762 8.451,18.663 15.944,27.806 0.771,1.142 6.847,6.613 8.979,8.231 l 9.286,8.99 c 8.143,10.312 9.113,15.602 4.952,28.303 -1.526,-3.448 5.781,-13.113 -5.629,-25.807 l -4.271,-4.339 c -1.578,-1.475 -2.932,-2.779 -4.692,-4.011 -2.302,-1.609 -8.107,-5.886 -9.276,-7.671 l 12.72,12.419 c 1.407,1.183 3.243,3.091 4.271,5.076 -1.96,-1.08 -1.139,-1.181 -2.897,-1.961 -0.051,-0.022 -0.18,-0.059 -0.231,-0.082 L 17.506,38.495 C 16.294,37.653 15.665,37.022 14.461,36.046 3.033,26.776 -3.1,17.868 -0.879,2.5 -0.596,0.536 -0.357,0.518 0,0"
             style="fill:#b7d8d7;fill-opacity:1;fill-rule:evenodd;stroke:none"
             id="path110" /></g><g
           id="g112"
           transform="translate(359.7127,462.7213)"><path
             d="m 0,0 c -0.017,7.138 -4.145,18.3 -8.166,23.968 -2.024,2.852 -3.878,3.839 -7.713,2.844 -11.202,-2.904 -33.289,-21.511 -20.837,-37.276 5.862,-7.421 12.496,-11.108 22.776,-8.313 1.226,0.333 2.799,0.86 4.071,1.5 C -4.289,-14.468 0.018,-7.934 0,0 m -37.539,-4.954 c -0.385,1.426 -0.675,2.504 -0.743,4.035 -0.108,2.42 0.854,5.592 1.644,7.644 1.264,3.284 5.757,8.012 8.666,10.077 12.498,8.876 15.499,11.113 21.57,-1.551 4.633,-9.667 6.121,-21.219 -1.243,-28.366 -9.744,-9.456 -26.718,-3.626 -29.894,8.161"
             style="fill:#d8a646;fill-opacity:1;fill-rule:evenodd;stroke:none"
             id="path114" /></g><g
           id="g116"
           transform="translate(337.4114,455.3527)"><path
             d="m 0,0 c -11.648,-3.582 -9.364,10.847 1.143,15.088 1.38,0.557 2.515,0.631 4.224,0.46 C 7.202,13.287 7.907,12.745 9.029,9.847 13.734,-2.301 3.16,-6.96 0,0"
             style="fill:#041845;fill-opacity:1;fill-rule:evenodd;stroke:none"
             id="path118" /></g><g
           id="g120"
           transform="translate(305.9843,480.8211)"><path
             d="m 0,0 c 0.046,0.003 -0.469,-1.066 -0.456,-1.105 0.557,-1.723 0.82,-2.043 2.546,-0.631 l 0.322,0.921 C 6.034,7.327 9.335,11.16 17.009,17.506 23.917,23.218 27.962,24.434 35.701,33.089 52.908,52.33 35.679,64.934 27.866,55.103 22.172,47.938 34.71,42.12 34.163,49.8 33.751,47.88 34.147,48.966 33.238,47.545 26.717,46.281 26.824,52.643 30.288,54.98 38.504,60.521 48.925,48.73 30.939,31.476 23.004,23.864 2.975,13.126 0,0"
             style="fill:#73b8c5;fill-opacity:1;fill-rule:evenodd;stroke:none"
             id="path122" /></g><g
           id="g124"
           transform="translate(348.1708,448.4647)"><path
             d="m 0,0 c 8.66,4.323 6.585,16.071 2.873,23.157 -1.141,2.179 -3.186,5.771 -4.502,6.908 -2.277,1.968 -5.944,0.645 -8.629,-0.602 C -15.094,27.218 -20.621,22.874 -22.84,19.207 -30.534,6.493 -13.937,-6.956 0,0 m -22.675,9.687 c -1.972,8.014 6.353,13.972 11.134,16.495 3.648,1.924 6.704,3.498 9.452,0.221 C 4.707,18.299 8.445,2.502 -5.182,-0.305 -13.611,-2.041 -21.131,3.41 -22.675,9.687"
             style="fill:#041845;fill-opacity:1;fill-rule:evenodd;stroke:none"
             id="path126" /></g><g
           id="g128"
           transform="translate(325.4959,458.1516)"><path
             d="m 0,0 c 1.544,-6.277 9.064,-11.728 17.493,-9.991 13.627,2.805 9.889,18.603 3.093,26.706 -2.748,3.278 -5.804,1.704 -9.452,-0.22 C 6.353,13.972 -1.972,8.014 0,0 m 1.363,1.371 c -1.122,7.08 5.799,11.688 10.444,13.954 3.79,1.849 5.68,3.069 8.602,-0.588 C 24.975,9.022 30.334,-6.19 16.203,-8.651 9.013,-9.903 2.341,-4.798 1.363,1.371"
             style="fill:#50b7c3;fill-opacity:1;fill-rule:evenodd;stroke:none"
             id="path130" /></g><g
           id="g132"
           transform="translate(341.1939,466.7414)"><path
             d="M 0,0 C 1.112,-1.96 3.59,-5.246 2.067,-8.396 0.321,-12.007 -2.261,-9.4 -3.265,-9.097 -6.233,-8.199 -10.033,-7.792 -6.14,-2.846 -4.601,-0.891 -3.021,0.119 0,0"
             style="fill:#273b93;fill-opacity:1;fill-rule:evenodd;stroke:none"
             id="path134" /></g><g
           id="g136"
           transform="translate(340.4839,411.9134)"><path
             d="m 0,0 c -0.23,-1.06 -0.473,-2.201 -0.683,-3.211 -0.23,-0.12 -0.47,-0.243 -0.68,-0.353 -2.153,-1.136 -4.237,-2.135 -6.073,-3.29 -2.48,-1.56 -5.693,-3.947 -7.473,-6.257 -0.68,-0.78 -0.959,-1.121 -1.629,-1.971 -0.84,-1.06 -2.308,-3.098 -2.848,-4.618 3.58,2.56 4.456,6.98 16.756,11.22 0.32,0.11 0.64,0.22 0.96,0.32 -0.14,-0.75 -0.31,-1.602 -0.44,-2.322 -0.17,-0.06 -0.34,-0.14 -0.52,-0.22 -0.62,-0.25 -1.22,-0.53 -1.84,-0.82 -0.31,-0.14 -0.61,-0.29 -0.92,-0.44 -0.3,-0.15 -0.6,-0.3 -0.9,-0.46 -0.24,-0.12 -0.48,-0.24 -0.72,-0.37 -0.66,-0.36 -1.31,-0.73 -1.95,-1.12 -0.25,-0.15 -0.49,-0.3 -0.74,-0.45 -1.57,-1 -2.946,-2.008 -4.356,-3.248 -0.24,-0.21 -0.48,-0.43 -0.71,-0.65 -0.01,-0.01 -0.01,-0.01 -0.02,-0.02 -0.25,-0.24 -0.51,-0.48 -0.75,-0.74 -0.06,-0.05 -0.11,-0.1 -0.15,-0.15 -0.22,-0.22 -0.41,-0.44 -0.62,-0.65 -0.05,-0.07 -0.11,-0.13 -0.16,-0.18 -0.22,-0.25 -0.45,-0.51 -0.66,-0.77 -0.28,-0.33 -0.602,-0.722 -0.862,-1.072 -0.08,-0.12 -0.17,-0.24 -0.26,-0.36 -0.13,-0.16 -0.24,-0.33 -0.36,-0.5 -0.1,-0.15 -0.2,-0.29 -0.301,-0.44 -0.109,-0.169 -0.219,-0.35 -0.329,-0.52 -0.09,-0.14 -0.18,-0.29 -0.27,-0.43 -0.23,-0.38 -0.46,-0.78 -0.67,-1.18 -0.171,-0.3 -0.33,-0.558 -0.47,-0.878 -0.04,-0.06 -0.07,-0.13 -0.1,-0.2 -0.07,-0.15 -0.14,-0.31 -0.22,-0.47 -0.08,-0.18 -0.16,-0.37 -0.24,-0.56 -0.08,-0.2 -0.17,-0.39 -0.24,-0.59 -0.08,-0.2 -0.17,-0.4 -0.23,-0.61 -0.06,-0.14 -0.11,-0.29 -0.16,-0.43 -0.12,-0.35 -0.24,-0.7 -0.35,-1.07 -0.08,-0.26 -0.16,-0.53 -0.23,-0.8 -0.21,-0.76 -0.415,-1.56 -0.565,-2.38 -0.03,-0.13 -0.05,-0.26 -0.07,-0.39 -0.07,-0.39 -0.13,-0.79 -0.19,-1.19 -0.05,-0.34 -0.09,-0.68 -0.12,-1.03 -0.01,-0.09 -0.021,-0.2 -0.03,-0.3 -0.04,-0.39 -0.071,-0.78 -0.1,-1.19 0,-0.04 -0.01,-0.08 -0.01,-0.13 -0.031,-0.45 -0.056,-1.023 -0.066,-1.493 0.36,-0.849 0.689,-1.577 1.019,-2.387 v -0.01 c 10.4,-24.92 6.15,-28.27 17.56,-45.69 -15.72,4.48 -21.812,55.328 -33.782,71.718 -0.17,0.24 -0.34,0.46 -0.52,0.68 -0.12,0.15 -0.241,0.3 -0.36,0.439 -0.09,0.111 -0.18,0.23 -0.28,0.34 -1.331,1.601 -2.658,3.253 -3.898,4.933 -0.05,0.07 -0.1,0.15 -0.16,0.22 -0.16,0.23 -0.347,0.443 -0.517,0.683 -0.38,0.55 -0.76,1.11 -1.11,1.67 -0.4,0.62 -0.753,1.277 -1.103,1.927 -0.12,0.21 -0.24,0.42 -0.35,0.63 -0.18,0.36 -0.371,0.73 -0.531,1.09 -0.08,0.18 -0.16,0.35 -0.23,0.52 -0.42,0.96 -0.785,1.97 -1.055,3.01 l 0.96,-0.01 c 0.32,-1.29 0.786,-2.52 1.356,-3.71 0.22,-0.45 0.51,-0.94 0.86,-1.47 0.07,-0.11 0.15,-0.23 0.23,-0.35 0.12,-0.18 0.26,-0.37 0.4,-0.56 0.91,-1.27 2.07,-2.7 3.35,-4.19 0.11,-0.13 0.21,-0.25 0.32,-0.37 0.51,-0.59 1.03,-1.18 1.56,-1.79 0.12,-0.13 0.24,-0.28 0.37,-0.41 0.62,-0.71 1.25,-1.4 1.87,-2.11 0.21,-0.23 0.42,-0.47 0.63,-0.7 1.77,-2 3.48,-3.95 4.83,-5.65 0.09,-0.12 0.18,-0.24 0.27,-0.36 0.28,-0.36 0.54,-0.69 0.77,-1.02 0.08,-0.11 0.16,-0.22 0.23,-0.32 0.08,-0.11 0.15,-0.21 0.22,-0.31 0.38,-0.58 0.7,-1.11 0.93,-1.58 0.04,-0.07 0.07,-0.13 0.1,-0.2 0.02,-0.06 0.04,-0.1 0.06,-0.15 0.04,-0.08 0.06,-0.16 0.09,-0.23 0.02,-0.05 0.03,-0.09 0.04,-0.13 0.04,-0.1 0.06,-0.2 0.09,-0.3 v -0.03 c 0.01,-0.03 0.02,-0.06 0.02,-0.09 -0.14,3.37 -4.17,8.6 -6.29,10.94 -1.1,1.22 -2.18,1.72 -3.02,3.43 2.03,-1.21 4.57,-4.28 6.15,-6.24 l 4.69,-8.15 c 0.58,4.55 0.99,5.04 -0.22,10.01 -1.38,5.73 -4.41,10.44 -7.72,15.05 l -0.69,0.96 3.69,-0.01 c 0.28,-0.35 0.61,-0.72 0.89,-1.1 0.16,-0.21 0.31,-0.42 0.47,-0.64 1.62,-2.21 3.41,-4.96 5.52,-8.97 0.09,-0.18 0.19,-0.37 0.29,-0.56 0.19,-0.37 0.39,-0.76 0.59,-1.15 0,0.23 -0.01,0.45 -0.01,0.68 -0.01,0.17 -0.02,0.34 -0.02,0.5 -0.03,0.46 -0.08,0.92 -0.15,1.36 -0.01,0.14 -0.04,0.29 -0.07,0.43 -0.02,0.21 -0.06,0.41 -0.11,0.62 -0.03,0.17 -0.06,0.34 -0.11,0.51 0,0.03 0,0.04 -0.01,0.05 -0.04,0.19 -0.09,0.37 -0.14,0.54 -0.09,0.36 -0.203,0.71 -0.323,1.06 -0.061,0.17 -0.12,0.34 -0.19,0.52 -0.371,1.03 -0.881,2.02 -1.411,2.98 -0.17,0.32 -0.35,0.63 -0.55,0.95 -0.08,0.15 -0.18,0.31 -0.28,0.47 -0.19,0.31 -0.39,0.62 -0.6,0.93 -0.09,0.15 -0.2,0.3 -0.31,0.45 -0.08,0.13 -0.16,0.25 -0.24,0.37 l 4.279,-0.01 c 1.574,-2.352 0.648,-2.805 3.6,-3.27 0.14,1.15 0.07,2.16 -0.02,3.26 l 8.932,-0.03 c -0.18,-0.18 -0.35,-0.35 -0.52,-0.53 -0.65,-0.66 -1.21,-1.32 -1.7,-2 -0.09,-0.11 -0.17,-0.23 -0.24,-0.34 -0.09,-0.11 -0.16,-0.23 -0.23,-0.34 -0.13,-0.19 -0.25,-0.37 -0.36,-0.56 -0.08,-0.16 -0.17,-0.33 -0.26,-0.48 0.67,0.54 1.213,1.13 1.873,1.71 0.94,0.83 1.9,1.71 2.91,2.54 l 2.763,-0.01 c -0.06,-0.04 -0.12,-0.08 -0.17,-0.12 -0.26,-0.19 -0.49,-0.36 -0.71,-0.54 -0.36,-0.27 -0.772,-0.611 -1.082,-0.891 h -0.01 c -0.2,-0.17 -0.4,-0.35 -0.59,-0.53 -2.14,-2 -3.594,-3.356 -5.444,-5.507 -0.9,-1.049 -3.913,-5.011 -4.376,-6.322 0.48,1.264 5.059,6.76 7.559,8.33 0.69,0.43 1.27,0.82 1.79,1.17 0.26,0.18 0.51,0.35 0.75,0.52 2.222,1.562 3.915,2.709 6.393,3.88 l 2.632,-0.001 c -3.41,-1.84 -6.647,-4.045 -8.617,-5.625 -0.12,-0.1 -0.341,-0.274 -0.451,-0.364 -0.22,-0.18 -0.485,-0.402 -0.66,-0.558 0.88,0.42 1.463,1.068 2.413,1.648 0.32,0.2 0.67,0.39 1.04,0.59 0.17,0.1 0.36,0.21 0.56,0.3 0.38,0.21 0.79,0.42 1.22,0.63 0.81,0.39 1.69,0.79 2.62,1.2 0.28,0.12 0.57,0.24 0.87,0.37 0.38,0.16 0.77,0.33 1.17,0.5 0.52,0.21 1.04,0.43 1.57,0.64"
             style="fill:#ffffff;fill-opacity:1;fill-rule:evenodd;stroke:none"
             id="path138" /></g></g></g></g></svg>
