<svg width="800" height="800" viewBox="0 0 800 800" fill="none" xmlns="http://www.w3.org/2000/svg">
<path fill-rule="evenodd" clip-rule="evenodd" d="M107.724 550.301C141.251 529.332 203.889 514.035 213.7 510.947C217.741 509.676 220.989 505.956 224.376 502.929C227.196 500.128 230.017 497.325 232.839 494.523C240.545 493.324 259.884 487.34 265.761 483.163C271.672 478.964 269.884 477.5 269.885 470.004C269.889 462.803 272.933 464.137 276.744 459.029C275.112 452.095 275.893 457.829 271.743 451.591C275.059 449.679 278.375 447.767 281.691 445.853C279.663 442.171 277.636 438.489 275.609 434.807C281.227 431.568 284.307 429.908 287.139 425.405C283.576 416.488 272.423 414.54 264.739 407.047C263.495 409.749 259.931 414.664 254.972 407.731C252.159 408.936 250.425 410.295 247.259 411.7C244.883 411.469 242.505 411.237 240.129 411.007C244.339 408.649 251.271 407.317 257.828 401.312C259.257 399.652 260.687 397.991 262.116 396.331C248.109 400.979 245.337 405.86 235.46 410.788C236.089 406.175 235.525 407.072 240.04 403.945C255.14 393.485 265.109 397.392 262.145 390.105C259.485 386.984 261.372 387.832 256.495 387.845C245.259 387.756 230.696 406.285 228.06 408.136C229.807 388.377 258.045 383.419 259.633 382.608C258.32 374.475 254.62 364.892 248.716 359.229C241.939 352.727 236.804 353.409 224.548 354.585C226.953 352.153 229.359 349.723 231.765 347.291C244.103 330.009 199.073 314.395 160.043 334.825C127.067 352.087 111.829 387.199 105.223 420.384C104.603 453.579 106.12 502.279 107.724 550.301ZM760.143 625.443L748.932 690H305.641V689.967C153.065 688.735 284.975 566.872 107.912 555.936L110.429 689.837L40.4373 689.563L40 298.611C104.84 288.733 235.828 270.867 286.187 317.445C352.021 378.341 320.639 515.225 264.127 533.964C263.369 536.168 263.061 537.063 262.304 539.267C282.42 569.459 283.94 578.073 299.887 612.213C300.519 613.567 301.564 615.956 302.591 618.335C304.455 622.651 308.708 625.443 313.409 625.443H760.143Z" fill="#DD1E25"/>
<path fill-rule="evenodd" clip-rule="evenodd" d="M74.1813 256.853L83.0026 278.335L80.1586 278.709L74.7519 265.538L70.5613 280.814L62.5226 267.107L60.7306 281.269L57.8706 281.646L60.7879 258.618L69.6133 273.658L74.1813 256.853ZM83.0813 259.767C83.0093 259.157 83.1719 258.61 83.5719 258.117C83.9759 257.622 84.4799 257.337 85.1026 257.263C85.7133 257.193 86.2626 257.354 86.7599 257.745C87.2546 258.134 87.5399 258.629 87.6106 259.238C87.6813 259.851 87.5213 260.406 87.1266 260.899C86.7346 261.387 86.2333 261.665 85.6226 261.735C85.0013 261.809 84.4453 261.653 83.9399 261.27C83.4373 260.882 83.1519 260.381 83.0813 259.767ZM84.4386 264.211L87.3786 263.869L88.9946 277.738L86.0573 278.081L84.4386 264.211ZM100.445 264.095L98.6706 266.026C98.1226 265.718 97.6533 265.49 97.2599 265.347C96.8653 265.198 96.4159 265.154 95.9079 265.21C94.7079 265.339 94.1573 265.841 94.2506 266.718C94.3186 267.349 95.1413 267.875 96.7226 268.303C98.3039 268.73 99.4639 269.261 100.205 269.894C100.945 270.534 101.371 271.347 101.48 272.353C101.608 273.518 101.239 274.591 100.376 275.562C99.5133 276.539 98.4359 277.097 97.1426 277.237C95.1706 277.451 93.4626 276.719 92.0026 275.049L94.1973 273.689C95.0946 274.379 95.9786 274.681 96.8613 274.585C97.4679 274.519 97.9799 274.297 98.3999 273.911C98.8199 273.535 99.0093 273.125 98.9599 272.685C98.8759 271.909 97.9973 271.295 96.3333 270.843C94.6626 270.397 93.4839 269.886 92.8039 269.321C92.1186 268.749 91.7279 268.003 91.6266 267.073C91.5026 265.918 91.8359 264.907 92.6253 264.049C93.4173 263.185 94.4733 262.682 95.7933 262.539C97.1079 262.395 98.6666 262.913 100.445 264.095V264.095ZM112.229 262.994L110.416 264.887C109.876 264.571 109.412 264.333 109.023 264.182C108.629 264.026 108.181 263.973 107.671 264.018C106.468 264.125 105.908 264.615 105.987 265.493C106.041 266.127 106.855 266.67 108.425 267.127C109.997 267.585 111.148 268.139 111.875 268.787C112.604 269.442 113.013 270.263 113.101 271.27C113.207 272.438 112.816 273.503 111.933 274.457C111.053 275.417 109.964 275.954 108.671 276.067C106.693 276.245 104.999 275.478 103.573 273.777L105.793 272.462C106.677 273.171 107.555 273.489 108.44 273.41C109.048 273.355 109.565 273.143 109.991 272.769C110.417 272.399 110.616 271.993 110.576 271.551C110.508 270.774 109.641 270.145 107.985 269.659C106.324 269.181 105.157 268.646 104.488 268.067C103.813 267.482 103.437 266.729 103.356 265.795C103.253 264.641 103.607 263.635 104.412 262.793C105.223 261.945 106.287 261.463 107.609 261.346C108.929 261.229 110.475 261.775 112.229 262.994V262.994ZM114.451 256.582C114.404 255.97 114.587 255.43 115.005 254.953C115.428 254.471 115.943 254.207 116.568 254.158C117.18 254.111 117.725 254.294 118.204 254.702C118.685 255.111 118.951 255.617 118.999 256.229C119.047 256.845 118.861 257.39 118.451 257.87C118.04 258.341 117.528 258.601 116.915 258.649C116.291 258.697 115.741 258.519 115.249 258.118C114.764 257.71 114.499 257.198 114.451 256.582V256.582ZM115.637 261.077L118.587 260.847L119.668 274.767L116.719 274.997L115.637 261.077ZM122.788 267.463C122.664 265.55 123.305 263.807 124.719 262.221C126.131 260.635 127.819 259.778 129.777 259.649C131.792 259.517 133.6 260.133 135.203 261.497C136.804 262.862 137.671 264.518 137.797 266.475C137.927 268.442 137.299 270.218 135.923 271.814C134.543 273.409 132.892 274.269 130.949 274.397C128.884 274.533 127.033 273.914 125.413 272.534C123.795 271.153 122.921 269.463 122.788 267.463V267.463ZM134.951 266.67C134.871 265.477 134.352 264.474 133.385 263.653C132.423 262.831 131.317 262.465 130.073 262.546C128.792 262.63 127.723 263.146 126.855 264.099C125.991 265.054 125.6 266.145 125.681 267.383C125.757 268.565 126.295 269.565 127.284 270.391C128.276 271.211 129.405 271.582 130.66 271.499C131.884 271.419 132.925 270.895 133.78 269.929C134.641 268.959 135.029 267.874 134.951 266.67V266.67ZM140.867 273.382L140.336 259.43L143.292 259.318L143.383 261.631C144.185 260.665 144.925 259.949 145.592 259.478C146.26 259.007 147.019 258.759 147.856 258.729C149.117 258.679 150.211 259.054 151.135 259.854C152.06 260.659 152.545 261.646 152.591 262.822L152.975 272.919L150.019 273.034L149.664 263.789C149.636 263.027 149.368 262.413 148.857 261.93C148.349 261.453 147.72 261.227 146.967 261.257C145.987 261.294 145.161 261.743 144.48 262.601C143.805 263.458 143.491 264.477 143.535 265.653L143.825 273.27L140.867 273.382ZM165.552 265.733C165.576 263.815 166.351 262.127 167.883 260.655C169.413 259.185 171.164 258.461 173.125 258.483C175.144 258.509 176.899 259.262 178.391 260.746C179.883 262.231 180.616 263.949 180.592 265.911C180.569 267.882 179.805 269.605 178.308 271.089C176.809 272.571 175.097 273.301 173.152 273.278C171.08 273.254 169.284 272.493 167.775 270.991C166.268 269.49 165.528 267.737 165.552 265.733V265.733ZM177.739 265.883C177.751 264.689 177.311 263.649 176.412 262.754C175.516 261.862 174.441 261.409 173.193 261.394C171.912 261.379 170.805 261.811 169.865 262.694C168.932 263.579 168.456 264.635 168.441 265.877C168.428 267.061 168.884 268.101 169.807 269.001C170.731 269.894 171.831 270.351 173.088 270.367C174.312 270.381 175.392 269.938 176.319 269.042C177.253 268.142 177.723 267.091 177.739 265.883V265.883ZM193.277 251.731L193.119 254.706C192.284 254.106 191.557 253.79 190.936 253.758C190.416 253.73 189.993 253.898 189.679 254.27C189.364 254.635 189.189 255.163 189.152 255.85L188.969 259.345L192.863 259.55L192.72 262.249L188.825 262.042L188.232 273.287L185.277 273.131L185.871 261.887L183.299 261.751L183.44 259.051L186.015 259.189L186.188 255.895C186.272 254.31 186.749 253.063 187.623 252.161C188.491 251.258 189.616 250.843 190.983 250.915C191.668 250.951 192.427 251.223 193.277 251.731V251.731ZM208.796 253.195L211.741 253.499L209.833 272.005L216.829 272.726L216.527 275.657L206.587 274.631L208.796 253.195ZM234.083 272.103L222.287 270.025C222.295 271.49 222.693 272.629 223.487 273.443C224.287 274.258 225.216 274.762 226.291 274.953C227.944 275.243 229.452 274.805 230.807 273.637L232.651 275.61C230.695 277.382 228.376 278.027 225.697 277.557C223.64 277.193 222.048 276.19 220.907 274.541C219.773 272.899 219.385 271.037 219.753 268.955C220.099 267.005 221.096 265.446 222.749 264.261C224.403 263.079 226.236 262.665 228.26 263.021C230.248 263.373 231.824 264.394 232.985 266.093C234.147 267.793 234.513 269.799 234.083 272.103V272.103ZM223.005 267.759L231.475 269.251C230.864 267.198 229.641 266.007 227.807 265.685C225.801 265.33 224.201 266.022 223.005 267.759ZM251.145 268.503L254.015 269.223L250.621 282.766L247.749 282.047L248.424 279.359C246.509 281.047 244.521 281.631 242.451 281.113C240.656 280.663 239.293 279.577 238.373 277.851C237.452 276.133 237.243 274.27 237.745 272.266C238.223 270.367 239.279 268.87 240.919 267.774C242.556 266.679 244.243 266.346 245.969 266.779C247.04 267.049 247.98 267.591 248.796 268.421C249.607 269.243 250.159 270.191 250.453 271.259L251.145 268.503ZM249.845 275.398C250.156 274.162 249.975 272.983 249.299 271.881C248.624 270.773 247.661 270.059 246.412 269.746C245.189 269.441 244.017 269.61 242.889 270.262C241.763 270.914 241.048 271.831 240.752 273.019C240.431 274.302 240.603 275.505 241.259 276.629C241.916 277.751 242.88 278.47 244.145 278.787C245.393 279.101 246.583 278.921 247.703 278.25C248.821 277.583 249.536 276.633 249.845 275.398V275.398ZM262.672 272.209L261.688 274.914C262.703 274.045 263.593 273.478 264.359 273.202C265.129 272.935 265.988 272.97 266.931 273.313C267.199 273.409 267.556 273.611 268.013 273.919L266.191 276.391C265.695 276.095 265.359 275.911 265.188 275.85C264.245 275.507 263.336 275.546 262.459 275.971C261.585 276.394 260.973 277.093 260.619 278.075L257.976 285.359L255.195 284.35L259.953 271.225L262.672 272.209ZM265.903 288.17L268.548 289.499L271.975 282.693C272.503 281.641 273.272 280.901 274.279 280.477C275.288 280.054 276.229 280.062 277.103 280.502C277.777 280.841 278.22 281.342 278.432 282.003C278.647 282.674 278.584 283.341 278.24 284.022L274.081 292.286L276.727 293.615L281.269 284.59C281.8 283.538 281.851 282.439 281.431 281.289C281.007 280.139 280.229 279.283 279.105 278.718C278.355 278.339 277.571 278.19 276.76 278.281C275.948 278.369 274.953 278.639 273.784 279.097L274.825 277.029L272.18 275.697L265.903 288.17ZM288.945 279.327C289.26 278.801 289.723 278.466 290.341 278.319C290.963 278.173 291.535 278.254 292.073 278.575C292.6 278.893 292.939 279.358 293.092 279.969C293.248 280.581 293.172 281.146 292.857 281.673C292.54 282.202 292.073 282.542 291.461 282.693C290.852 282.839 290.284 282.755 289.757 282.439C289.22 282.118 288.875 281.655 288.708 281.043C288.548 280.427 288.628 279.858 288.945 279.327V279.327ZM287.311 283.679L289.848 285.201L282.669 297.177L280.132 295.654L287.311 283.679ZM286.088 299.013L288.355 300.917L293.259 295.082C294.017 294.181 294.935 293.639 296.012 293.458C297.092 293.281 298.005 293.503 298.755 294.135C299.332 294.619 299.648 295.21 299.701 295.902C299.757 296.605 299.541 297.238 299.051 297.822L293.097 304.905L295.364 306.809L301.867 299.074C302.624 298.171 302.928 297.114 302.784 295.898C302.637 294.683 302.077 293.671 301.113 292.861C300.471 292.319 299.741 291.994 298.933 291.894C298.123 291.794 297.093 291.826 295.849 292.002L297.339 290.229L295.072 288.325L286.088 299.013ZM316.619 309.087L318.461 311.314L308.136 319.858C306.615 321.117 304.884 321.661 302.951 321.49C301.019 321.319 299.428 320.487 298.193 318.994C297.255 317.859 296.699 316.562 296.521 315.106C296.347 313.646 296.7 312.179 297.58 310.697L299.533 313.057C298.961 314.722 299.199 316.183 300.237 317.439C300.943 318.294 301.853 318.769 302.965 318.862C304.076 318.962 305.061 318.651 305.92 317.941L307.953 316.258C305.455 316.473 303.512 315.746 302.124 314.07C300.981 312.687 300.556 311.015 300.843 309.051C301.129 307.089 302.049 305.463 303.596 304.182C305.148 302.898 306.888 302.301 308.819 302.385C310.755 302.47 312.289 303.202 313.429 304.581C314.904 306.363 315.211 308.49 314.352 310.965L316.619 309.087ZM311.54 313.835C312.553 312.995 313.105 311.943 313.207 310.678C313.305 309.411 312.923 308.259 312.064 307.222C311.277 306.27 310.228 305.721 308.923 305.582C307.616 305.442 306.503 305.757 305.577 306.521C304.575 307.35 304.009 308.419 303.875 309.735C303.743 311.051 304.089 312.203 304.907 313.19C305.733 314.193 306.796 314.762 308.091 314.887C309.387 315.011 310.537 314.662 311.54 313.835V313.835ZM333.571 333.721L327.064 341.379L336.669 341.203L337.817 343.493L321.913 343.785L328.2 336.387L318.629 337.018L328.268 324.482L329.427 326.789L323.599 334.379L333.571 333.721ZM343.111 344.967C343.676 344.729 344.248 344.735 344.833 344.981C345.421 345.231 345.835 345.637 346.076 346.215C346.315 346.782 346.312 347.357 346.073 347.941C345.836 348.526 345.44 348.937 344.873 349.173C344.304 349.413 343.727 349.409 343.144 349.169C342.567 348.926 342.16 348.523 341.923 347.955C341.68 347.378 341.675 346.801 341.904 346.209C342.14 345.619 342.541 345.205 343.111 344.967V344.967ZM339.216 347.505L340.36 350.234L327.483 355.63L326.34 352.901L339.216 347.505ZM346.149 355.091L342.333 356.35L341.603 354.137L339.003 354.994L339.733 357.207L329.075 360.723L330.001 363.535L340.66 360.018L341.576 362.795L344.176 361.938L343.261 359.162L347.076 357.902L346.149 355.091ZM353 363.609L353.615 366.502L343.579 368.638C344.664 369.245 345.488 369.846 346.048 370.451C346.609 371.054 346.996 371.857 347.209 372.85C347.455 374.014 347.225 375.119 346.517 376.154C345.807 377.19 344.835 377.839 343.592 378.105L334.057 380.134L333.441 377.239L342.203 375.375C343.068 375.19 343.713 374.822 344.141 374.274C344.573 373.725 344.709 373.091 344.557 372.378C344.336 371.333 343.749 370.523 342.809 369.959C341.861 369.39 340.829 369.223 339.709 369.462L332.131 371.075L331.515 368.182L353 363.609ZM357.831 390.722L357.976 393.841L343.028 401.325L358.609 407.507L358.755 410.615L336.069 401.613L357.831 390.722ZM355.651 413.907C356.264 413.914 356.785 414.145 357.227 414.603C357.665 415.067 357.885 415.602 357.879 416.229C357.872 416.843 357.64 417.37 357.192 417.814C356.741 418.255 356.216 418.475 355.6 418.469C354.983 418.462 354.456 418.23 354.015 417.778C353.583 417.326 353.369 416.795 353.375 416.181C353.383 415.554 353.607 415.023 354.051 414.569C354.501 414.119 355.033 413.901 355.651 413.907V413.907ZM351.069 414.694L351.037 417.653L337.076 417.499L337.107 414.541L351.069 414.694ZM348.829 430.95L347.204 428.894C347.592 428.402 347.892 427.975 348.096 427.609C348.303 427.239 348.417 426.805 348.443 426.294C348.501 425.089 348.095 424.465 347.212 424.422C346.577 424.389 345.927 425.119 345.259 426.613C344.589 428.109 343.884 429.171 343.141 429.803C342.393 430.434 341.523 430.729 340.513 430.678C339.343 430.621 338.34 430.089 337.517 429.085C336.687 428.078 336.305 426.926 336.369 425.629C336.467 423.647 337.457 422.074 339.337 420.895L340.336 423.274C339.512 424.051 339.077 424.878 339.035 425.767C339.003 426.374 339.144 426.917 339.455 427.389C339.763 427.863 340.139 428.115 340.581 428.137C341.359 428.175 342.103 427.403 342.811 425.83C343.512 424.25 344.203 423.166 344.868 422.585C345.539 421.997 346.339 421.727 347.272 421.774C348.432 421.831 349.379 422.319 350.103 423.233C350.833 424.153 351.164 425.271 351.099 426.601C351.032 427.922 350.279 429.377 348.829 430.95V430.95ZM354.633 434.733C355.243 434.793 355.743 435.069 356.14 435.563C356.539 436.063 356.709 436.617 356.647 437.241C356.587 437.851 356.311 438.355 355.824 438.758C355.337 439.158 354.792 439.331 354.181 439.271C353.567 439.209 353.061 438.933 352.664 438.443C352.269 437.955 352.105 437.407 352.165 436.795C352.227 436.171 352.497 435.663 352.98 435.249C353.467 434.843 354.017 434.67 354.633 434.733ZM350 435.111L349.707 438.055L335.813 436.677L336.105 433.733L350 435.111ZM342.595 441.661C344.476 442.033 345.996 443.102 347.163 444.877C348.329 446.65 348.724 448.502 348.343 450.426C347.952 452.409 346.891 453.995 345.16 455.191C343.427 456.389 341.604 456.797 339.68 456.417C337.747 456.034 336.192 454.97 335.005 453.227C333.82 451.485 333.415 449.667 333.792 447.759C334.193 445.727 335.268 444.099 337.02 442.889C338.771 441.681 340.631 441.271 342.595 441.661V441.661ZM340.228 453.614C341.399 453.847 342.501 453.603 343.547 452.879C344.587 452.163 345.227 451.189 345.468 449.966C345.717 448.707 345.495 447.541 344.797 446.455C344.096 445.377 343.144 444.715 341.927 444.474C340.765 444.246 339.661 444.506 338.607 445.25C337.56 445.995 336.911 446.991 336.667 448.226C336.428 449.427 336.667 450.569 337.379 451.645C338.095 452.726 339.043 453.381 340.228 453.614ZM332.213 457.602L345.797 460.829L345.115 463.707L342.86 463.173C343.577 464.207 344.068 465.111 344.343 465.881C344.616 466.649 344.652 467.446 344.46 468.263C344.169 469.487 343.513 470.443 342.495 471.118C341.473 471.795 340.391 471.998 339.244 471.726L329.413 469.39L330.097 466.51L339.097 468.649C339.84 468.825 340.501 468.731 341.105 468.367C341.7 468.009 342.087 467.462 342.26 466.727C342.487 465.774 342.275 464.858 341.632 463.973C340.987 463.091 340.091 462.515 338.944 462.243L331.529 460.481L332.213 457.602Z" fill="#EC008C"/>
<path fill-rule="evenodd" clip-rule="evenodd" d="M138.073 417.319C141.964 415.833 146.752 412.725 150.908 412.489C154.641 423.816 156.134 438.512 149.192 447.576C142.904 441.425 138.674 428.415 138.073 417.319ZM137.19 407.256C132.713 401.82 135.908 399.461 136.229 398.495C137.872 393.563 137.57 393.869 139.762 389.577C141.324 390.873 142.64 393.169 143.102 395.403C144.966 404.417 143.733 397.235 145.745 402.42C143.137 404.457 141.593 405.977 137.19 407.256ZM147.313 384.963C149.429 383.261 156.753 378.787 159.077 378.312C158.096 381.389 157.622 384.437 156.337 387.88C155.849 389.187 155.233 390.667 154.472 391.968L151.61 395.391L147.313 384.963ZM179.501 344.1C180.916 346.859 182.008 347.023 185.46 347.893C188.837 348.744 190.644 348.443 193.214 349.815C192.501 353.429 192.109 352.837 191.098 355.585L185.364 373.187C182.966 380.551 189.713 388.36 192.098 395.249C184.721 400.811 183.99 396.973 182.944 389.572C182.248 384.648 178.486 379.864 178.037 375.495C177.396 369.241 182.352 365.988 177.269 358.528C172.246 351.155 178.504 361.347 173.5 345.255C172.14 346.263 173.022 345.525 171.833 346.637C167.938 350.28 168.692 352.132 168.4 355.329C155.832 358.313 160.882 364.157 160.084 374.08L147.002 382.449C144.229 381.535 144.97 380.876 142.069 379.476C143.17 383.28 144.033 382.217 142.576 384.987C138.246 384.869 140.537 384.26 136.804 381.835L138.476 387.105L135.124 388.639L132.904 382.801C130.829 386.557 134.949 387.725 131.189 389.775C129.037 389.023 130.621 389.555 129.849 387.776C129.08 386.916 130.12 386.007 128.618 385.76C124.116 389.492 130.324 391.355 125.145 395.191C122.996 396.783 119.414 396.993 118.766 399.977C121.148 401.547 122.89 399.203 126.046 397.496C130.496 402.58 128.217 402.667 127.018 410.007C125.188 421.208 129.229 419.427 130.17 419.465C131.328 419.512 132.012 419.037 132.436 418.836C133.662 426.397 124.489 442.083 121.377 447.2C110.884 464.46 98.1743 482.54 110.813 506.476C114.88 514.18 124.157 525.519 129.286 528.175C130.306 519.527 127.812 516.361 130.112 507.639C119.004 501.111 116.614 486.141 120.093 469.865C121.929 461.281 129.982 438.773 134.618 434.107C137.513 439.659 137.841 446.816 141.657 453.356C145.513 459.965 143.448 456.465 138.628 471.312C133.572 486.879 134.176 500.815 135.808 517.839L148.028 527.181L146.746 510.152C149.208 511.549 160.296 520.787 161.213 522.125C161.761 526.288 160.948 530.644 159.596 534.22C157.421 539.972 155.345 537.833 152.778 540.051C168.77 542.927 164.038 537.484 167.793 525.6C170.25 526.772 171.184 528.323 171.96 531.929C172.808 535.869 172.066 537.785 171.356 540.873C180.054 539.789 178.597 520.649 179.68 511.492C181.092 499.56 181.326 487.177 181.054 474.976C180.633 456.003 173.861 422.929 185.668 410.963C190.409 422.06 186.554 431.928 185 443.168C181.452 468.807 182.856 520.349 181.208 529.22C180.357 533.795 176.994 539.725 176.894 542.329C186.328 543.257 187.836 542.589 196.352 541.751C202.934 541.101 209.124 542.697 215.973 541.804C224.102 540.744 224.813 539.263 234.648 540.399C239.821 540.996 247.552 542.507 251.634 540.593C251 537.755 231.638 527.957 226.028 524.156C214.79 516.541 212.152 491.78 208.926 476.963C206.53 465.952 206.338 469.267 210.421 459.939C217.842 442.984 204.62 440.087 205.918 426.776C210.005 432.203 208.59 437.187 218.12 435.639C215.609 430.972 212.958 436.487 215.87 422.399C224.069 426.627 221.182 435.52 220.804 439.384C219.632 451.361 215.616 463.841 230.598 461.176C231.536 461.009 232.744 460.537 233.229 460.385C233.489 460.304 234.197 460.055 234.462 459.983C239.245 458.684 237.29 460.395 238.945 458.688C234.309 456.288 230.385 456.409 225.028 456.291C225.3 453.8 225.356 453.741 226.026 451.543C226.78 449.073 226.432 451.153 227.008 447.533C228.654 437.188 233.041 429.592 229.092 423.368C224.153 415.584 217.234 407.587 218.741 395.249C221.517 392.553 221.425 395.145 222.525 390.799C223.448 387.157 222.845 388.317 224.3 384.591C227.776 375.695 218.44 367.292 212.532 369.412C207.469 371.229 209.606 373.688 202.253 374.72C201.834 379.869 200.47 379.124 199.106 382.512C200.63 384.108 202.712 385.548 201.866 387.817C199.186 388.085 197.132 382.609 195.866 380.255C192.968 374.864 193.732 375.457 195.212 369.251C199.352 351.897 203.35 341.141 185.645 344.46C181.873 345.167 183.014 344.645 179.501 344.1" fill="#EC008C"/>
<path fill-rule="evenodd" clip-rule="evenodd" d="M646.975 612.043C646.775 613.23 646.669 614.323 646.642 615.31L646.629 615.39C642.229 619.656 638.749 621.883 636.362 621.883C635.295 621.883 634.389 621.443 633.655 620.536C632.922 619.63 632.549 618.51 632.549 617.19C632.549 614.71 633.869 611.403 636.509 607.256C635.215 607.923 633.802 608.39 632.269 608.656C631.135 610.763 627.922 614.443 625.482 616.883L623.962 615.443C625.322 614.003 628.309 609.79 629.415 608.136C627.909 607.483 627.762 606.843 627.762 605.536C627.762 604.203 628.215 602.776 629.135 601.256C630.055 599.736 631.322 598.963 632.922 598.963C634.282 598.963 634.975 599.67 634.975 601.056C634.975 602.15 634.575 603.71 633.789 605.75C636.695 605.43 639.242 603.203 641.402 599.07L643.789 598.963L641.362 605.696C640.349 608.523 639.695 610.456 639.402 611.483C639.109 612.51 638.949 613.416 638.949 614.203C638.949 614.936 639.122 615.523 639.455 615.963C639.802 616.403 640.255 616.616 640.842 616.616C641.469 616.616 642.069 616.403 642.655 615.976C643.229 615.55 644.989 613.936 646.975 612.043" fill="#00A650"/>
<path fill-rule="evenodd" clip-rule="evenodd" d="M656.469 589.709C655.629 589.709 654.522 589.283 653.135 588.429C652.575 590.349 651.789 592.083 650.775 593.629C651.842 594.523 653.122 594.989 654.629 594.989C657.722 594.989 659.269 592.883 659.269 588.696C658.349 589.376 657.402 589.709 656.469 589.709Z" fill="#293389"/>
<path fill-rule="evenodd" clip-rule="evenodd" d="M659.842 615.429C655.735 619.696 652.655 621.883 650.615 621.883C649.495 621.883 648.562 621.309 647.788 620.163C647.015 619.016 646.628 617.589 646.628 615.856C646.628 615.683 646.628 615.496 646.642 615.309C646.668 614.323 646.775 613.229 646.975 612.043C647.508 608.843 648.642 604.949 650.388 600.363C652.615 599.896 654.842 599.429 657.068 598.963H657.388C656.508 601.709 655.642 604.443 654.762 607.176C653.682 610.576 653.135 613.003 653.135 614.456C653.135 615.043 653.268 615.496 653.508 615.856C653.775 616.216 654.082 616.403 654.468 616.403C655.162 616.403 655.842 616.163 656.535 615.669C657.228 615.176 657.762 614.709 659.242 613.083L659.842 615.429Z" fill="#2C3687"/>
<path fill-rule="evenodd" clip-rule="evenodd" d="M667.896 600.044C669.107 599.73 670.327 599.47 671.555 599.274C672.775 599.066 673.509 598.968 673.76 598.968C673.931 598.968 674.021 599.04 674.021 599.174C674.021 599.444 673.948 599.713 673.805 599.99C673.519 600.797 673.375 601.569 673.375 602.294C673.392 603.209 673.921 604.446 674.971 606.025C676.02 607.604 676.549 609.064 676.549 610.42C676.549 613.09 675.267 615.673 672.693 618.157C670.129 620.641 667.465 621.886 664.713 621.886C663.521 621.886 662.436 621.572 661.451 620.945C660.472 620.317 659.98 619.645 659.98 618.928C659.98 618.506 660.463 617.709 661.44 616.542C662.409 615.368 663.109 614.785 663.529 614.785C664.085 614.785 664.588 615.502 665.027 616.937C665.467 618.372 666.22 619.089 667.287 619.089C668.363 619.089 669.367 618.596 670.299 617.601C671.24 616.606 671.708 615.538 671.708 614.39C671.725 613.288 671.133 611.817 669.941 609.988C668.74 608.15 667.951 606.616 667.565 605.37C665.529 608.642 662.956 611.996 659.836 615.43L659.227 613.064C663.521 608.5 666.408 604.16 667.896 600.044Z" fill="#0095DA"/>
<path fill-rule="evenodd" clip-rule="evenodd" d="M698.095 617.523C697.775 617.523 697.495 617.376 697.268 617.069C697.028 616.763 696.922 616.429 696.922 616.029C696.922 615.176 697.548 613.096 698.815 609.803C700.095 606.496 700.722 604.056 700.722 602.469C700.722 601.416 700.442 600.576 699.895 599.923C699.335 599.296 698.615 598.963 697.708 598.963C696.895 598.963 696.108 599.149 695.322 599.496C694.562 599.843 693.002 600.696 690.655 602.029C693.082 598.843 694.882 596.109 696.015 593.856C697.162 591.603 697.722 589.536 697.722 587.669C697.722 586.563 697.562 585.643 697.242 584.896C696.935 584.163 696.548 583.803 696.095 583.803C695.855 583.803 694.882 584.096 693.162 584.669C691.468 585.269 689.468 586.016 687.175 586.949C684.095 592.003 681.828 596.776 680.402 601.296C678.962 605.803 678.242 610.656 678.242 615.883C678.242 618.043 678.362 620.043 678.588 621.883L684.428 620.523C684.428 616.003 684.735 612.136 685.362 608.923C686.828 607.283 688.228 605.976 689.548 605.016C690.895 604.069 691.908 603.589 692.602 603.589C693.282 603.589 693.628 603.949 693.628 604.669C693.628 605.296 693.202 606.643 692.348 608.709C690.735 612.523 689.922 615.483 689.922 617.589C689.922 618.816 690.308 619.856 691.082 620.669C691.868 621.483 692.855 621.883 694.042 621.883C696.668 621.883 700.002 619.829 704.028 615.736C704.055 614.629 704.135 613.549 704.268 612.496C701.255 615.856 699.215 617.523 698.095 617.523ZM686.095 604.656C687.228 599.789 688.682 595.616 690.482 592.149C692.268 588.696 693.628 586.976 694.588 586.976C695.175 586.976 695.468 587.496 695.468 588.549C695.468 592.016 692.348 597.376 686.095 604.656Z" fill="#A54786"/>
<path fill-rule="evenodd" clip-rule="evenodd" d="M729.735 614.39C729.735 614.856 729.762 615.296 729.828 615.723C725.882 619.83 722.495 621.883 719.655 621.883C718.495 621.883 717.535 621.47 716.828 620.656C716.108 619.83 715.748 618.71 715.748 617.336C715.748 615.443 716.522 612.576 718.055 608.683C718.882 606.603 719.295 605.27 719.295 604.71C719.295 604.136 719.068 603.87 718.628 603.87C718.388 603.87 718.068 603.99 717.668 604.23C717.295 604.483 716.868 604.83 716.375 605.256C715.935 605.67 715.455 606.163 714.908 606.736C714.442 607.23 713.922 607.79 713.375 608.416L711.908 610.136C711.268 610.923 710.855 611.763 710.695 612.643C710.442 614.136 710.268 615.496 710.175 616.75C710.122 617.683 710.095 618.936 710.095 620.51L704.308 621.883C704.122 619.523 704.015 617.763 704.015 616.603C704.015 616.31 704.015 616.03 704.028 615.736C704.055 614.63 704.135 613.55 704.268 612.496V612.483C704.428 611.15 704.682 609.856 705.002 608.603C705.655 606.083 706.708 603.243 708.162 600.096L714.562 598.856C713.215 602.443 712.335 605.283 711.908 607.376C714.775 604.163 717.068 601.95 718.748 600.71C720.442 599.483 721.948 598.856 723.255 598.856C724.148 598.856 724.895 599.203 725.495 599.87C726.082 600.55 726.375 601.39 726.375 602.403C726.375 604.083 725.628 606.856 724.108 610.736C723.068 613.403 722.548 615.136 722.548 615.936C722.548 617.003 722.975 617.523 723.842 617.523C725.095 617.523 727.095 615.923 729.842 612.723C729.762 613.27 729.735 613.83 729.735 614.39Z" fill="#C96C38"/>
<path fill-rule="evenodd" clip-rule="evenodd" d="M754.615 615.79C753.802 616.51 753.042 616.883 752.362 616.883C751.295 616.883 750.762 616.123 750.762 614.603C750.762 613.15 751.362 610.496 752.575 606.603L754.909 598.856H753.429L748.029 601.883C747.162 599.87 745.629 598.856 743.429 598.856C741.709 598.856 739.709 599.59 737.442 601.07C735.202 602.55 733.335 604.47 731.895 606.856C730.762 608.736 730.069 610.696 729.842 612.723C729.762 613.27 729.735 613.83 729.735 614.39C729.735 614.856 729.762 615.296 729.829 615.723C730.002 617.256 730.509 618.59 731.349 619.723C732.429 621.163 733.735 621.883 735.269 621.883C736.842 621.883 738.375 621.283 739.842 620.096C741.322 618.896 742.935 617.056 744.695 614.536C744.535 619.443 745.842 621.883 748.602 621.883C749.709 621.883 750.855 621.483 752.069 620.67C753.282 619.883 755.282 618.136 758.082 615.483V612.47C756.602 613.963 755.442 615.07 754.615 615.79ZM743.815 612.403C742.269 615.39 740.615 616.883 738.869 616.883C738.149 616.883 737.562 616.59 737.109 616.003C736.642 615.416 736.402 614.656 736.402 613.696C736.402 611.203 737.189 608.456 738.749 605.483C740.309 602.496 741.975 601.016 743.722 601.016C744.455 601.016 745.042 601.296 745.482 601.843C745.922 602.39 746.135 603.163 746.135 604.136C746.135 606.656 745.362 609.416 743.815 612.403" fill="#485E88"/>
<path fill-rule="evenodd" clip-rule="evenodd" d="M562.82 625.442C560.576 625.442 558.328 625.14 556.211 624.394C555.082 623.996 554.172 623.548 553.522 623.042C528.283 603.496 510.415 558.442 497.162 543.029C481.502 555.352 485.327 603.693 490.23 625.442H416.09C419.999 622.052 422.643 615.613 422.643 608.242C422.643 598.736 418.242 590.789 412.388 588.922L412.176 383.229H511.11H516.334C507.8 422.682 505.908 442.349 507.696 486.229C539.122 456.082 541.375 397.882 576.283 380.322C621.843 409.256 636.723 371.736 604.628 414.069C592.95 429.469 554.683 507.922 542.295 530.682C566.956 562.152 604.956 597.632 634.618 625.442H562.82Z" fill="#293389"/>
<path fill-rule="evenodd" clip-rule="evenodd" d="M581.362 203.936C598.842 227.389 612.229 252.869 600.469 286.683C598.082 293.536 590.655 308.709 585.909 314.203C585.789 314.349 585.589 314.536 585.469 314.669C585.335 314.803 585.122 314.976 585.002 315.096C577.429 322.496 570.069 333.616 549.855 346.763C543.922 350.629 538.242 353.949 532.415 357.003C520.442 363.243 501.535 372.389 490.402 383.176C489.922 383.629 489.469 384.096 489.029 384.549C487.802 385.829 486.695 387.136 485.722 388.456C485.562 388.669 485.402 388.896 485.255 389.123C485.095 389.349 484.949 389.563 484.802 389.789C484.549 390.149 484.322 390.509 484.109 390.883C483.935 391.189 483.749 391.509 483.589 391.816C484.909 390.749 486.189 389.616 487.482 388.483C489.482 386.723 491.509 384.896 493.562 383.203C493.749 383.043 493.935 382.883 494.122 382.736C498.162 379.469 501.415 377.629 506.495 374.616C528.055 361.803 556.922 351.816 573.695 329.563C574.482 328.523 574.909 327.816 576.029 326.576C578.295 324.056 576.295 325.509 579.122 323.936C577.362 328.496 573.749 334.483 570.855 337.416C570.775 337.456 570.602 337.256 570.575 337.349C569.775 340.869 570.815 336.803 569.229 337.309C569.162 337.323 568.909 337.403 568.829 337.443L560.762 345.163C549.215 355.336 533.229 363.043 519.789 370.243C513.255 373.749 504.895 378.669 498.709 383.203C498.442 383.403 498.175 383.589 497.922 383.776C497.455 384.136 496.989 384.483 496.549 384.829C495.855 385.376 495.189 385.923 494.589 386.443C494.589 386.443 494.589 386.429 494.575 386.443C494.189 386.776 493.802 387.123 493.429 387.483C489.255 391.376 486.429 394.043 482.815 398.229C481.055 400.269 475.135 408.096 474.269 410.669C475.215 408.216 484.255 397.496 489.135 394.429C490.482 393.589 491.615 392.829 492.629 392.136C493.135 391.803 493.615 391.469 494.082 391.136C497.375 388.856 499.895 386.976 505.162 384.096C505.695 383.816 506.242 383.523 506.829 383.216C507.455 382.896 508.109 382.563 508.815 382.203C511.215 380.976 513.495 380.003 516.202 378.923C517.082 378.589 519.549 377.416 520.042 377.229C526.895 374.789 523.842 376.763 525.175 377.869C521.455 378.589 516.722 380.669 511.962 383.216C511.962 383.216 511.949 383.216 511.949 383.229C505.202 386.869 498.429 391.496 494.469 394.643C494.242 394.829 494.015 395.016 493.802 395.189C493.375 395.536 493.002 395.856 492.655 396.163C494.389 395.336 495.575 394.256 497.429 393.123C498.055 392.736 498.722 392.349 499.442 391.963C499.789 391.763 500.162 391.563 500.535 391.376C501.295 390.976 502.095 390.576 502.922 390.163C504.522 389.389 506.242 388.616 508.042 387.816C508.589 387.576 509.149 387.336 509.722 387.096C510.469 386.776 511.242 386.456 512.015 386.123C513.335 385.576 514.695 385.029 516.055 384.483C525.135 380.843 534.735 377.376 540.655 374.816C550.589 370.536 564.402 362.083 570.922 353.523C573.522 350.136 575.269 346.069 578.162 342.789C574.949 358.936 553.722 373.256 539.015 379.563C531.029 382.976 522.322 386.603 514.802 390.389C514.055 390.763 513.215 391.203 512.495 391.576C508.282 393.789 504.015 395.856 500.442 398.109C495.615 401.149 489.402 405.763 485.935 410.269C484.602 411.789 484.029 412.523 482.709 414.176C481.069 416.256 478.255 420.163 477.202 423.123C484.175 418.123 485.962 409.683 509.949 401.403C510.895 401.083 511.895 400.763 512.789 400.483C519.175 398.536 524.642 397.709 531.962 395.456C538.615 393.416 546.789 389.803 553.775 388.429L552.509 389.816C546.602 394.803 529.322 397.616 512.015 404.669C511.949 404.696 511.869 404.723 511.802 404.763C511.202 405.016 510.602 405.269 510.002 405.523C508.802 406.029 507.602 406.563 506.415 407.123C505.815 407.403 505.229 407.683 504.629 407.976C504.042 408.269 503.455 408.563 502.869 408.869C502.389 409.109 501.922 409.363 501.455 409.603C500.175 410.296 498.909 411.016 497.655 411.776C497.175 412.069 496.695 412.363 496.215 412.669C493.149 414.616 490.202 416.789 487.455 419.216C486.989 419.629 486.522 420.043 486.069 420.483C486.055 420.496 486.042 420.509 486.029 420.523C485.522 420.989 485.029 421.469 484.562 421.976C484.455 422.069 484.362 422.163 484.269 422.269C483.855 422.683 483.455 423.109 483.069 423.536C482.962 423.656 482.855 423.776 482.762 423.883C482.309 424.376 481.882 424.869 481.469 425.389C480.922 426.029 480.402 426.696 479.895 427.363C479.709 427.603 479.535 427.829 479.375 428.069C479.135 428.389 478.909 428.709 478.682 429.043C478.482 429.323 478.282 429.616 478.095 429.909C477.869 430.243 477.655 430.589 477.442 430.923C477.255 431.203 477.082 431.483 476.922 431.763C476.469 432.509 476.029 433.283 475.615 434.069C475.282 434.656 474.975 435.256 474.695 435.869C474.629 436.003 474.562 436.136 474.509 436.269C474.349 436.563 474.215 436.869 474.082 437.176C473.922 437.536 473.762 437.909 473.602 438.283C473.429 438.656 473.282 439.043 473.135 439.429C472.975 439.816 472.815 440.216 472.682 440.616C472.562 440.896 472.469 441.176 472.375 441.456C472.135 442.136 471.909 442.829 471.695 443.536C471.535 444.043 471.389 444.563 471.242 445.096C470.829 446.589 470.469 448.136 470.175 449.736C470.122 449.989 470.069 450.256 470.029 450.509C469.895 451.269 469.775 452.043 469.669 452.829C469.575 453.496 469.495 454.149 469.429 454.829C469.402 455.016 469.389 455.216 469.375 455.416C469.282 456.176 469.229 456.949 469.175 457.736C469.175 457.816 469.162 457.896 469.162 457.989C469.109 458.896 469.069 459.803 469.042 460.736C469.762 462.389 470.429 464.003 471.082 465.563C471.095 465.563 471.095 465.563 471.095 465.576C490.962 513.976 476.669 517.323 502.295 551.869C481.535 542.563 464.469 448.003 439.482 414.763C439.162 414.309 438.829 413.869 438.469 413.443C438.242 413.149 438.015 412.856 437.775 412.576C437.589 412.363 437.415 412.136 437.229 411.923C435.202 409.509 432.389 406.203 429.575 402.336C429.482 402.203 429.375 402.056 429.269 401.923C428.949 401.469 428.615 401.016 428.295 400.549C427.549 399.483 426.815 398.389 426.122 397.296C425.362 396.083 424.629 394.843 423.935 393.576C423.709 393.163 423.482 392.749 423.269 392.336C422.909 391.629 422.562 390.923 422.242 390.203C422.082 389.869 421.935 389.536 421.789 389.203C420.882 387.176 420.149 385.096 419.615 382.989C418.375 378.149 418.269 373.189 420.055 368.456C419.989 373.896 420.402 378.643 421.495 383.003C422.149 385.643 423.055 388.149 424.242 390.576C424.669 391.456 425.229 392.416 425.909 393.443C426.055 393.669 426.202 393.896 426.362 394.123C426.615 394.483 426.869 394.856 427.135 395.229C428.909 397.709 431.175 400.483 433.682 403.389C433.882 403.629 434.095 403.869 434.309 404.123C435.295 405.269 436.309 406.429 437.335 407.603C437.575 407.869 437.815 408.149 438.055 408.416C439.269 409.789 440.495 411.149 441.709 412.523C442.122 412.976 442.522 413.443 442.935 413.896C446.389 417.789 449.722 421.589 452.362 424.923C452.535 425.149 452.722 425.376 452.895 425.616C453.442 426.309 453.935 426.963 454.389 427.603C454.549 427.816 454.695 428.029 454.842 428.229C454.989 428.443 455.135 428.643 455.269 428.843C456.015 429.963 456.642 430.989 457.082 431.909C457.162 432.043 457.215 432.176 457.282 432.309C457.322 432.416 457.362 432.509 457.402 432.603C457.469 432.763 457.522 432.909 457.575 433.056C457.602 433.149 457.629 433.229 457.655 433.296C457.722 433.496 457.775 433.696 457.815 433.883C457.815 433.909 457.815 433.923 457.829 433.949C457.869 434.176 457.895 434.376 457.895 434.563C457.895 434.483 457.882 434.389 457.882 434.296C457.722 427.723 449.775 417.376 445.602 412.789C443.442 410.403 441.335 409.416 439.695 406.096C443.655 408.443 448.615 414.443 451.709 418.269L460.842 434.163C461.975 425.283 462.775 424.323 460.429 414.643C457.722 403.456 451.882 394.269 445.429 385.283L443.829 383.056C433.735 368.989 426.055 357.363 425.682 337.456C425.415 323.189 430.562 312.309 433.282 300.269C433.389 317.736 420.362 334.763 436.109 362.656C441.415 372.056 445.842 376.576 450.935 382.976C451.589 383.803 452.269 384.669 452.949 385.576C453.255 385.976 453.562 386.389 453.869 386.816C457.029 391.123 460.509 396.496 464.629 404.323C464.815 404.669 465.002 405.029 465.189 405.403C465.575 406.136 465.962 406.883 466.349 407.656C466.349 407.203 466.335 406.763 466.322 406.323C466.322 406.003 466.295 405.669 466.282 405.349C466.229 404.443 466.135 403.563 466.002 402.696C465.962 402.416 465.922 402.136 465.869 401.856C465.815 401.456 465.749 401.056 465.655 400.656C465.589 400.323 465.522 399.976 465.429 399.643C465.429 399.603 465.429 399.576 465.415 399.549C465.322 399.203 465.229 398.856 465.135 398.509C464.962 397.803 464.749 397.123 464.509 396.443C464.389 396.096 464.269 395.763 464.149 395.429C463.389 393.416 462.482 391.483 461.455 389.616C461.109 388.989 460.749 388.376 460.389 387.763C460.202 387.456 460.015 387.149 459.829 386.843C459.469 386.229 459.069 385.629 458.669 385.029C458.469 384.736 458.269 384.429 458.069 384.136C449.442 371.376 437.309 359.709 438.282 337.429C441.709 349.576 441.242 357.069 450.842 367.403C454.989 371.869 457.775 374.256 461.535 378.123C462.762 379.389 464.455 381.443 465.695 383.109C465.829 383.296 465.935 383.443 466.055 383.589C466.149 383.736 466.242 383.869 466.362 384.043C469.549 388.736 466.802 388.896 472.602 389.816C472.895 387.563 472.949 385.349 472.789 383.176C470.762 357.283 438.349 335.883 438.255 312.749C442.029 325.363 448.909 336.936 457.469 346.589C464.429 354.443 474.295 368.736 476.695 380.563C479.642 354.549 442.055 323.363 439.269 291.243C442.282 305.803 448.975 318.709 456.949 331.003C462.535 339.603 475.215 357.029 477.829 367.469C475.695 342.549 445.669 313.123 442.029 292.149L450.895 307.709C459.109 322.589 471.762 336.456 477.282 353.149C479.602 346.949 448.989 303.496 443.735 289.643C442.122 285.403 440.855 280.883 440.082 276.123C439.535 272.723 438.589 267.869 439.295 264.283C440.202 259.643 439.282 262.243 441.389 259.909C440.842 295.896 463.922 311.923 478.202 339.336C480.109 342.989 481.789 348.243 483.402 350.843C482.109 320.736 444.055 307.856 446.229 262.496C446.362 259.736 446.642 257.136 447.175 254.869L448.909 249.416C449.922 247.336 448.855 248.843 450.069 247.549L451.175 249.896L454.495 249.349C448.589 267.349 452.855 279.389 458.109 294.309C461.109 290.896 458.389 290.269 456.535 283.229C455.509 279.376 454.762 274.136 454.735 269.696C454.669 260.869 456.335 251.123 460.362 245.496C459.615 252.389 456.615 254.469 456.695 267.896C456.762 278.096 458.869 282.029 460.842 290.536L461.015 288.989C461.642 289.776 461.295 289.029 462.282 290.909C464.962 296.069 462.735 296.496 469.215 306.336C472.309 311.029 476.189 316.549 478.642 321.829C486.135 337.963 490.082 341.336 488.722 362.483C491.535 360.376 492.895 356.283 495.282 353.629C502.642 345.416 512.509 339.109 523.255 334.643L524.629 335.176C524.775 335.189 525.122 335.296 525.295 335.296C529.415 335.376 543.935 328.043 554.135 320.829L553.949 326.509C551.655 328.189 549.882 329.443 548.482 330.403L548.095 330.683L547.362 331.176L547.029 331.403C546.815 331.549 546.602 331.683 546.402 331.816C546.229 331.923 546.069 332.029 545.909 332.136L545.842 332.176L545.589 332.336L545.349 332.483H545.335C545.175 332.589 545.029 332.669 544.882 332.763L544.682 332.883L544.482 332.989H544.469L544.282 333.096L544.095 333.203L543.922 333.296L543.762 333.376L543.589 333.456L543.442 333.536H543.429L543.282 333.616L543.135 333.683L542.989 333.749L542.842 333.803L542.695 333.869L542.549 333.923L542.415 333.989L542.269 334.043L542.122 334.096L541.962 334.163L541.815 334.216L541.655 334.283L541.495 334.349L541.322 334.416L541.149 334.496L540.962 334.576L540.775 334.656L540.575 334.749H540.562C540.362 334.843 540.135 334.936 539.895 335.056L539.655 335.176L539.389 335.296L539.122 335.429C538.749 335.616 538.335 335.829 537.869 336.083L537.509 336.269L537.135 336.483L536.749 336.696L535.469 337.416L535.055 337.643L534.229 338.109L532.989 338.789L532.589 339.016L532.175 339.229L531.775 339.456L531.362 339.669L530.962 339.883L530.562 340.096L530.162 340.309L529.762 340.523L529.362 340.736L528.962 340.949L528.562 341.163L528.175 341.376L527.775 341.576L527.389 341.789L526.989 342.003L526.602 342.203L526.202 342.416L525.815 342.616L525.429 342.829L524.655 343.243L524.255 343.443L523.495 343.869L523.109 344.069L522.335 344.496C521.949 344.709 521.575 344.909 521.189 345.123L520.802 345.336C520.549 345.483 520.295 345.629 520.042 345.776L519.669 345.989C519.415 346.136 519.162 346.283 518.909 346.429L518.522 346.656L518.149 346.869L517.762 347.096L517.389 347.323L517.015 347.549C516.629 347.789 516.255 348.016 515.882 348.256L515.495 348.496C515.242 348.656 514.989 348.816 514.749 348.976L514.362 349.216L513.989 349.469C513.735 349.643 513.482 349.803 513.229 349.976L512.855 350.229L512.482 350.496L512.109 350.749H512.095L511.722 351.016L511.349 351.296L510.975 351.563H510.962L510.655 351.789L510.349 352.003L510.055 352.216L509.775 352.416L509.509 352.603L509.242 352.776L508.989 352.949L508.735 353.109L508.495 353.269L508.269 353.416L508.055 353.563L507.842 353.696L507.629 353.829L507.429 353.949L507.242 354.056L507.055 354.176L506.869 354.283L506.695 354.376L506.535 354.483L506.362 354.576L506.202 354.656L506.055 354.749L505.895 354.829L505.762 354.909H505.749L505.615 354.989L505.469 355.069L505.335 355.136L505.202 355.216L505.069 355.283L504.949 355.349L504.815 355.429L504.695 355.496L504.562 355.563L504.442 355.643L504.322 355.709L504.189 355.789L504.069 355.869L503.949 355.936L503.829 356.016L503.695 356.109L503.575 356.189L503.442 356.283L503.309 356.376L503.175 356.469L503.042 356.576L502.909 356.683L502.775 356.789L502.629 356.909L502.482 357.029L502.322 357.149L502.175 357.283L502.015 357.429L501.842 357.576L501.495 357.896L501.309 358.069L501.122 358.243L500.935 358.443L500.722 358.629L500.522 358.843L500.309 359.056L500.082 359.283L499.842 359.523L499.602 359.763L499.469 359.909L499.189 360.189L499.042 360.336L498.895 360.483L498.749 360.629L498.602 360.776L498.282 361.083L498.135 361.243L497.975 361.389L497.815 361.549L497.642 361.709L497.482 361.869L497.149 362.176V362.189L496.482 362.829L496.309 363.003L496.135 363.163L495.975 363.336L495.802 363.509L495.629 363.669L495.455 363.843L495.295 364.016L495.122 364.189L494.949 364.363L494.789 364.536L494.615 364.709L494.455 364.883L494.282 365.056L494.122 365.229L493.962 365.416L493.642 365.763L493.482 365.949L493.322 366.123L493.175 366.296L493.015 366.483L492.869 366.656L492.722 366.843C492.629 366.963 492.522 367.083 492.429 367.203L492.295 367.389L492.162 367.563L492.029 367.749L491.895 367.936L491.775 368.109L491.642 368.296L491.522 368.483L491.415 368.669C491.295 368.843 491.189 369.029 491.082 369.216C490.815 369.696 490.589 370.189 490.415 370.669C490.522 370.603 490.735 370.429 491.029 370.176L491.135 370.069L491.255 369.976L491.389 369.856L491.815 369.483L491.962 369.336L492.122 369.189L492.295 369.043L492.469 368.883L492.655 368.723L493.029 368.376L493.229 368.203L493.429 368.016L493.642 367.829L493.855 367.643L494.069 367.443L494.295 367.243L494.522 367.043L494.762 366.829L495.002 366.616L495.482 366.189L495.735 365.976L495.989 365.749L496.255 365.523L496.522 365.296L496.789 365.069V365.056L497.055 364.829L497.322 364.603V364.589L497.602 364.363L497.882 364.123L498.162 363.883L498.455 363.643L498.735 363.403L499.029 363.163L499.322 362.923L499.615 362.683L499.909 362.443L500.215 362.203L500.509 361.963L500.815 361.723L501.122 361.483L501.735 361.003L502.042 360.763C502.349 360.523 502.655 360.296 502.962 360.069L503.282 359.829L503.589 359.603L503.895 359.376L504.215 359.163L504.522 358.936L504.829 358.723L521.575 348.723L522.109 348.416L522.655 348.109L523.202 347.803L523.749 347.509L524.295 347.203L524.855 346.909L525.402 346.616L525.962 346.309L526.522 346.016L527.082 345.736L527.642 345.443L528.215 345.149L528.775 344.869L529.335 344.576L529.909 344.296L530.482 344.003L531.042 343.723L531.615 343.443L532.762 342.883L533.322 342.603L534.469 342.043L535.042 341.776L535.615 341.496L536.175 341.216L536.749 340.936L537.309 340.669L537.882 340.389L539.015 339.843L540.135 339.283L540.695 339.016L541.255 338.736C541.802 338.456 542.362 338.189 542.909 337.909L543.455 337.629L544.002 337.349C544.722 336.976 545.442 336.603 546.149 336.229L546.682 335.949L547.202 335.669L547.722 335.389L548.242 335.096L548.762 334.816L549.269 334.523L549.775 334.243L550.269 333.949L551.255 333.363L551.749 333.069C552.069 332.869 552.389 332.669 552.695 332.469H552.709L553.175 332.176L553.642 331.869C553.682 331.843 553.722 331.816 553.762 331.789V331.816C553.175 332.216 552.562 332.616 551.935 333.029C550.895 333.709 549.802 334.389 548.669 335.069V335.083C547.549 335.763 546.375 336.456 545.175 337.149C544.775 337.389 544.375 337.616 543.975 337.856L542.735 338.563C541.909 339.029 541.082 339.496 540.229 339.976L538.949 340.696L537.642 341.416L536.335 342.136L535.015 342.869L533.682 343.603L530.989 345.083C530.082 345.589 529.175 346.083 528.269 346.589L526.895 347.349C509.029 357.323 490.442 368.763 484.469 383.176C484.375 383.376 484.295 383.576 484.215 383.776C484.309 383.589 484.402 383.389 484.549 383.176C485.189 382.069 486.389 380.696 487.882 379.203L488.242 378.856L488.602 378.496L488.975 378.149L489.349 377.789L489.749 377.429L490.149 377.056L490.549 376.696L490.962 376.323L491.389 375.949L491.815 375.589L492.255 375.216L492.682 374.843L493.135 374.469L493.575 374.096L494.029 373.723L494.482 373.349L494.935 372.976L495.389 372.603L495.842 372.243L496.295 371.869L496.762 371.509L497.215 371.149L497.669 370.789L498.122 370.443L498.575 370.096L499.015 369.749L499.455 369.416L499.895 369.083L500.335 368.749L501.189 368.109L501.602 367.803L502.015 367.496L502.415 367.203L502.815 366.909L503.189 366.629L503.575 366.349L503.935 366.096L504.295 365.843L504.629 365.589L504.962 365.349L505.282 365.136L505.589 364.909L505.882 364.709L506.162 364.523L506.429 364.336L506.682 364.163L512.429 360.749L526.229 352.536C528.349 351.256 530.282 350.163 532.175 349.069L532.709 348.763L532.895 348.656L533.429 348.349L533.962 348.043C534.375 347.789 534.802 347.549 535.215 347.296C536.122 346.763 537.042 346.203 537.989 345.589L545.135 340.496L548.922 337.789C549.122 337.643 549.335 337.483 549.549 337.323L550.175 336.856L550.802 336.376L551.429 335.883L552.055 335.389L552.682 334.883L553.309 334.376C553.522 334.203 553.735 334.029 553.935 333.856C554.149 333.683 554.362 333.509 554.562 333.323H554.575L555.189 332.803L555.202 332.789L555.815 332.256C556.029 332.069 556.242 331.896 556.442 331.709C556.855 331.349 557.282 330.976 557.695 330.603C557.895 330.416 558.109 330.216 558.309 330.029L558.935 329.456L559.549 328.883L560.775 327.709L561.389 327.109L561.989 326.509L562.602 325.909L563.202 325.296C563.402 325.083 563.602 324.883 563.802 324.669L564.389 324.056L564.989 323.429L565.575 322.789C565.762 322.576 565.962 322.363 566.162 322.149L566.735 321.509C567.122 321.083 567.509 320.643 567.882 320.216C568.642 319.336 569.389 318.456 570.122 317.563C570.309 317.336 570.482 317.123 570.669 316.896C571.215 316.216 571.749 315.536 572.269 314.856C574.909 311.429 577.309 307.883 579.389 304.269C579.522 304.029 579.669 303.789 579.802 303.549C580.202 302.829 580.602 302.109 580.975 301.376C581.482 300.403 581.962 299.443 582.429 298.469C582.655 297.976 582.869 297.496 583.082 297.003C584.282 294.256 585.429 291.523 586.469 288.789L586.815 287.883C587.149 286.963 587.482 286.056 587.802 285.136C587.909 284.829 588.015 284.523 588.122 284.216C588.322 283.616 588.522 283.003 588.722 282.389C588.909 281.776 589.109 281.163 589.282 280.563C589.375 280.256 589.469 279.949 589.562 279.643C589.642 279.336 589.735 279.029 589.815 278.723C589.895 278.416 589.989 278.109 590.069 277.803C590.149 277.496 590.229 277.189 590.309 276.883C590.389 276.576 590.455 276.269 590.535 275.963C590.615 275.643 590.682 275.336 590.749 275.029C590.829 274.723 590.895 274.416 590.962 274.109C591.029 273.803 591.095 273.496 591.162 273.176C591.215 272.869 591.282 272.563 591.335 272.256C591.402 271.949 591.455 271.629 591.509 271.323C591.562 271.016 591.615 270.709 591.669 270.389C591.722 270.083 591.775 269.776 591.815 269.456C591.962 268.523 592.082 267.589 592.189 266.656C592.215 266.336 592.255 266.029 592.282 265.709C592.309 265.403 592.335 265.083 592.362 264.776C592.389 264.456 592.402 264.136 592.429 263.829C592.442 263.509 592.469 263.189 592.482 262.883C592.495 262.563 592.509 262.243 592.522 261.936C592.522 261.616 592.535 261.296 592.535 260.976C592.549 260.656 592.549 260.349 592.549 260.029C592.549 259.709 592.549 259.389 592.535 259.069C592.535 258.749 592.522 258.429 592.509 258.109C592.509 257.789 592.495 257.469 592.469 257.149C592.455 256.829 592.442 256.509 592.415 256.189C592.402 255.869 592.375 255.536 592.349 255.216C592.322 254.896 592.295 254.576 592.255 254.256C592.229 253.923 592.189 253.603 592.149 253.283C592.109 252.949 592.069 252.629 592.029 252.296C591.975 251.976 591.935 251.656 591.882 251.323C591.829 250.989 591.775 250.669 591.722 250.336C591.669 250.016 591.602 249.683 591.549 249.363V249.349C591.482 249.029 591.415 248.696 591.349 248.363C591.282 248.043 591.202 247.709 591.135 247.376L590.895 246.376C590.815 246.043 590.735 245.709 590.642 245.376C590.549 245.043 590.469 244.709 590.362 244.376C590.269 244.043 590.175 243.709 590.069 243.376C589.975 243.043 589.869 242.696 589.762 242.363C589.655 242.029 589.535 241.683 589.429 241.349C589.309 241.016 589.189 240.669 589.069 240.336C588.949 239.989 588.829 239.656 588.695 239.309C588.562 238.976 588.429 238.629 588.295 238.283C588.162 237.949 588.015 237.603 587.882 237.256C587.735 236.909 587.589 236.563 587.442 236.229C587.309 235.923 587.175 235.629 587.055 235.349L586.669 234.509L586.309 233.709L585.962 232.949C585.842 232.709 585.722 232.469 585.615 232.229L585.282 231.549L584.962 230.896C584.855 230.683 584.749 230.483 584.655 230.283L584.349 229.696L584.055 229.149L583.775 228.629C583.682 228.469 583.589 228.296 583.495 228.136C583.402 227.989 583.309 227.829 583.229 227.683C583.135 227.536 583.055 227.389 582.962 227.243C582.789 226.963 582.629 226.696 582.469 226.456C582.135 225.949 581.842 225.509 581.549 225.123C581.469 225.029 581.402 224.936 581.335 224.843C581.189 224.669 581.055 224.496 580.909 224.336L580.709 224.096C580.509 223.869 580.322 223.656 580.135 223.469C580.002 223.336 579.882 223.216 579.762 223.109V223.096L579.589 222.936L579.402 222.763L579.055 222.443L578.882 222.296L578.709 222.136L578.535 221.989L577.842 221.349L577.669 221.176L577.495 220.989L577.309 220.803L577.135 220.603L576.949 220.403L576.762 220.176L576.575 219.949L576.389 219.696C576.322 219.616 576.255 219.523 576.189 219.429C576.122 219.336 576.055 219.243 575.989 219.149C575.922 219.056 575.855 218.949 575.789 218.856C575.722 218.749 575.655 218.643 575.575 218.536C575.442 218.309 575.295 218.083 575.149 217.829L574.922 217.443C574.855 217.309 574.775 217.176 574.695 217.029L574.455 216.603L574.215 216.136C573.722 215.189 573.189 214.069 572.602 212.736C572.682 212.816 572.775 212.883 572.855 212.963C572.949 213.043 573.029 213.123 573.122 213.203L573.389 213.469L573.935 214.016C574.122 214.203 574.309 214.403 574.509 214.616C574.789 214.923 575.082 215.256 575.389 215.603L575.682 215.949L575.989 216.309L576.295 216.683L576.602 217.056L576.922 217.456L577.229 217.843L577.549 218.256L577.855 218.669L578.175 219.083L578.815 219.936C579.029 220.229 579.242 220.523 579.455 220.829L579.789 221.269L580.109 221.723C580.322 222.029 580.535 222.336 580.749 222.643L581.069 223.109C581.495 223.736 581.909 224.376 582.335 225.003V225.016C584.002 227.563 585.575 230.176 586.909 232.589C588.229 235.016 589.309 237.229 589.962 238.976C591.015 241.749 591.815 244.256 592.415 246.576C592.589 247.216 592.735 247.829 592.869 248.443C593.095 249.469 593.282 250.456 593.442 251.416C593.482 251.616 593.509 251.803 593.535 252.003C593.589 252.376 593.642 252.763 593.695 253.136C593.722 253.323 593.735 253.509 593.762 253.696V253.709L593.815 254.269C593.842 254.456 593.855 254.643 593.869 254.816C593.895 255.003 593.909 255.189 593.922 255.376L593.962 255.936L593.989 256.483L594.015 257.029L594.042 257.589L594.055 258.136L594.069 258.683V260.336L594.055 260.896L594.042 261.456L594.015 262.016L594.002 262.576L593.975 263.136L593.935 263.709C593.922 264.096 593.895 264.483 593.869 264.869L593.829 265.456L593.789 266.043H593.775L593.735 266.643L593.682 267.243L593.642 267.856L593.535 269.096H593.522L593.415 270.376C593.175 272.976 592.922 275.789 592.682 278.963L592.695 278.949L594.695 275.549C595.989 271.896 596.575 267.829 596.602 263.589C596.615 263.443 596.615 263.283 596.615 263.123C596.615 262.976 596.615 262.829 596.602 262.669C596.602 262.363 596.602 262.056 596.589 261.749C596.575 261.443 596.575 261.136 596.549 260.829C596.535 260.523 596.522 260.216 596.509 259.896C596.482 259.589 596.469 259.283 596.442 258.963C596.415 258.656 596.389 258.349 596.362 258.029C596.335 257.723 596.295 257.403 596.269 257.096V257.083C596.229 256.776 596.189 256.456 596.162 256.149H596.149C596.122 255.829 596.082 255.509 596.029 255.203C595.989 254.883 595.949 254.563 595.895 254.256C595.842 253.936 595.789 253.616 595.749 253.296C595.695 252.989 595.629 252.669 595.575 252.349C595.522 252.029 595.455 251.723 595.402 251.403C595.335 251.083 595.282 250.763 595.215 250.443C595.149 250.123 595.082 249.816 595.002 249.496C594.935 249.176 594.869 248.856 594.789 248.536C594.722 248.229 594.642 247.909 594.562 247.589C594.415 246.963 594.255 246.323 594.082 245.696C594.002 245.376 593.909 245.056 593.829 244.749C593.562 243.803 593.282 242.856 592.989 241.923C592.789 241.296 592.589 240.683 592.389 240.056C592.282 239.749 592.175 239.443 592.069 239.136C591.962 238.829 591.855 238.523 591.749 238.216C591.415 237.296 591.082 236.389 590.735 235.483C590.389 234.589 590.029 233.696 589.655 232.829C589.282 231.949 588.909 231.083 588.522 230.229C588.402 229.949 588.269 229.669 588.135 229.389C587.749 228.549 587.349 227.723 586.949 226.909C586.815 226.629 586.682 226.363 586.549 226.096C586.282 225.563 586.002 225.043 585.735 224.523C585.589 224.269 585.455 224.016 585.322 223.763C585.175 223.496 585.042 223.256 584.909 223.003C584.762 222.749 584.629 222.496 584.482 222.256C584.349 222.016 584.202 221.763 584.069 221.523C583.922 221.283 583.789 221.043 583.642 220.803C583.509 220.576 583.362 220.336 583.229 220.109C583.082 219.869 582.949 219.643 582.802 219.416L582.695 219.229L582.575 219.043L582.455 218.856L582.349 218.669L582.229 218.483L582.122 218.309L582.002 218.123L581.882 217.936L581.775 217.749L581.655 217.563L581.549 217.389L581.429 217.203L581.322 217.016L581.202 216.843L581.095 216.656L580.975 216.483L580.869 216.296L580.749 216.109L580.642 215.936L580.522 215.749L580.309 215.403L580.189 215.216L580.082 215.043L579.962 214.856L579.855 214.683L579.735 214.509L579.629 214.323L579.509 214.149L579.402 213.976L579.282 213.803L579.175 213.616L579.055 213.443L578.949 213.269L578.829 213.096L578.722 212.923L578.602 212.736L578.495 212.563L578.375 212.389L578.255 212.216L578.149 212.043L578.029 211.869L577.909 211.696L577.802 211.523L577.682 211.349L577.562 211.176L577.455 211.003L577.215 210.656L577.095 210.483L576.989 210.309L576.869 210.136L576.629 209.789L576.509 209.616L576.389 209.443L576.269 209.269L576.149 209.096L576.029 208.923L575.909 208.749L575.789 208.576L575.655 208.403L575.642 208.376L575.415 208.056L575.282 207.883L575.162 207.709L575.029 207.523L574.909 207.349L574.775 207.163L574.655 206.989L574.522 206.816L574.402 206.629L574.269 206.456L574.149 206.283L574.029 206.096L573.909 205.923L573.775 205.749L573.655 205.563L573.535 205.389L573.415 205.216L573.295 205.029L573.162 204.856L573.042 204.683L572.802 204.336L572.682 204.149L572.562 203.976L572.322 203.629L572.202 203.456L572.082 203.283L571.962 203.109L571.855 202.936L571.735 202.763L571.615 202.589L571.495 202.416L571.255 202.069L571.135 201.896L571.029 201.723L570.909 201.549L570.789 201.376L570.669 201.216L570.562 201.043L570.442 200.869L570.322 200.696L570.202 200.523L570.095 200.363L569.975 200.189L569.855 200.016L569.735 199.856L569.629 199.683L569.509 199.523L569.389 199.349L569.269 199.189L569.162 199.016L569.042 198.856L568.922 198.683L568.815 198.523L568.695 198.349L568.575 198.189L568.455 198.029L568.229 197.696L567.762 197.043C567.335 196.469 566.935 195.909 566.549 195.363C565.869 194.403 565.242 193.496 564.655 192.616C563.495 190.843 562.535 189.189 561.749 187.496C561.589 187.136 561.429 186.776 561.282 186.416V186.403C561.229 186.283 561.175 186.163 561.135 186.043C561.029 185.803 560.949 185.549 560.855 185.296L560.722 184.923C560.589 184.549 560.469 184.176 560.362 183.789C560.255 183.403 560.149 183.003 560.055 182.603C559.989 182.336 559.935 182.069 559.869 181.789C559.842 181.656 559.815 181.523 559.789 181.376C559.762 181.243 559.735 181.096 559.709 180.963C559.682 180.816 559.669 180.669 559.642 180.536L559.575 180.096L559.509 179.656C559.495 179.509 559.482 179.363 559.455 179.216V179.203C559.442 179.056 559.429 178.909 559.402 178.749L559.362 178.296L559.322 177.816L559.282 177.349V177.336L559.255 176.856L559.229 176.363L559.215 175.856L559.189 175.336V174.656L559.309 169.576C561.989 158.523 576.295 152.923 583.189 162.883C589.402 171.856 584.642 180.816 577.815 182.269C576.029 182.656 574.749 182.749 572.989 182.096C570.042 181.029 570.989 181.016 569.935 179.296C579.975 182.803 586.322 175.643 581.549 167.136C577.869 160.589 568.815 161.109 565.402 167.909C559.429 179.816 575.802 196.483 581.362 203.936ZM558.402 196.243L558.309 198.856C555.735 192.869 554.015 187.349 553.962 182.283L554.642 183.616C554.655 183.776 554.669 183.936 554.682 184.096C554.709 184.416 554.749 184.749 554.802 185.096C554.855 185.429 554.922 185.789 554.989 186.136C555.055 186.496 555.135 186.869 555.229 187.243C555.269 187.429 555.322 187.616 555.375 187.803C555.415 187.989 555.469 188.189 555.522 188.376C555.629 188.763 555.749 189.163 555.882 189.563C555.935 189.763 556.002 189.963 556.069 190.163C556.135 190.376 556.202 190.576 556.269 190.776V190.789C556.415 191.189 556.562 191.616 556.722 192.043C556.789 192.243 556.869 192.456 556.949 192.669C557.042 192.883 557.122 193.109 557.202 193.323L557.455 193.976C557.549 194.189 557.642 194.416 557.722 194.629L558.282 195.963V195.976L558.402 196.243ZM558.082 205.496L557.989 208.283C553.135 197.056 549.282 187.776 549.455 181.416C549.469 186.496 553.215 195.056 558.082 205.496V205.496ZM554.895 331.016C554.522 331.283 554.149 331.536 553.762 331.789L553.949 326.509C554.069 326.416 554.202 326.323 554.335 326.229C554.735 325.936 555.135 325.643 555.522 325.336L555.389 330.669L555.002 330.949L554.895 331.016ZM559.189 172.603C559.215 171.643 559.255 170.629 559.309 169.576L559.175 173.349C559.189 173.109 559.189 172.856 559.189 172.603V172.603ZM559.175 173.349L558.402 196.243L558.575 196.643L558.642 196.803L559.189 174.656L559.175 174.269V173.349ZM558.082 205.496C558.189 205.736 558.309 205.976 558.415 206.229L558.575 199.483C558.482 199.269 558.402 199.069 558.309 198.856L558.082 205.496ZM554.135 320.829C554.655 320.469 555.162 320.109 555.655 319.749L558.349 209.096C558.229 208.816 558.109 208.549 557.989 208.283L554.135 320.829ZM553.949 326.509L553.762 331.789C554.149 331.536 554.522 331.283 554.895 331.016L555.002 330.949L555.389 330.669L555.522 325.336C555.135 325.643 554.735 325.936 554.335 326.229C554.202 326.323 554.069 326.416 553.949 326.509Z" fill="#86C5C5"/>
<path fill-rule="evenodd" clip-rule="evenodd" d="M555.195 281.265C555.229 296.741 546.829 309.485 535.945 314.965C533.464 316.214 530.395 317.242 528.003 317.89C507.949 323.344 495.011 316.153 483.576 301.676C459.285 270.924 502.372 234.63 524.221 228.965C531.703 227.025 535.319 228.949 539.267 234.512C547.111 245.569 555.163 267.342 555.195 281.265ZM562.297 256.922C562.332 250.209 553.04 230.106 550.553 222.232C545.569 206.438 545.227 199.742 543.375 182.936C536.468 192.818 542.367 197.436 517.673 217.381C510.592 223.1 498.464 230.113 490.797 235.968C489.321 237.094 488.351 238 486.837 239.154C475.785 247.578 471.891 252.477 468.156 266.82C459.141 301.433 494.551 311.692 492.132 352.812C494.079 351.114 496.928 345.498 502.564 340.425C527.044 318.38 552.34 327.37 563.519 292.746C565.943 285.244 567.612 262.094 562.297 256.922" fill="#6DC38F"/>
<path fill-rule="evenodd" clip-rule="evenodd" d="M548.852 166.989C538.617 182.117 555.393 222.679 561.124 237.482C570.099 260.665 574.623 277.591 565.033 301.381C562.996 306.435 563.013 304.326 564.031 306.373C564.751 307.821 556.761 314.571 555.989 315.422C549.429 322.651 532.475 331.779 523.253 334.647L524.621 335.17C524.771 335.186 525.116 335.294 525.299 335.298C530.611 335.405 553.252 323.158 561.573 314.765C574.015 302.217 577.761 290.001 576.673 270.529C574.501 231.638 547.776 195.911 549.516 180.27C549.872 171.285 550.424 170.465 552.199 162.758C549.867 164.711 549.888 164.693 549.064 168.445L548.852 166.989Z" fill="#D6E8E9"/>
<path fill-rule="evenodd" clip-rule="evenodd" d="M486.838 239.154C488.351 238 489.322 237.095 490.798 235.967C498.465 230.114 510.593 223.099 517.671 217.382C542.369 197.435 536.47 192.819 543.375 182.936C545.226 199.742 545.571 206.439 550.554 222.231C557.954 245.683 569.621 265.942 563.518 292.747C552.341 327.37 527.043 318.379 502.562 340.426C496.929 345.499 494.078 351.114 492.131 352.811C494.55 311.692 459.142 301.434 468.155 266.82C470.989 255.947 478.085 245.827 486.838 239.154ZM460.386 282.588C460.797 286.752 460.438 287.366 462.279 290.907C464.961 296.063 462.731 296.496 469.223 306.338C472.315 311.026 476.195 316.547 478.645 321.823C486.141 337.96 490.079 341.335 488.726 362.48C491.535 360.378 492.899 356.286 495.286 353.626C502.647 345.419 512.514 339.103 523.254 334.648C532.474 331.779 549.429 322.652 555.989 315.423C577.041 292.222 571.607 264.559 561.123 237.483C539.09 180.566 554.977 178.166 546.143 137.623C543.698 126.402 542.771 121.06 542.977 108.492C537.606 127.794 554.871 159.863 536.77 190.147C532.986 196.478 526.603 204.47 520.762 207.803C530.155 195.143 537.889 189.118 541.842 172.188C543.211 166.322 542.117 160.81 542.963 156.063C542.479 175.171 535.262 189.7 525.409 200.168C519.763 206.166 515.809 209.94 509.759 215.675C488.387 235.936 458.413 243.543 460.386 282.588Z" fill="#1A1F56"/>
<path fill-rule="evenodd" clip-rule="evenodd" d="M511.15 297.282L491.109 287.504L511.15 297.282ZM491.109 287.504C493.015 299.538 506.031 309.495 520.055 307.052C547.621 302.252 537.169 272.58 528.261 261.431C522.562 254.296 518.874 256.679 511.482 260.284C502.419 264.704 488.919 273.694 491.109 287.504" fill="#86D1D4"/>
<path fill-rule="evenodd" clip-rule="evenodd" d="M460.386 282.588C458.733 249.891 476.871 246.183 491.487 228.35C492.991 226.122 504.842 215.45 509.001 212.294L527.115 194.758C542.999 174.642 544.891 164.324 536.775 139.548C533.798 146.274 548.053 165.127 525.794 189.888L517.463 198.352C514.386 201.23 511.745 203.774 508.311 206.175C503.821 209.315 492.498 217.658 490.218 221.139L515.029 196.915C517.774 194.607 521.355 190.884 523.361 187.012C519.538 189.119 521.139 189.316 517.709 190.838C517.61 190.882 517.358 190.952 517.258 190.998L494.534 207.498C492.169 209.142 490.942 210.371 488.594 212.275C466.303 230.358 454.339 247.735 458.671 277.712C459.225 281.543 459.69 281.579 460.386 282.588Z" fill="#B7D8D7"/>
<path fill-rule="evenodd" clip-rule="evenodd" d="M481.97 290.928C481.219 288.147 480.653 286.043 480.521 283.057C480.31 278.337 482.186 272.149 483.727 268.147C486.193 261.74 494.957 252.519 500.631 248.489C525.01 231.176 530.865 226.813 542.706 251.515C551.745 270.372 554.646 292.907 540.282 306.847C521.275 325.292 488.165 313.919 481.97 290.928ZM555.194 281.264C555.162 267.341 547.11 245.568 539.266 234.512C535.318 228.948 531.702 227.024 524.221 228.964C502.37 234.629 459.286 270.924 483.575 301.676C495.01 316.152 507.95 323.344 528.002 317.891C530.394 317.241 533.463 316.215 535.945 314.965C546.829 309.485 555.23 296.74 555.194 281.264" fill="#D8A646"/>
<path fill-rule="evenodd" clip-rule="evenodd" d="M511.693 295.638C488.971 302.625 493.427 274.48 513.922 266.208C516.615 265.121 518.829 264.976 522.162 265.309C525.741 269.72 527.117 270.777 529.306 276.43C538.482 300.128 517.857 309.214 511.693 295.638Z" fill="#041845"/>
<path fill-rule="evenodd" clip-rule="evenodd" d="M450.39 245.958C450.48 245.953 449.476 248.037 449.501 248.114C450.588 251.474 451.1 252.1 454.468 249.345L455.094 247.548C462.16 231.665 468.598 224.189 483.568 211.81C497.044 200.669 504.933 198.296 520.03 181.413C553.594 143.881 519.986 119.296 504.746 138.472C493.64 152.449 518.097 163.797 517.03 148.817C516.225 152.561 516.998 150.444 515.225 153.216C502.505 155.68 502.714 143.27 509.472 138.713C525.498 127.904 545.825 150.904 510.74 184.561C495.262 199.408 456.193 220.354 450.39 245.958Z" fill="#73B8C5"/>
<path fill-rule="evenodd" clip-rule="evenodd" d="M488.451 290.178C484.604 274.546 500.843 262.924 510.169 258.002C517.284 254.249 523.247 251.178 528.607 257.572C541.863 273.378 549.153 304.194 522.573 309.669C506.131 313.054 491.463 302.422 488.451 290.178ZM532.68 309.074C549.573 300.642 545.527 277.725 538.285 263.904C536.059 259.653 532.071 252.645 529.503 250.428C525.061 246.589 517.908 249.17 512.671 251.602C503.239 255.981 492.456 264.456 488.128 271.609C473.12 296.408 505.495 322.642 532.68 309.074Z" fill="#041845"/>
<path fill-rule="evenodd" clip-rule="evenodd" d="M491.109 287.504C488.92 273.693 502.42 264.704 511.482 260.284C518.874 256.679 522.561 254.297 528.261 261.431C537.168 272.58 547.621 302.252 520.056 307.052C506.032 309.495 493.016 299.537 491.109 287.504ZM488.45 290.179C491.462 302.423 506.13 313.055 522.573 309.668C549.153 304.195 541.862 273.379 528.606 257.572C523.246 251.179 517.284 254.249 510.169 258.003C500.842 262.924 484.604 274.545 488.45 290.179Z" fill="#50B7C3"/>
<path fill-rule="evenodd" clip-rule="evenodd" d="M519.071 273.423C521.241 277.247 526.074 283.656 523.103 289.8C519.698 296.844 514.662 291.759 512.703 291.168C506.913 289.417 499.501 288.621 507.094 278.975C510.097 275.16 513.179 273.191 519.071 273.423Z" fill="#273B93"/>
<path fill-rule="evenodd" clip-rule="evenodd" d="M482.709 414.176C481.069 416.256 478.255 420.163 477.202 423.123C484.175 418.123 485.962 409.683 509.949 401.403C510.895 401.083 511.895 400.763 512.789 400.483C512.535 401.883 512.255 403.27 512.015 404.67C511.949 404.696 511.869 404.723 511.802 404.763C511.202 405.003 510.602 405.256 510.002 405.523C508.802 406.016 507.615 406.563 506.415 407.123C505.815 407.39 505.229 407.683 504.629 407.976C504.042 408.27 503.442 408.563 502.869 408.87C502.389 409.11 501.922 409.35 501.455 409.603C500.175 410.296 498.909 411.016 497.655 411.776C497.175 412.07 496.695 412.363 496.215 412.67C493.149 414.616 490.202 416.79 487.455 419.216C486.989 419.63 486.522 420.056 486.069 420.483C486.055 420.496 486.042 420.51 486.029 420.523C485.535 420.99 485.042 421.47 484.562 421.976C484.455 422.07 484.362 422.163 484.269 422.27C483.855 422.683 483.469 423.11 483.069 423.536C482.962 423.656 482.855 423.776 482.762 423.883C482.322 424.376 481.882 424.87 481.469 425.39C480.922 426.03 480.402 426.696 479.895 427.363C479.722 427.603 479.549 427.83 479.375 428.07C479.135 428.39 478.909 428.71 478.682 429.043C478.482 429.336 478.282 429.616 478.095 429.91C477.869 430.243 477.655 430.59 477.442 430.923C477.269 431.203 477.095 431.483 476.922 431.763C476.469 432.51 476.029 433.283 475.615 434.07C475.282 434.656 474.975 435.256 474.695 435.87C474.629 436.003 474.562 436.136 474.509 436.27C474.362 436.563 474.229 436.87 474.082 437.176C473.922 437.536 473.762 437.91 473.602 438.283C473.442 438.67 473.282 439.043 473.135 439.43C472.975 439.816 472.815 440.216 472.682 440.616C472.575 440.896 472.469 441.176 472.375 441.456C472.135 442.136 471.909 442.83 471.695 443.536C471.535 444.043 471.389 444.576 471.242 445.096C470.829 446.59 470.469 448.136 470.175 449.736C470.122 449.99 470.082 450.256 470.029 450.51C469.895 451.27 469.775 452.043 469.669 452.83C469.575 453.483 469.495 454.15 469.429 454.83C469.402 455.016 469.389 455.216 469.375 455.416C469.295 456.176 469.229 456.95 469.175 457.736C469.175 457.816 469.162 457.896 469.162 457.99C469.109 458.883 469.069 459.803 469.042 460.736C469.749 462.39 470.442 463.99 471.082 465.563C471.095 465.563 471.095 465.563 471.095 465.576C491.375 514.19 483.082 520.723 505.335 554.71C474.682 545.963 462.829 446.736 439.482 414.763C439.162 414.31 438.829 413.87 438.469 413.443C438.242 413.15 438.015 412.856 437.775 412.576C437.589 412.363 437.415 412.136 437.229 411.923C434.629 408.803 432.002 405.63 429.575 402.336C429.482 402.203 429.375 402.056 429.269 401.923C428.949 401.47 428.615 401.016 428.295 400.55C427.549 399.483 426.815 398.39 426.122 397.296C425.349 396.083 424.615 394.843 423.935 393.576C423.709 393.163 423.482 392.75 423.269 392.336C422.909 391.63 422.562 390.923 422.242 390.203C422.082 389.87 421.935 389.536 421.789 389.203C420.949 387.283 420.242 385.296 419.682 383.23H421.562C422.202 385.79 423.095 388.216 424.242 390.576C424.669 391.456 425.229 392.416 425.909 393.443C426.055 393.67 426.202 393.896 426.362 394.123C426.602 394.483 426.869 394.856 427.135 395.23C428.909 397.71 431.175 400.483 433.682 403.39C433.882 403.643 434.095 403.883 434.309 404.123C435.295 405.27 436.309 406.43 437.335 407.603C437.575 407.87 437.815 408.15 438.055 408.416C439.269 409.79 440.495 411.15 441.709 412.523C442.122 412.976 442.522 413.443 442.935 413.896C446.389 417.79 449.722 421.59 452.362 424.923C452.535 425.15 452.722 425.376 452.895 425.616C453.442 426.31 453.935 426.963 454.389 427.603C454.549 427.816 454.695 428.03 454.842 428.23C454.989 428.443 455.135 428.643 455.269 428.843C456.015 429.963 456.642 430.99 457.082 431.91C457.162 432.043 457.215 432.176 457.282 432.31C457.322 432.416 457.362 432.51 457.402 432.603C457.469 432.763 457.522 432.91 457.575 433.056C457.602 433.15 457.629 433.23 457.655 433.296C457.722 433.496 457.775 433.696 457.815 433.883C457.815 433.91 457.815 433.923 457.829 433.95C457.855 434.07 457.869 434.176 457.882 434.296C457.722 427.723 449.775 417.376 445.602 412.79C443.442 410.403 441.335 409.416 439.695 406.096C443.655 408.443 448.615 414.443 451.709 418.27L460.842 434.163C461.975 425.283 462.775 424.323 460.429 414.643C457.722 403.456 451.882 394.27 445.429 385.283L443.949 383.23H451.135C451.722 383.976 452.335 384.763 452.949 385.576C453.255 385.976 453.562 386.39 453.869 386.816C457.029 391.123 460.509 396.496 464.629 404.323C464.815 404.67 465.002 405.03 465.189 405.403C465.575 406.136 465.962 406.883 466.349 407.656C466.349 407.203 466.335 406.763 466.322 406.323C466.309 405.99 466.295 405.67 466.282 405.35C466.229 404.443 466.135 403.563 466.002 402.696C465.975 402.416 465.922 402.136 465.869 401.856C465.815 401.456 465.749 401.056 465.655 400.656C465.589 400.323 465.522 399.976 465.429 399.643C465.429 399.603 465.429 399.576 465.415 399.55C465.335 399.19 465.242 398.843 465.135 398.51C464.962 397.803 464.749 397.123 464.509 396.443C464.402 396.096 464.282 395.763 464.149 395.43C463.415 393.416 462.495 391.483 461.455 389.616C461.122 388.99 460.762 388.376 460.389 387.763C460.215 387.456 460.029 387.15 459.829 386.843C459.469 386.23 459.069 385.63 458.669 385.03C458.482 384.736 458.282 384.43 458.069 384.136C457.869 383.83 457.669 383.536 457.455 383.23H465.789C465.882 383.363 465.962 383.483 466.055 383.59C466.149 383.736 466.242 383.87 466.362 384.043C469.549 388.736 466.802 388.896 472.602 389.816C472.909 387.51 472.735 385.443 472.549 383.23H490.349C489.882 383.67 489.455 384.11 489.029 384.55C487.775 385.843 486.669 387.136 485.722 388.456C485.549 388.67 485.389 388.896 485.255 389.123C485.082 389.336 484.935 389.563 484.802 389.79C484.549 390.15 484.322 390.51 484.109 390.883C483.935 391.19 483.762 391.51 483.589 391.816C484.909 390.75 486.189 389.616 487.482 388.483C489.429 386.75 491.389 384.95 493.495 383.23H498.669C498.415 383.416 498.162 383.603 497.922 383.776C497.429 384.136 496.975 384.483 496.549 384.83C495.842 385.363 495.202 385.896 494.589 386.443H494.575C494.189 386.776 493.802 387.123 493.429 387.483C489.255 391.376 486.429 394.043 482.815 398.23C481.055 400.27 475.135 408.096 474.269 410.67C475.215 408.216 484.255 397.496 489.135 394.43C490.482 393.59 491.615 392.83 492.629 392.136C493.135 391.79 493.615 391.456 494.082 391.136C497.309 388.87 499.655 387.056 505.162 384.096C505.682 383.816 506.229 383.536 506.802 383.23H511.949C505.069 386.883 498.429 391.47 494.469 394.643C494.242 394.83 494.015 395.003 493.802 395.19C493.375 395.536 493.002 395.856 492.655 396.163C494.389 395.336 495.575 394.256 497.429 393.123C498.055 392.736 498.722 392.35 499.442 391.963C499.789 391.763 500.162 391.563 500.535 391.376C501.282 390.976 502.082 390.563 502.922 390.163C504.509 389.39 506.229 388.603 508.042 387.816C508.589 387.576 509.149 387.336 509.722 387.096C510.469 386.776 511.242 386.456 512.015 386.123C513.335 385.576 514.695 385.03 516.055 384.483C515.589 386.456 515.229 388.403 514.802 390.39C514.055 390.763 513.215 391.203 512.495 391.576C508.282 393.79 504.015 395.856 500.442 398.11C495.615 401.15 489.402 405.763 485.935 410.27C484.602 411.79 484.029 412.523 482.709 414.176Z" fill="white"/>
<path fill-rule="evenodd" clip-rule="evenodd" d="M337.242 613.91C335.615 615.51 334.429 616.656 333.535 617.443C332.642 618.23 331.829 618.63 331.082 618.63C329.922 618.63 329.335 617.803 329.335 616.15C329.335 614.576 329.989 611.683 331.309 607.456L333.842 599.03H332.229L326.362 602.323C325.415 600.123 323.749 599.03 321.375 599.03C319.495 599.03 317.309 599.83 314.855 601.443C312.415 603.043 310.389 605.136 308.829 607.736C307.255 610.323 306.469 613.056 306.469 615.923C306.469 618.203 307.055 620.136 308.229 621.71C309.402 623.283 310.815 624.07 312.482 624.07C314.202 624.07 315.869 623.416 317.469 622.123C319.082 620.83 320.842 618.816 322.735 616.096C322.562 621.416 323.989 624.07 327.002 624.07C328.202 624.07 329.442 623.643 330.762 622.763C332.082 621.896 334.069 620.176 337.122 617.296C337.082 616.99 337.069 616.683 337.069 616.363C337.069 615.536 337.122 614.71 337.242 613.91V613.91ZM321.775 613.763C320.109 617.003 318.309 618.63 316.402 618.63C315.629 618.63 314.989 618.31 314.482 617.683C313.975 617.03 313.722 616.203 313.722 615.176C313.722 612.456 314.575 609.47 316.282 606.23C317.975 602.99 319.775 601.376 321.682 601.376C322.482 601.376 323.122 601.683 323.589 602.27C324.069 602.883 324.309 603.71 324.309 604.776C324.309 607.523 323.469 610.51 321.775 613.763" fill="#00A650"/>
<path fill-rule="evenodd" clip-rule="evenodd" d="M367.602 614.043C364.816 617.243 363.002 618.629 361.776 618.629C361.296 618.629 360.896 618.416 360.589 617.976C360.282 617.523 360.136 616.936 360.136 616.203C360.136 613.069 362.029 604.016 365.802 589.043C366.749 585.296 367.216 583.323 367.216 583.109C367.216 582.816 367.029 582.656 366.656 582.656C365.496 582.656 363.256 583.029 359.936 583.763L355.856 600.976C355.189 600.269 354.576 599.763 354.002 599.469C353.456 599.176 352.669 599.029 351.682 599.029C348.122 599.029 344.802 600.856 341.709 604.496C339.216 607.443 337.736 610.576 337.242 613.909C337.122 614.709 337.069 615.536 337.069 616.363C337.069 616.683 337.082 616.989 337.122 617.296C337.269 618.976 337.869 620.469 338.922 621.763C340.162 623.309 341.589 624.069 343.202 624.069C344.682 624.069 346.349 623.416 348.189 622.096C350.016 620.776 351.722 618.843 353.282 616.309C353.296 618.843 353.709 620.776 354.496 622.096C355.282 623.416 356.362 624.069 357.709 624.069C358.816 624.069 360.082 623.603 361.522 622.629C362.962 621.683 364.749 620.123 367.496 617.403C367.496 617.296 367.496 617.189 367.509 617.096L367.562 614.816C367.576 614.563 367.589 614.296 367.616 614.043H367.602ZM352.376 613.856C350.749 617.043 349.016 618.629 347.149 618.629C346.309 618.629 345.656 618.336 345.176 617.723C344.682 617.109 344.442 616.269 344.442 615.216C344.442 612.536 345.269 609.523 346.922 606.189C348.576 602.869 350.296 601.203 352.056 601.203C352.882 601.203 353.536 601.536 354.042 602.203C354.549 602.883 354.802 603.789 354.802 604.923C354.802 607.696 353.989 610.683 352.376 613.856" fill="#293389"/>
<path fill-rule="evenodd" clip-rule="evenodd" d="M395.642 615.043C395.642 614.723 395.655 614.389 395.668 614.069V614.043V613.976C392.388 617.643 390.295 619.336 389.068 619.336C388.735 619.336 388.428 619.176 388.175 618.843C387.922 618.509 387.788 618.136 387.788 617.709C387.788 616.776 388.482 614.523 389.855 610.936C391.242 607.336 391.922 604.683 391.922 602.963C391.922 601.816 391.628 600.896 391.028 600.203C390.428 599.509 389.642 599.149 388.655 599.149C387.775 599.149 386.922 599.349 386.068 599.723C385.228 600.109 383.535 601.029 380.988 602.483C383.628 599.016 385.575 596.043 386.815 593.589C388.055 591.136 388.668 588.896 388.668 586.869C388.668 585.669 388.495 584.669 388.148 583.856C387.815 583.056 387.388 582.656 386.908 582.656C386.628 582.656 385.575 582.976 383.722 583.616C381.868 584.256 379.695 585.069 377.202 586.083C373.855 591.576 371.388 596.776 369.828 601.683C368.588 605.563 367.842 609.669 367.615 614.043C367.588 614.296 367.575 614.563 367.562 614.816L367.508 617.096C367.495 617.189 367.495 617.296 367.495 617.403V617.549C367.495 619.896 367.615 622.083 367.868 624.069L374.215 622.589C374.215 617.683 374.548 613.483 375.228 609.976C376.828 608.189 378.348 606.776 379.788 605.736C381.242 604.696 382.348 604.189 383.108 604.189C383.842 604.189 384.215 604.576 384.215 605.349C384.215 606.043 383.748 607.496 382.815 609.736C381.068 613.896 380.188 617.109 380.188 619.389C380.188 620.736 380.602 621.856 381.455 622.749C382.308 623.643 383.375 624.069 384.668 624.069C387.588 624.069 391.295 621.749 395.815 617.109V617.083C395.695 616.443 395.642 615.763 395.642 615.043ZM376.028 605.349C377.255 600.043 378.842 595.509 380.788 591.749C382.735 587.989 384.228 586.109 385.268 586.109C385.908 586.109 386.215 586.683 386.215 587.829C386.215 591.589 382.815 597.429 376.028 605.349Z" fill="#1993D2"/>
<path fill-rule="evenodd" clip-rule="evenodd" d="M412.015 618.323C410.869 618.99 409.682 619.336 408.429 619.336C405.215 619.336 403.229 617.47 402.469 613.723C410.829 611.27 415.002 608.07 415.002 604.123C415.002 602.63 414.469 601.43 413.402 600.523C412.335 599.616 410.909 599.15 409.149 599.15C405.735 599.15 402.642 600.79 399.842 604.056C397.269 607.07 395.882 610.39 395.669 614.043V614.07C395.655 614.39 395.642 614.723 395.642 615.043C395.642 615.763 395.695 616.443 395.815 617.083V617.11C396.135 618.883 396.869 620.376 398.029 621.59C399.615 623.243 401.695 624.07 404.282 624.07C406.602 624.07 408.735 623.51 410.655 622.376C412.589 621.243 414.749 619.496 417.162 617.11V613.843C414.869 616.163 413.149 617.656 412.015 618.323ZM403.949 604.35C405.082 602.443 406.269 601.496 407.522 601.496C408.842 601.496 409.495 602.403 409.495 604.23C409.495 607.896 407.082 610.43 402.242 611.79C402.242 608.736 402.815 606.256 403.949 604.35Z" fill="#A54485"/>
<path fill-rule="evenodd" clip-rule="evenodd" d="M648.311 668.36C651.56 667.333 654.876 665.133 658.29 661.746V665.213C655.234 667.893 651.574 669.866 647.311 671.133C645.323 676.36 642.774 680.36 639.703 683.186C636.619 686 633.37 687.413 629.916 687.413C628.038 687.413 626.516 686.92 625.366 685.933C624.2 684.946 623.624 683.653 623.624 682.04C623.624 679.893 624.776 677.946 627.079 676.24C629.382 674.533 633.288 672.88 638.812 671.293L640.362 665.333C638.058 667.506 636.056 669.093 634.371 670.12C632.671 671.133 630.986 671.64 629.272 671.64C627.271 671.64 625.639 670.853 624.351 669.28C623.487 668.213 622.911 666.92 622.638 665.413C617.14 670.226 612.426 672.626 608.478 672.626C606.874 672.626 605.572 672.16 604.584 671.213C603.598 670.266 603.104 668.986 603.104 667.4C603.104 665.226 604.16 661.92 606.284 657.453C607.422 655.053 607.984 653.533 607.984 652.88C607.984 652.226 607.683 651.906 607.079 651.906C606.751 651.906 606.298 652.053 605.75 652.333C605.243 652.626 604.64 653.013 603.968 653.52C603.364 653.986 602.694 654.546 601.939 655.213C601.295 655.773 600.596 656.426 599.842 657.146L597.814 659.12C596.922 660.04 596.374 660.986 596.155 662C595.784 663.72 595.552 665.293 595.428 666.72C595.36 667.8 595.319 669.24 595.319 671.053L587.342 672.626C587.08 669.906 586.943 667.893 586.943 666.56C586.943 666.226 586.943 665.893 586.971 665.56C581.53 670.226 577.39 672.626 574.648 672.626C573.114 672.626 571.811 671.973 570.755 670.653C569.686 669.333 569.152 667.68 569.152 665.693V665.586C563.738 670.28 559.091 672.626 555.198 672.626C553.594 672.626 552.292 672.16 551.304 671.213C550.318 670.266 549.824 668.986 549.824 667.4C549.824 665.226 550.88 661.92 553.004 657.453C554.142 655.053 554.704 653.533 554.704 652.88C554.704 652.226 554.403 651.906 553.8 651.906C553.471 651.906 553.018 652.053 552.456 652.333C551.963 652.626 551.359 653.013 550.688 653.52C550.084 653.986 549.414 654.546 548.659 655.213C548.015 655.773 547.316 656.426 546.562 657.146L544.534 659.12C543.643 660.04 543.094 660.986 542.875 662C542.506 663.72 542.272 665.293 542.148 666.72C542.08 667.8 542.039 669.24 542.039 671.053L534.062 672.626C533.8 669.906 533.663 667.893 533.663 666.56C533.663 666.213 533.663 665.88 533.691 665.533C527.798 670.266 523.246 672.626 520.011 672.626C518.544 672.626 517.298 672.12 516.283 671.08C515.268 670.04 514.762 668.76 514.762 667.226C514.762 664.386 516.584 660.586 520.216 655.813C518.448 656.586 516.488 657.12 514.378 657.413C512.815 659.853 510.362 662.466 507.003 665.266H506.99C503.138 668.32 500.368 670.32 498.696 671.24C497.038 672.173 495.448 672.626 493.926 672.626C490.115 672.626 488.32 669.813 488.539 664.186C486.127 667.08 483.906 669.2 481.864 670.573C479.835 671.946 477.738 672.626 475.559 672.626C473.447 672.626 471.652 671.8 470.158 670.133C468.992 668.826 468.294 667.293 468.047 665.533C465.114 667.92 462.482 669.68 460.124 670.84C457.698 672.04 454.998 672.626 452.064 672.626C448.788 672.626 446.143 671.76 444.142 670C442.675 668.72 441.728 667.133 441.346 665.266C435.63 670.133 429.79 672.573 423.8 672.573C422.072 672.573 420.4 672.386 418.796 672.013C417.192 671.626 415.247 671 412.93 670.12C410.64 669.226 408.599 668.586 406.844 668.173C403.582 671.146 400.635 672.626 398.003 672.626C397.084 672.626 396.316 672.386 395.714 671.88C395.111 671.386 394.81 670.773 394.81 670.066C394.81 668.546 395.714 667.213 397.51 666.066C399.306 664.92 401.855 664.133 405.144 663.693C406.515 662.12 407.392 660.573 407.762 659.066C408.146 657.56 408.462 655.08 408.667 651.626C409.078 644.493 411.354 638.92 415.494 634.893C419.632 630.853 424.128 628.84 428.982 628.84C432.298 628.84 435.04 629.72 437.178 631.493C439.316 633.253 440.386 635.493 440.386 638.24C440.386 641.4 439.262 644.173 437.014 646.546C434.779 648.933 432.175 650.12 429.27 650.12C427.747 650.12 426.555 649.76 425.691 649.08C424.815 648.386 424.375 647.44 424.375 646.226C424.375 645.6 424.526 644.88 424.815 644.053C425.459 644.666 426.28 644.986 427.267 644.986C428.912 644.986 430.339 644.173 431.572 642.533C432.792 640.906 433.408 638.96 433.408 636.72C433.408 634.986 432.943 633.626 432.01 632.626C431.064 631.626 429.776 631.133 428.131 631.133C426.158 631.133 424.608 631.72 423.512 632.906C422.415 634.106 421.647 635.533 421.223 637.173C420.784 638.84 420.332 641.52 419.852 645.213C419.344 648.92 418.536 652.2 417.384 655.066C416.247 657.92 414.108 660.72 410.97 663.48C413.012 663.346 414.795 663.453 416.302 663.773C417.81 664.08 419.962 664.68 422.772 665.56C425.582 666.44 427.994 666.88 430.023 666.88C433.916 666.88 437.631 665.24 441.167 661.986C441.427 658.133 443.182 654.64 446.431 651.466C449.98 648.013 453.9 646.28 458.219 646.28C460.454 646.28 462.263 646.76 463.606 647.733C464.95 648.693 465.635 649.96 465.635 651.533C465.635 655.706 460.343 659.08 449.762 661.68C450.722 665.64 453.243 667.626 457.314 667.626C458.89 667.626 460.412 667.266 461.851 666.546C463.235 665.866 465.319 664.373 468.088 662.053C468.416 659.733 469.363 657.493 470.912 655.36C472.899 652.613 475.463 650.4 478.56 648.706C481.672 647 484.427 646.16 486.812 646.16C489.827 646.16 491.926 647.306 493.131 649.626L500.56 646.16H502.603L499.395 655.053C497.723 659.533 496.9 662.586 496.9 664.253C496.9 666 497.64 666.88 499.107 666.88C500.04 666.88 501.082 666.453 502.206 665.626C503.302 664.813 504.838 663.6 506.798 661.973C508.442 660.493 509.923 658.92 511.266 657.226C509.21 656.466 508.168 655.346 508.168 653.84C508.168 652.306 508.799 650.653 510.06 648.906C511.335 647.16 513.075 646.28 515.282 646.28C517.16 646.28 518.092 647.08 518.092 648.68C518.092 649.946 517.558 651.733 516.462 654.08C520.463 653.72 523.972 651.16 526.96 646.4L530.25 646.28L526.906 654.013C525.508 657.266 524.603 659.493 524.192 660.666C523.794 661.853 523.575 662.893 523.575 663.8C523.575 664.64 523.822 665.306 524.288 665.813C524.754 666.32 525.384 666.573 526.179 666.573C527.056 666.573 527.879 666.32 528.674 665.84C529.468 665.36 531.264 664.013 534.006 661.826C534.239 660.293 534.568 658.813 535.02 657.36C535.926 654.453 537.379 651.2 539.379 647.586L548.194 646.16C546.343 650.28 545.11 653.546 544.534 655.946C548.482 652.266 551.634 649.706 553.964 648.293C556.294 646.866 558.351 646.16 560.174 646.16C561.394 646.16 562.422 646.546 563.244 647.32C564.052 648.093 564.464 649.066 564.464 650.226C564.464 652.16 563.422 655.36 561.339 659.813C559.912 662.88 559.187 664.866 559.187 665.786C559.187 667.013 559.79 667.626 560.968 667.626C562.736 667.626 565.588 665.68 569.522 661.813V661.88C570.207 658.093 571.811 653.426 574.347 647.88L583.544 646.28H583.968L580.351 655.72C578.856 659.626 578.116 662.413 578.116 664.08C578.116 664.76 578.295 665.293 578.638 665.706C578.994 666.12 579.432 666.32 579.967 666.32C580.912 666.32 581.844 666.04 582.804 665.48C582.914 665.413 583.051 665.333 583.188 665.24C585.655 663.546 587.368 660.96 588.095 658.106C588.163 657.826 588.232 657.573 588.3 657.36C589.206 654.453 590.658 651.2 592.66 647.586L601.474 646.16C599.623 650.28 598.39 653.546 597.814 655.946C601.762 652.266 604.914 649.706 607.244 648.293C609.575 646.866 611.631 646.16 613.454 646.16C614.674 646.16 615.702 646.546 616.524 647.32C617.332 648.093 617.744 649.066 617.744 650.226C617.744 652.16 616.702 655.36 614.619 659.813C613.194 662.88 612.467 664.866 612.467 665.786C612.467 667.013 613.07 667.626 614.248 667.626C615.962 667.626 618.703 665.786 622.474 662.133C622.747 658.4 624.611 654.866 628.066 651.56C631.822 647.96 635.81 646.16 640.046 646.16C642.376 646.16 644.459 646.986 646.268 648.626C647.351 648.306 648.778 647.813 650.504 647.146L653.082 646.16H653.918C652.958 648.546 652.231 650.88 651.724 653.146L648.311 668.36ZM451.626 651.773C453.079 649.76 454.587 648.76 456.163 648.76C457.822 648.76 458.671 649.72 458.671 651.64C458.671 655.533 455.6 658.2 449.474 659.64C449.474 656.413 450.2 653.8 451.626 651.773ZM487.334 661.72C485.208 665.16 482.932 666.88 480.52 666.88C479.534 666.88 478.724 666.533 478.095 665.866C477.45 665.186 477.122 664.306 477.122 663.226C477.122 660.346 478.204 657.186 480.356 653.76C482.508 650.346 484.796 648.626 487.21 648.626C488.21 648.626 489.019 648.946 489.622 649.586C490.226 650.213 490.527 651.093 490.527 652.226C490.527 655.133 489.458 658.293 487.334 661.72V661.72ZM634.371 682.373C633.082 684.213 631.575 685.133 629.834 685.133C628.819 685.133 627.996 684.84 627.339 684.266C626.68 683.693 626.366 682.946 626.366 682.04C626.366 678.986 630.259 676.28 638.058 673.946C636.866 677.733 635.632 680.533 634.371 682.373V682.373ZM642.663 657.2C641.938 659.813 640.895 661.96 639.579 663.653C638.25 665.36 636.728 666.2 635.015 666.2C633.878 666.2 632.972 665.786 632.274 664.973C631.602 664.16 631.259 663.04 631.259 661.653C631.259 658.666 632.204 655.72 634.11 652.84C636.016 649.946 638.25 648.506 640.799 648.506C641.65 648.506 642.348 648.813 642.924 649.44C643.486 650.04 643.76 650.826 643.76 651.773C643.76 652.786 643.404 654.6 642.663 657.2V657.2ZM586.559 634.466C585.299 635.253 583.996 635.64 582.708 635.64C581.556 635.64 580.022 635.146 578.116 634.16C577.348 636.373 576.252 638.36 574.867 640.133C576.334 641.173 578.103 641.706 580.172 641.706C584.435 641.706 586.559 639.293 586.559 634.466ZM587.368 664.8C587.342 664.826 587.314 664.853 587.287 664.866V664.893C587.3 664.893 587.3 664.893 587.314 664.88V665.213C587.327 665.08 587.355 664.933 587.368 664.8" fill="white"/>
</svg>
