<svg width="50" height="50" viewBox="0 0 50 50" fill="none" xmlns="http://www.w3.org/2000/svg">
<g id="iconspace_Home 1_25px">
<path id="Path" d="M24.2 34C21.8804 34 20 35.8804 20 38.2V44.6C20 45.3732 20.6268 46 21.4 46H28.6C29.3732 46 30 45.3732 30 44.6V38.2C30 35.8804 28.1196 34 25.8 34H24.2Z" fill="#2A368A"/>
<path id="Path_2" d="M32 44.7647V38.1765C32 34.7653 28.8818 32 25.4706 32H24.5294C21.1182 32 18 34.7653 18 38.1765V44.7647C18 45.1978 18.0743 45.6136 18.2109 46H15.1177C11.7065 46 8.94119 43.2347 8.94119 39.8235V20.9282L6.04876 23.4591C5.53532 23.9083 4.75491 23.8563 4.30566 23.3429C3.8564 22.8294 3.90843 22.049 4.42186 21.5998L24.1866 4.30564C24.6523 3.89812 25.3477 3.89812 25.8134 4.30564L45.5781 21.5998C46.0916 22.049 46.1436 22.8294 45.6943 23.3429C45.2451 23.8563 44.4647 23.9083 43.9512 23.4591L41.0588 20.9282V39.8235C41.0588 43.2347 38.2935 46 34.8823 46H31.7891C31.9257 45.6136 32 45.1978 32 44.7647Z" fill="#2A368A"/>
</g>
</svg>
