<svg width="50" height="50" viewBox="0 0 50 50" fill="none" xmlns="http://www.w3.org/2000/svg">
<g id="iconspace_Play Button_25px">
<path id="Path" fill-rule="evenodd" clip-rule="evenodd" d="M5 26C5 37.598 14.402 47 26 47C37.598 47 47 37.598 47 26C47 14.402 37.598 5 26 5C14.402 5 5 14.402 5 26ZM19.3518 36.0581C20.011 37.0788 21.3727 37.3719 22.3935 36.7128L36.1212 27.8481C36.3834 27.6787 36.6066 27.4556 36.7759 27.1934C37.435 26.1727 37.1419 24.8109 36.1212 24.1518L22.3935 15.287C22.0378 15.0573 21.6234 14.9352 21.2 14.9352C19.985 14.9352 19 15.9202 19 17.1352V34.8646C19 35.288 19.1222 35.7024 19.3518 36.0581Z" fill="#2A368A"/>
<path id="Path_2" fill-rule="evenodd" clip-rule="evenodd" d="M35.0957 26.1084C35.1557 26.0156 35.129 25.8918 35.0362 25.8319L21.3085 16.9672C21.2762 16.9463 21.2385 16.9352 21.2 16.9352C21.0895 16.9352 21 17.0247 21 17.1352V34.8646C21 34.9031 21.0111 34.9408 21.032 34.9731C21.0919 35.0659 21.2157 35.0926 21.3085 35.0327L35.0362 26.1679C35.0601 26.1525 35.0803 26.1322 35.0957 26.1084Z" fill="#2A368A"/>
</g>
</svg>
