<svg width="20" height="20" viewBox="0 0 20 20" fill="none" xmlns="http://www.w3.org/2000/svg">
<path fill-rule="evenodd" clip-rule="evenodd" d="M12.3094 19.125C12.2469 19.375 12.075 19.5 11.7937 19.5H7.80937C7.52812 19.5 7.35625 19.375 7.29375 19.125L6.91875 16.5469C6.45 16.3594 5.8875 16.0312 5.23125 15.5625L2.7 16.5469C2.45 16.6719 2.2625 16.5938 2.1375 16.3125L0.121875 12.9844C-0.034375 12.7031 -0.003125 12.4844 0.215625 12.3281L2.325 10.7344C2.325 10.6594 2.32 10.5444 2.31 10.3894L2.30156 10.2656C2.28594 10.0469 2.27813 9.875 2.27813 9.75C2.27813 9.65625 2.28252 9.53613 2.29131 9.38965L2.30156 9.23438C2.31719 9.01562 2.325 8.85938 2.325 8.76562L0.16875 7.17188C-0.01875 6.98438 -0.05 6.76562 0.075 6.51562L2.09063 3.1875C2.21563 2.9375 2.40313 2.85938 2.65313 2.95312L5.18437 3.9375C5.96562 3.40625 6.52812 3.07812 6.87187 2.95312L7.24687 0.375C7.30937 0.125 7.48125 0 7.7625 0H11.7469C12.0281 0 12.2 0.125 12.2625 0.375L12.5906 2.95312C13.0594 3.14062 13.6219 3.46875 14.2781 3.9375L16.7625 2.95312C17.0125 2.82812 17.2156 2.90625 17.3719 3.1875L19.3875 6.51562C19.5438 6.79688 19.5125 7.01562 19.2938 7.17188L17.1844 8.76562C17.1844 8.84062 17.1894 8.95563 17.1994 9.11063L17.2078 9.23438C17.2234 9.45312 17.2313 9.625 17.2313 9.75C17.2313 10.2188 17.2156 10.5469 17.1844 10.7344L19.3875 12.3281C19.575 12.5156 19.6063 12.7344 19.4813 12.9844L17.4656 16.3125C17.3406 16.5625 17.1531 16.6406 16.9031 16.5469L14.3719 15.5625C13.5906 16.0938 13.0281 16.4219 12.6844 16.5469L12.3094 19.125ZM7.24683 12.1875C7.93433 12.8438 8.76245 13.1719 9.7312 13.1719C10.7 13.1719 11.5281 12.8438 12.2156 12.1875C12.9031 11.5312 13.2468 10.7188 13.2468 9.75C13.2468 8.78125 12.9031 7.96875 12.2156 7.3125C11.5281 6.65625 10.7 6.32812 9.7312 6.32812C8.76245 6.32812 7.94214 6.65625 7.27026 7.3125C6.59839 7.96875 6.26245 8.78125 6.26245 9.75C6.26245 10.7188 6.59058 11.5312 7.24683 12.1875Z" fill="#2A368A"/>
</svg>
