<svg width="400" height="400" viewBox="0 0 400 400" fill="none" xmlns="http://www.w3.org/2000/svg">
<path d="M341.911 186.503C345.275 184.023 347.77 180.563 349.046 176.61C350.323 172.657 350.318 168.405 349.03 164.455C347.743 160.505 345.238 157.052 341.868 154.582C338.496 152.11 334.43 150.745 330.236 150.678L248.782 147.632C248.382 147.605 247.998 147.463 247.677 147.225C247.355 146.987 247.11 146.662 246.972 146.288L218.825 71.0553C217.41 67.2277 214.842 63.9225 211.467 61.5875C208.092 59.2523 204.073 58 199.955 58C195.837 58 191.818 59.2523 188.443 61.5875C185.067 63.9225 182.498 67.2277 181.085 71.0553L153.028 146.558C152.89 146.93 152.645 147.255 152.323 147.493C152.002 147.732 151.618 147.873 151.218 147.902L69.7638 150.947C65.57 151.013 61.5027 152.378 58.1322 154.85C54.7618 157.32 52.2572 160.773 50.9698 164.723C49.6823 168.675 49.6767 172.925 50.9533 176.878C52.23 180.833 54.7252 184.292 58.0888 186.772L121.985 236.48C122.305 236.728 122.543 237.065 122.673 237.447C122.802 237.83 122.813 238.24 122.708 238.63L100.716 315.743C99.5768 319.67 99.6871 323.85 101.033 327.711C102.378 331.575 104.893 334.933 108.236 337.331C111.579 339.728 115.587 341.05 119.715 341.113C123.843 341.176 127.89 339.98 131.307 337.686L198.823 292.905C199.157 292.678 199.55 292.557 199.955 292.557C200.358 292.557 200.753 292.678 201.087 292.905L268.602 337.686C271.973 340.058 276.007 341.333 280.142 341.333C284.278 341.333 288.31 340.058 291.681 337.686C295.025 335.311 297.541 331.97 298.888 328.12C300.233 324.27 300.34 320.103 299.193 316.191L277.02 238.808C276.902 238.42 276.908 238.005 277.038 237.62C277.168 237.235 277.413 236.9 277.743 236.658L341.911 186.503Z" fill="#2A368A"/>
</svg>
